<?xml version="1.0" encoding="utf-8"?>
<!-- Generator: Adobe Illustrator 15.1.0, SVG Export Plug-In . SVG Version: 6.00 Build 0)  -->
<!DOCTYPE svg PUBLIC "-//W3C//DTD SVG 1.1//EN" "http://www.w3.org/Graphics/SVG/1.1/DTD/svg11.dtd">
<svg version="1.1" id="Layer_1" xmlns="http://www.w3.org/2000/svg" xmlns:xlink="http://www.w3.org/1999/xlink" x="0px" y="0px"
	 width="792px" height="612px" viewBox="0 0 792 612" enable-background="new 0 0 792 612" xml:space="preserve">
<rect x="565.814" y="45.933" fill="#FFFFFF" stroke="#000000" stroke-miterlimit="10" width="179.832" height="41.176"/>
<text transform="matrix(1 0 0 1 586.8438 72.5205)" font-family="'Optima-Bold'" font-size="16">WEB FRAMEWORK</text>
<rect x="565.814" y="86.933" fill="#FFFFFF" stroke="#000000" stroke-miterlimit="10" width="179.832" height="41.176"/>
<text transform="matrix(1 0 0 1 593.9473 103.5205)"><tspan x="0" y="0" font-family="'Optima-Bold'" font-size="16">PROGRAMMING</tspan><tspan x="18.855" y="19.2" font-family="'Optima-Bold'" font-size="16">LANGUAG</tspan><tspan x="97.992" y="19.2" font-family="'Optima-Bold'" font-size="16" letter-spacing="-1">E</tspan></text>
<rect x="565.814" y="126.933" fill="#FFFFFF" stroke="#000000" stroke-miterlimit="10" width="179.832" height="41.176"/>
<text transform="matrix(1 0 0 1 609.5078 153.5205)" font-family="'Optima-Bold'" font-size="16">WEB SERVER</text>
<rect x="565.814" y="167.933" fill="#FFFFFF" stroke="#000000" stroke-miterlimit="10" width="179.832" height="41.176"/>
<text transform="matrix(1 0 0 1 605.0508 193.5205)" font-family="'Optima-Bold'" font-size="16">DATA SERVER</text>
<rect x="565.814" y="209.933" fill="#FFFFFF" stroke="#000000" stroke-miterlimit="10" width="179.832" height="41.176"/>
<rect x="565.814" y="260.933" fill="#FFFFFF" stroke="#000000" stroke-miterlimit="10" width="179.832" height="41.176"/>
<text transform="matrix(1 0 0 1 581.1631 237.5205)" font-family="'Optima-Bold'" font-size="16">OPERATING SYSTEM</text>
<text transform="matrix(0 -0.5211 1 0 677.1992 334.5986)" font-family="'Optima-Bold'" font-size="80.5928">{</text>
<text transform="matrix(1 0 0 1 629.6191 287.5205)" font-family="'Optima-Bold'" font-size="16">SERVER</text>
<rect x="145.815" y="443.85" fill="#FFFFFF" stroke="#000000" stroke-miterlimit="10" width="209.546" height="57.588"/>
<text transform="matrix(0 -0.5211 1 0 228.8877 521.9102)" font-family="'Optima-Bold'" font-size="80.5928">{</text>
<text transform="matrix(1 0 0 1 176.7817 469.4375)"><tspan x="0" y="0" font-family="'Optima-Bold'" font-size="16">BROWSER-ENABLED</tspan><tspan x="11.552" y="19.201" font-family="'Optima-Bold'" font-size="16">MOBILE DEVICES</tspan></text>
<text transform="matrix(1 0 0 1 549.6953 376.1846)" font-family="'Optima-Bold'" font-size="36">SERVER-SIDE</text>
<text transform="matrix(1 0 0 1 102.7534 562)" font-family="'Optima-Bold'" font-size="36">CLIENT-SIDE</text>
<line fill="none" stroke="#000000" stroke-width="6" stroke-miterlimit="10" x1="404.48" y1="195.336" x2="462.463" y2="195.336"/>
<text transform="matrix(1 0 0 1 398.4453 204.4961)" font-family="'Optima-Bold'" font-size="34">&lt;</text>
<text transform="matrix(1 0 0 1 448.3877 203.4961)" font-family="'Optima-Bold'" font-size="34">&gt;</text>
<text transform="matrix(1 0 0 1 380.666 164.3359)" font-family="'Optima-Bold'" font-size="24">INTERNET</text>
<rect x="209.605" y="401.85" fill="#FFFFFF" stroke="#000000" stroke-miterlimit="10" width="144.756" height="41.176"/>
<text transform="matrix(1 0 0 1 232.9814 428.4375)" font-family="'Optima-Bold'" font-size="16">NATIVE APPS</text>
<g>
	<g>
		<path fill="#010101" d="M401.598,101.049c0,0-1.847,2.667-1.077,6.616c0.77,3.949,1.282,5.949,3.436,7.128
			c2.154,1.18,4.206,1.282,4.514,1.077c0.359-0.154,0.359-3.282-0.359-4.872c-0.666-1.59-4.615-9.283-4.615-9.283"/>
		<path fill="#010101" d="M437.241,64.432l5.385,5.283c0,0,13.693-3.385,14.873,6.821c-0.154-5.744-1.539-11.54-5.283-13.18
			C448.473,61.714,447.651,61.098,437.241,64.432z"/>
		<g>
			<path fill="#04A9DD" d="M399.905,95.459c0-18.514,15.026-33.541,33.54-33.541c18.515,0,33.541,15.026,33.541,33.541
				S451.96,129,433.445,129C414.932,129.051,399.905,114.025,399.905,95.459z"/>
			<g opacity="0.42">
				<path fill="#FFFFFF" d="M416.47,67.458c0,0,18.002-12.975,36.823,2.513l0.462,1.128c0,0,2.205,1.589,2.923,2.82l2.872,3.539
					l-0.718-0.257l-1.385-0.974l-1.282-0.923l-0.923-0.872l-0.205,0.974l-0.924,0.461c0,0,0.154,3.078-0.256,3.385l-0.718-0.051
					c0,0,0.256,1.077-0.564,1.641c0,0-1.077,0.308-1.744,0.308c0,0-1.18,1.333,1.282,1.077c0,0,0.462-0.051,1.539,0.513
					c0,0,1.18-0.872,0.051-2.564c0,0,1.385-0.359,1.847-0.564c0,0,1.333,1.539,1.949,4.154l0.461,2.103l-0.308,2.77l0.153,1.333
					l-0.358,1.128c0,0-0.052-0.256-0.667-0.41s-0.923-0.872-1.385-0.821c-0.461,0.051-1.076-0.256-1.076-0.256
					s-0.667,0.564-0.924,0.308c-0.256-0.308-0.82-0.154-1.128-0.513s-0.77-0.513-1.129-0.359c-0.358,0.154-1.538,0.154-1.538,0.154
					l-1.18-0.154l-0.205,0.513c0,0,0,0,1.385,0.616c1.385,0.615,2,0.41,2,0.41l0.77,0.513l1.077,0.872l0.82-0.41l0.872,0.615
					l1.025-0.359l1.077-0.103l1.077-0.308c0,0,0.615-0.872,0.563-1.282c-0.051-0.461-0.205-1.487-0.205-1.487l0.205-1.18
					l1.231,1.795l0.153,1.231l0.77,2.359l-0.103,1.436l-0.103,2.411l0.257,1.641l0.103,1.282l0.153,0.564l0.615,1.128
					c0,0,0.821,0.154,0.411,0.461c-0.359,0.359-0.309,1.795-0.309,1.795l-0.41,2.206l-0.615,0.872l0.308,0.718
					c0,0-2.615,5.437-5.385,7.847l-1.025,0.564c0,0-0.719,0.103-1.077,0.256c-0.359,0.154-0.923,0.103-0.923,0.103l0.051-0.872
					v-0.974l-0.513-0.051l-0.77-0.513l-2.513,0.154l-0.975-0.359l0.205-0.718l-0.462-0.923c0,0-0.103-0.103-0.461,0.051
					c-0.359,0.154-0.821,0.206-1.128,0.462c-0.309,0.256-0.77,0.667-0.77,0.667l-0.719,0.308l-0.871-0.051l-1.539,1.128
					c0,0-1.23,1.282-1.641,1.385c-0.359,0.154-1.59,1.026-1.59,1.026l-1.487,0.974l-1.385,0.359l-1.949,0.461l-1.333-0.77
					l-0.872-0.41l-1.077-0.256l-1.077-0.051l-0.718-0.051l-0.41-0.667l-0.308-0.564l-0.564-0.821l0.154-0.82l-1.282-0.718
					c0,0,0.103-0.103-0.41-0.308s-0.41-0.667-0.41-0.667v-1.18c0,0,0.205-0.718,0.103-1.231c-0.154-0.564-0.103-0.923,0-1.333
					c0.103-0.462,0.103-0.462,0.103-0.462l0.82-1.385l-0.205-1.179l-0.359-1.18l0.308-1.59l0.154-0.975l0.41-0.308l0.923-0.103
					l0.77-0.667l1.077-1.282l1.282-1.436c0,0,1.743-0.872,1.487-1.128c-0.257-0.308,1.538-1.487,1.538-1.487l0.82,0.975l0.462,0.923
					l1.437-0.103l1.025-0.923l1.18-0.206l1.025-0.564l1.18-0.359l-0.308-0.923l-0.41-0.564l0.41-0.667l0.77-0.462l1.128-0.461
					l1.59-1.231l0.82-1.18c0,0,0.667-0.41,0.41-0.872c-0.256-0.461,0.564-1.333,0.564-1.333s-0.205-0.667-0.77-0.872
					c-0.513-0.205-0.872-0.615-0.872-0.615l-0.923-1.026l-0.82,1.18c0,0,0.256,0.103-0.154,0.975
					c-0.41,0.872-0.513,1.128-0.513,1.128s0.154,0.359-0.82,0.206s-1.437-0.103-1.437-0.103s-0.358-1.385-0.666-1.744
					c-0.308-0.359,0.666-0.769,0.358-1.487c-0.308-0.718-0.103-1.282-0.103-1.282l1.437-1.59l1.18-1.18c0,0,0.667-0.564-0.052-0.615
					c-0.718-0.052-0.718-0.052-1.18,0c-0.461,0.051-0.82,0.41-1.436,0.461s0.051,0.461-0.615,0.051
					c-0.667-0.411-0.462-0.77-0.462-0.77l-0.154-0.564c0,0,0.154-0.975-0.358-0.205c-0.513,0.769-0.564,1.487-0.564,1.487
					l0.564,0.667l0.77,0.154l-0.462,0.616l-0.462,0.41l-0.871-0.051l-0.616-0.154l0.257,1.641l0.256,0.461l0.359,1.18l0.872,0.051
					l0.975,0.154l-0.205,0.718c0,0-0.205,0.154-0.564,0.513s-0.615,1.026-0.615,1.026l0.103,1.077l0.718,0.051
					c0,0,0.975,0.154,0.77,0.513c-0.205,0.359,0.308,1.077,0.308,1.077s0,0.154-0.975-0.154c-0.975-0.359-1.23-0.461-1.846-0.564
					c-0.616-0.154-1.744-0.308-1.744-0.308s-0.052-0.821-0.77-0.513s-1.641,0.616-1.641,0.616l-0.257-0.308l-0.975-0.154
					l-0.308,0.616l0.308,0.564l1.744,0.461c0,0,1.025,0.411,1.333,0.206c0.308-0.257,0.821-0.564,0.821-0.564l0.615-0.051v1.18
					l1.077,1.077c0,0-0.257-0.102-0.564,0.154s-0.513-0.41-0.513-0.41s0.563,0.872,0.256,1.077c-0.308,0.256-0.871,0.923-1.18,0.359
					c-0.308-0.564-0.051-0.461-0.256-1.077c-0.205-0.667,0.153-1.128-0.205-1.026c-0.359,0.154,0.205-0.718-0.718-0.205
					c-0.924,0.461-0.206,0.513-0.924,0.461s-0.256-0.103-1.077-0.256c-0.82-0.154-1.333-0.205-1.333-0.205l-0.513,0.154
					l-1.077,1.641l-0.513,0.975c0,0,0.41,0.461,0.103,0.718s-0.513,0.923-0.513,0.923l-0.359,0.923c0,0,0.923,0.513,0.667,0.77
					c-0.308,0.256,0.461,0.769-0.103,1.23c-0.564,0.513-0.616,1.385-0.616,1.385s0.359-0.154-0.666,0.205
					c-1.025,0.359-0.82,0.205-1.642,0.41c-0.82,0.205-0.974-0.359-0.974-0.359s0.41-0.513,0.051-0.872
					c-0.308-0.359-0.103-0.103-0.667-0.77c-0.563-0.667-1.077-1.589-1.077-1.589l0.052-0.872l1.692-0.154l0.872-0.923l0.667-0.769
					c0,0,0-0.205-0.667-0.77c-0.667-0.564,0.308-0.41-0.667-0.564s-0.153,0-0.975-0.154c-0.769-0.154-1.23-0.256-1.23-0.256
					l1.59-0.872c0,0,0-0.975,0.205-1.333s0.82-1.385,0.513-1.949s-0.256-1.077-0.256-1.077s0.461,0.77,0.718-0.308
					c0.256-1.077,0.77-1.025,0.461-1.231c-0.358-0.205,0.257-0.051-0.615-0.513c-0.872-0.41-0.872-0.41-0.872-0.41l0.359-1.128
					l0.923,1.231l0.667,0.41l1.282-1.59l1.077-1.436c0,0,0.205-0.513-0.308-1.077c-0.514-0.564-0.77-0.872-0.77-0.872l1.025-0.205
					l-0.205-0.718l-0.615-0.154l0.205-0.718l0.615-1.026c0,0-0.051-0.256-0.461,0.051c-0.359,0.359-0.77,1.026-1.077,1.282
					s-0.77,0.667-0.77,0.667l-0.923-0.872c0,0,0.051,0.256-0.41-0.461c-0.462-0.77-0.205-0.975-0.205-0.975l-0.154-0.564
					l-0.82,0.359l0.153,0.564l0.41,0.667v1.333l0.616,0.513l1.59,0.308l-0.564,0.513l0.257,0.462c0,0,0.153,0.359,0.308,0.718
					c0.153,0.359,0.205,1.026,0.205,1.026l-0.257,1.077l-0.82-0.154c0,0-0.103-0.718-0.564-0.82
					c-0.461-0.103-0.461-0.103-0.461-0.103l-0.872-0.051l-0.205,0.718l-0.821,0.051l-0.41-0.308c0,0-0.153-0.564-0.41-0.82
					c-0.256-0.308-0.308-0.923-0.308-0.923l0.718-1.487V79.92l-0.513-0.923c0,0-0.975-0.359-0.461-1.282
					c0.513-0.975,0.718-1.282,0.718-1.282l0.153-0.616l0.77-0.667c0,0,0.77-0.461,1.23-0.718c0.462-0.257,1.642-0.77,1.642-0.77
					s0.462,0.923,0.257,1.282c-0.206,0.359-0.411,1.026-0.411,1.026s1.077,0.051,1.334-0.154c0.308-0.256,0.718-0.308,0.718-0.308
					s0.359-0.154-0.308-0.923c-0.667-0.77-0.615-1.282-0.615-1.282l-0.308-0.718l-0.052-1.59l0.41-0.667l-0.051-0.564
					c0,0,0.513-1.128-0.052-0.821c-0.563,0.308-1.23-0.103-1.23-0.103l-0.564-0.461l0.77-0.667l-1.077,0.103l-1.025,0.359
					c0,0-0.821-0.769-1.129-0.513s-0.41-0.308-0.974,0c-0.564,0.308-1.59,0.462-1.59,0.462l1.128-0.975l1.128-0.41l0.308-0.257
					l-0.308-0.308c0,0-0.256-0.872-0.615-0.513c-0.359,0.308-0.82,0.359-0.82,0.359s-0.154-0.359-0.513-0.051
					c-0.359,0.308-0.719,0.103-1.18,0.359c-0.462,0.257-1.385,0.718-1.385,0.718L416.47,67.458z"/>
				<path fill="#FFFFFF" d="M408.521,74.484c0,0-0.205,0.256-0.563,0.667c-1.231,1.641-4.257,6.257-5.949,14.001
					c0,0-0.41,9.539,0.82,12.514l0.513-0.564c0,0-0.051-0.616-0.205-1.026c-0.153-0.359,0.205-1.333,0.205-1.333l0.872-0.769
					c0,0-0.103,1.23,0.308,0.923c0.359-0.308,1.692,0.051,1.025-0.359c-0.666-0.41-0.615-0.513-1.025-0.77
					c-0.41-0.308-0.308-0.359-0.461-0.923c-0.154-0.564,0.513-0.975,0.103-1.077c-0.462-0.103-0.309,0.256-0.462-0.103
					c-0.154-0.359,0.667-0.564,0.667-0.564l1.025,0.974c0,0,0.153,0.564,0.205,1.026s0.462,1.128,0.462,1.128
					s1.487,0.718,0.974,0.154c-0.513-0.564-0.153-0.205-0.871-1.231c-0.719-1.026-0.154-1.692-0.154-1.692s0.667-0.41,0.154-0.975
					c-0.513-0.564-0.513-0.205-0.616-1.128c-0.103-0.923,0.104-1.59,0.104-1.59l-0.052-1.949l-0.103-1.282l-0.718,1.487
					c0,0,0.205-0.718,0.103-1.231c-0.154-0.564,0.256-1.077,0-1.333c-0.154-0.154-0.154-0.564-0.205-0.77
					c-0.052-0.154-0.103-0.205-0.205,0.103c-0.205,0.718-0.052,1.077-0.41,1.693c-0.309,0.615-0.154,0.615-0.359,1.333
					c-0.205,0.718-0.462,1.59-0.462,1.59l-0.563,0.667l0.103-1.231l0.256-2.205l0.462-1.385l0.205-1.333l0.513-0.564
					c0,0,1.18-0.564,1.437-1.077c0.205-0.513-0.462,0.256,0.461-1.026c0.872-1.282,0.872-1.282,0.872-1.282s-0.103,1.231-0.41,2.052
					c-0.308,0.769,0,0.154-0.308,0.769c-0.564,0.359-0.821,2.923-0.821,2.923s1.59-1.026,1.282-1.436
					c-0.308-0.359-0.41-0.82-0.41-0.82s-0.563,0.308,0.154-0.616c0.718-0.923,1.333-0.974,0.872-1.282
					c-0.411-0.308,0.41-0.667-0.103-1.282c-0.514-0.564,0.205-1.693,0.205-1.693l0.153-0.82c0,0,0.205,0.41-0.667,0.41
					c-0.871,0-0.871,0-0.871,0s0.923,0.103,0.666-0.564c-0.256-0.667,0-0.923,0-0.923s0.41-0.513,0.924,0.103
					c0.513,0.616,0.41,1.795,0.513,0.616c0.153-1.18-0.103-0.923-0.462-1.282c-0.308-0.359-0.564-0.821-0.564-0.821
					s0.411,0.308,0.719,0.051c0.308-0.256,0.103-1.23,0.103-1.23L408.521,74.484z"/>
				<path fill="#FFFFFF" d="M408.932,90.023l0.358-1.487l0.462-1.231l0.667-0.77c0,0,1.128-0.461,1.128-0.974
					c0.051-0.513,0.257-1.231,0.257-1.231l0.923-0.461c0,0,1.282-0.462,0.975-0.821s-0.719,0.154-0.77-0.513
					c-0.052-0.616,0.462-1.231,0.462-1.231l-0.206-0.821l0.564-0.513l-0.257-1.282l0.359-1.487l0.359-1.128
					c0,0-0.462-0.77-0.77-0.513s-0.359,0.154-0.667,0.411c-0.308,0.256,0.205,0.667-0.563,0.513
					c-0.821-0.154-0.309,0.205-0.821-0.154c-0.461-0.359-0.256-0.513-0.461-0.359c-0.205,0.154-0.103,0.103-0.872,0.769
					s-0.77,1.231-0.77,1.231s0.257,0.103,0.154,0.564c-0.103,0.411,0,1.333,0,1.333l0.256,0.461l-0.563,1.847l0.051,0.82
					l-0.358,1.128l-0.77,0.667l-0.205,0.667c0,0,0.051,0.256,0,1.179c-0.052,0.872,0,1.333,0,1.333l0.103,0.923l0.41,0.667
					L408.932,90.023z"/>
				<path fill="#FFFFFF" d="M415.444,85.715l0.41-1.026c0,0-0.41-0.461-0.871-0.051c-0.462,0.41,0.051,0.256-0.462,0.41
					c-0.564,0.103-0.564,0.103-0.564,0.103s0.052,0.257-0.308,0.616c-0.41,0.308-0.41,0.308-0.41,0.308l1.282,1.128l0.513-0.77
					L415.444,85.715z"/>
				<path fill="#FFFFFF" d="M420.932,91.459l-0.41-0.461l0.154-0.974c0,0-0.41-0.821-0.718-0.206
					c-0.309,0.616,0.205,0.821-0.257,1.077s-0.615-0.308-0.462,0.256c0.154,0.564,0.41,0.821,0.41,0.821l0.719-0.103L420.932,91.459
					z"/>
				<path fill="#FFFFFF" d="M422.316,92.28l1.129-0.821l0.871-0.769c0,0,0.309-0.41-0.051-0.615
					c-0.359-0.206,0.257,0.308-0.359-0.206c-0.615-0.461,0.41,0.308-0.615-0.461c-1.025-0.769-0.923-0.667-1.436-0.923
					c-0.513-0.206-0.975-0.154-0.975-0.154l0.308-0.769c0,0-0.052-0.461-0.462-0.103c-0.358,0.308,0.154,0.718-0.358,0.308
					c-0.514-0.41-0.667-0.769-0.667-0.769l0.103,1.282l0.77,0.872l0.563,0.667l0.924,0.718l-0.308,0.256l0.051,0.82
					c0,0,0.975-1.025,0.718-0.103C422.316,92.28,422.316,92.28,422.316,92.28z"/>
				<path fill="#FFFFFF" d="M427.599,124.744c0,0-11.539-1.744-18.206-10.36l0.872,0.41c0,0,7.744,8.154,16.616,9.129
					L427.599,124.744z"/>
			</g>
			<path opacity="0.75" fill="#FFFFFF" enable-background="new    " d="M463.858,102.588c0.308-6.616-0.359-12.514-2.001-17.643
				c0.77-0.923,1.539-1.949,2.309-2.923c-0.154-0.308-0.308-0.667-0.462-0.974c-0.718,0.974-1.437,1.897-2.205,2.821
				c-1.487-4.206-3.642-7.847-6.462-10.975c-0.667-0.77-1.385-1.436-2.154-2.103c0.462-0.513,0.975-1.025,1.437-1.539
				c-0.257-0.205-0.514-0.41-0.77-0.564c-0.462,0.513-0.924,1.026-1.385,1.487c-4.719-3.949-10.258-6.257-15.488-7.488
				c0.153-0.205,0.256-0.359,0.359-0.564c-0.257-0.051-0.616-0.051-0.975-0.103c-0.103,0.154-0.205,0.308-0.257,0.41
				c-0.923-0.205-1.847-0.359-2.77-0.513c-1.59,0-3.128,0.154-4.667,0.359c2.103,0.154,4.411,0.461,6.821,0.974
				c-1.385,1.744-2.975,3.385-4.667,4.821c-2.924-1.898-5.539-3.385-7.642-4.462c-0.41,0.154-0.82,0.308-1.282,0.461
				c2.103,1.026,4.924,2.564,8.052,4.667c-2.564,2.051-5.385,3.744-8.308,5.18l-4.411-7.693c-0.257,0.154-0.564,0.308-0.82,0.462
				l4.41,7.692c-2.718,1.333-5.487,2.411-8.052,3.283c-0.205-3.385-0.153-6.206-0.051-8.309c-0.359,0.257-0.667,0.564-0.975,0.821
				c-0.103,2.103-0.103,4.718,0.103,7.795c-2.513,0.82-4.872,1.436-6.821,1.897c0.103-0.821,0.257-1.539,0.359-2.308
				c-0.462,0.77-0.923,1.487-1.334,2.308c0,0.051,0,0.154-0.051,0.205c-0.052,0-0.052,0-0.103,0
				c-0.205,0.359-0.359,0.718-0.513,1.077c0.153-0.051,0.308-0.051,0.513-0.103c-0.615,4.923-0.82,11.026,0.256,17.334
				c-1.436,0.308-2.718,0.564-3.743,0.769c0.051,0.308,0.051,0.616,0.103,0.923c1.077-0.154,2.308-0.41,3.795-0.77
				c0.82,4.206,2.257,8.514,4.616,12.565c0.513,0.923,1.128,1.795,1.691,2.667c-1.486,0.359-2.769,0.667-3.846,0.872
				c0.205,0.308,0.41,0.564,0.666,0.82c1.077-0.256,2.359-0.513,3.796-0.872c2.77,3.795,6.308,7.026,10.514,9.693
				c-0.872,0.256-1.692,0.461-2.411,0.667c0.462,0.205,0.924,0.41,1.334,0.616c0.666-0.206,1.385-0.359,2.153-0.616
				c1.692,1.026,3.539,1.949,5.437,2.77c1.128,0.205,2.257,0.308,3.437,0.41c-2.719-1.025-5.282-2.205-7.591-3.539
				c2.872-0.872,6.154-1.949,9.744-3.333c2.616,2.051,5.591,4,8.924,5.744c0.462-0.103,0.872-0.257,1.282-0.411
				c-3.385-1.744-6.462-3.641-9.18-5.744c3.385-1.333,6.923-2.923,10.513-4.77l4.564,7.949c0.257-0.154,0.564-0.308,0.821-0.462
				l-4.564-7.949c3.23-1.692,6.41-3.59,9.539-5.744c0.256,3.231,0.205,6.616-0.103,10.206c0.358-0.308,0.667-0.615,1.025-0.923
				c0.257-3.488,0.257-6.821,0-9.95c2.257-1.59,4.462-3.333,6.514-5.231c-0.205,2.77-0.616,5.744-1.18,8.77
				c0.461-0.718,0.923-1.437,1.333-2.206c0.41-2.564,0.667-5.077,0.821-7.437c0.923-0.872,1.846-1.795,2.718-2.718
				c0.103-0.564,0.153-1.077,0.257-1.642C465.807,100.639,464.884,101.665,463.858,102.588z M452.318,71.509
				c0.719,0.667,1.437,1.333,2.103,2.051c2.872,3.128,4.976,6.872,6.411,11.18c-2.718,3.231-5.642,6.103-8.667,8.719
				c-2.359-5.488-5.437-10.104-8.668-13.898C446.421,77.202,449.396,74.484,452.318,71.509z M430.01,88.998
				c4.052-2.359,8.308-5.231,12.667-8.719c3.334,3.898,6.411,8.514,8.668,13.898c-4.257,3.59-8.719,6.616-13.13,9.18L430.01,88.998z
				 M437.446,103.768c-4.821,2.718-9.591,4.872-13.95,6.565c-3.385-4.77-5.795-9.745-7.487-14.617
				c0.153-0.051,0.308-0.103,0.41-0.154c3.744-1.436,8.052-3.436,12.771-6.103L437.446,103.768z M436.164,63.509
				c5.23,1.23,10.77,3.436,15.437,7.385c-2.872,2.975-5.795,5.59-8.719,8c-1.077-1.179-2.103-2.308-3.18-3.333
				c-2.82-2.718-5.692-5.026-8.41-6.923C433.087,67.099,434.728,65.406,436.164,63.509z M430.471,69.304
				c3.744,2.616,7.847,5.949,11.591,10.257c-4.257,3.385-8.462,6.257-12.564,8.616l-7.693-13.385
				C424.83,73.253,427.804,71.458,430.471,69.304z M420.983,75.202l7.744,13.437c-4.616,2.615-9.026,4.616-13.026,6.154
				c-1.897-5.846-2.821-11.437-3.18-16.155C415.239,77.715,418.111,76.586,420.983,75.202z M404.521,80.895
				c2-0.462,4.411-1.128,7.026-1.949c0.308,3.795,0.923,8.206,2.154,12.77c0.308,1.128,0.666,2.256,1.025,3.436
				c-3.795,1.436-7.18,2.41-10.001,3.077C403.648,91.921,403.905,85.767,404.521,80.895z M409.444,111.46
				c-2.309-3.949-3.692-8.154-4.514-12.309c2.821-0.667,6.257-1.641,10.104-3.077c1.641,4.718,4,9.745,7.487,14.617
				c-4.257,1.59-8.103,2.769-11.231,3.641C410.624,113.409,410.008,112.435,409.444,111.46z M422.624,124.795
				c-4.308-2.667-7.897-5.847-10.719-9.59c3.18-0.872,7.026-2.052,11.232-3.642c2.563,3.437,5.692,6.77,9.487,9.898
				C428.933,122.846,425.496,123.923,422.624,124.795z M433.65,121c-3.795-3.026-6.975-6.359-9.539-9.847
				c0.872-0.359,1.744-0.667,2.616-1.077c3.436-1.436,7.23-3.282,11.18-5.487l6.616,11.488
				C440.831,118.025,437.138,119.666,433.65,121z M445.396,115.666l-6.667-11.488c4.308-2.513,8.718-5.487,13.026-9.077
				c1.743,4.359,3.025,9.231,3.538,14.616C452.062,111.922,448.729,113.922,445.396,115.666z M462.884,103.562
				c-2.104,1.949-4.359,3.795-6.667,5.437c-0.564-5.437-1.897-10.309-3.642-14.617c2.975-2.564,5.897-5.436,8.616-8.564
				C462.679,90.946,463.294,96.896,462.884,103.562z"/>
		</g>
		<path opacity="0.28" fill="#010101" enable-background="new    " d="M436.574,109.46c0,0,17.386,0.256,24.36-4.462
			c-2.257-2.616-2.257-2.616-2.257-2.616s9.026-13.744,2.616-25.386c-13.283,23.796-15.027,27.13-24.515,32.002"/>
		<g>
			<g>
				<g>
					<path fill="#B4535B" d="M461.242,77.048c-2.82-9.795-6.564-20.104-24.001-12.616l1.076,0.41c0,0,5.642-2.667,11.54-1.077
						c5.897,1.59,6.154,12.309-4.411,25.181l-1.641-2.154c0,0-3.847,18.258-7.231,22.668c4.667,0.256,20.514-6.052,20.514-6.052
						l-2-2C455.088,101.409,464.063,86.792,461.242,77.048z"/>
				</g>
			</g>
			<g opacity="0.34">
				<g>
					<path fill="#010101" d="M453.14,63.149c-3.437-1.897-8.411-1.949-15.898,1.282l1.076,0.41c0,0,5.642-2.667,11.54-1.077
						c5.897,1.59,6.154,12.309-4.411,25.181l1.077,1.692c0,0,5.487-4.923,8.052-11.488C456.473,74.433,458.985,66.432,453.14,63.149
						z"/>
				</g>
			</g>
		</g>
		<path fill="#B4535B" d="M443.806,86.792l-1.437-0.359c0,0-2.667,12.976-6.359,21.694c0.513,1.333,0.513,1.333,0.513,1.333
			S439.856,107.152,443.806,86.792z"/>
		<path opacity="0.34" fill="#010101" enable-background="new    " d="M443.806,86.792l-1.437-0.359c0,0-2.667,12.976-6.359,21.694
			c0.513,1.333,0.513,1.333,0.513,1.333S439.856,107.152,443.806,86.792z"/>
		<path fill="#B4535B" d="M401.033,104.076c0,0-3.487,19.386,24.104,7.18c0,0-14.155,10.462-23.745,2.872
			c-4.821-4.718-2.667-11.642-1.334-15.232"/>
	</g>
</g>
<rect x="45.815" y="443.85" fill="#FFFFFF" stroke="#000000" stroke-miterlimit="10" width="99.285" height="57.588"/>
<text transform="matrix(1 0 0 1 52.3374 468.2617)"><tspan x="0" y="0" font-family="'Optima-Bold'" font-size="16">COMPUTER</tspan><tspan x="5.792" y="19.199" font-family="'Optima-Bold'" font-size="16">BROWSER</tspan></text>
<rect x="53.605" y="401.85" fill="#FFFFFF" stroke="#000000" stroke-miterlimit="10" width="144.756" height="41.176"/>
<text transform="matrix(1 0 0 1 99.2134 427.4375)" font-family="'Optima-Bold'" font-size="16">HTML5</text>
<rect x="54.605" y="359.85" fill="#FFFFFF" stroke="#000000" stroke-miterlimit="10" width="144.756" height="41.176"/>
<text transform="matrix(1 0 0 1 108.6616 385.4375)" font-family="'Optima-Bold'" font-size="16">CSS3</text>
<rect x="54.605" y="317.85" fill="#FFFFFF" stroke="#000000" stroke-miterlimit="10" width="144.756" height="41.176"/>
<text transform="matrix(1 0 0 1 81.9897 343.4375)" font-family="'Optima-Bold'" font-size="16">JAVASCRIPT</text>
<text transform="matrix(1 0 0 1 311.269 293.8145)"><tspan x="0" y="0" font-family="'Optima-Bold'" font-size="14">USER</tspan><tspan x="-4.284" y="16.8" font-family="'Optima-Bold'" font-size="14">INPUT</tspan></text>
<text transform="matrix(1 0 0 1 307.5234 336.0996)"><tspan x="0" y="0" font-family="'Optima-Bold'" font-size="14">clicks</tspan><tspan x="-0.259" y="16.8" font-family="'Optima-Bold'" font-size="14">forms</tspan><tspan x="5.831" y="33.6" font-family="'Optima-Bold'" font-size="14">urls</tspan></text>
<g>
	
		<line fill="none" stroke="#000000" stroke-width="6" stroke-miterlimit="10" x1="307.809" y1="320.083" x2="365.791" y2="320.083"/>
	<text transform="matrix(1 0 0 1 351.7158 328.2432)" font-family="'Optima-Bold'" font-size="34">&gt;</text>
</g>
<line fill="none" stroke="#000000" stroke-width="6" stroke-miterlimit="10" x1="393.546" y1="281.504" x2="460.908" y2="281.504"/>
<text transform="matrix(1.0716 0 0 1 387.8906 290.2734)" font-family="'Optima-Bold'" font-size="31.7299">&lt;</text>
<text transform="matrix(1 0 0 1 418.2695 254.8145)"><tspan x="0" y="0" font-family="'Optima-Bold'" font-size="14">USER</tspan><tspan x="-11.676" y="16.8" font-family="'Optima-Bold'" font-size="14">OUTPUT</tspan></text>
<text transform="matrix(1 0 0 1 414.6631 297.0996)"><tspan x="0" y="0" font-family="'Optima-Bold'" font-size="14">page</tspan><tspan x="28.784" y="0" font-family="'Optima-Bold'" font-size="14">s</tspan><tspan x="-6.362" y="16.8" font-family="'Optima-Bold'" font-size="14">content</tspan></text>
<text transform="matrix(1 0 0 1 16.7236 61.7734)"><tspan x="0" y="0" font-family="'Optima-Bold'" font-size="28">OPEN SOURCE SOFTWARE </tspan><tspan x="0" y="33.6" font-family="'Optima-Bold'" font-size="28">CLIENT-SERVER STACKS</tspan></text>
<text transform="matrix(1 0 0 1 665.1201 593.3359)"><tspan x="0" y="0" font-family="'Optima-Bold'" font-size="10">©2018, jeremy donson, nyc</tspan><tspan x="30.58" y="12" font-family="'Optima-Bold'" font-size="10">jjdonson@gmail.com</tspan></text>
</svg>
