<?xml version="1.0" encoding="utf-8"?>
<!-- Generator: Adobe Illustrator 15.1.0, SVG Export Plug-In . SVG Version: 6.00 Build 0)  -->
<!DOCTYPE svg PUBLIC "-//W3C//DTD SVG 1.1//EN" "http://www.w3.org/Graphics/SVG/1.1/DTD/svg11.dtd">
<svg version="1.1" id="Layer_1" xmlns="http://www.w3.org/2000/svg" xmlns:xlink="http://www.w3.org/1999/xlink" x="0px" y="0px"
	 width="792px" height="612px" viewBox="0 0 792 612" enable-background="new 0 0 792 612" xml:space="preserve">
<rect x="565.814" y="45.933" fill="#FFFFFF" stroke="#000000" stroke-miterlimit="10" width="179.832" height="41.176"/>
<text transform="matrix(1 0 0 1 586.8438 72.5205)" font-family="'Optima-Bold'" font-size="16">WEB FRAMEWORK</text>
<rect x="565.814" y="86.933" fill="#FFFFFF" stroke="#000000" stroke-miterlimit="10" width="179.832" height="41.176"/>
<text transform="matrix(1 0 0 1 593.9473 103.5205)" font-family="'Optima-Bold'" font-size="16">PROGRAMMING</text>
<text transform="matrix(1 0 0 1 612.8027 122.7207)" font-family="'Optima-Bold'" font-size="16">LANGUAG</text>
<text transform="matrix(1 0 0 1 691.9395 122.7207)" font-family="'Optima-Bold'" font-size="16">E</text>
<rect x="565.814" y="126.933" fill="#FFFFFF" stroke="#000000" stroke-miterlimit="10" width="179.832" height="41.176"/>
<text transform="matrix(1 0 0 1 609.5078 153.5205)" font-family="'Optima-Bold'" font-size="16">WEB SERVER</text>
<rect x="565.814" y="167.933" fill="#FFFFFF" stroke="#000000" stroke-miterlimit="10" width="179.832" height="41.176"/>
<text transform="matrix(1 0 0 1 605.0508 193.5205)" font-family="'Optima-Bold'" font-size="16">DATA SERVER</text>
<rect x="565.814" y="209.933" fill="#FFFFFF" stroke="#000000" stroke-miterlimit="10" width="179.832" height="41.176"/>
<rect x="565.814" y="260.933" fill="#FFFFFF" stroke="#000000" stroke-miterlimit="10" width="179.832" height="41.176"/>
<text transform="matrix(1 0 0 1 581.1631 237.5205)" font-family="'Optima-Bold'" font-size="16">OPERATING SYSTEM</text>
<text transform="matrix(0 -0.5211 1 0 677.1992 334.5986)" font-family="'Optima-Bold'" font-size="80.5928">{</text>
<text transform="matrix(1 0 0 1 629.6191 287.5205)" font-family="'Optima-Bold'" font-size="16">SERVER</text>
<rect x="145.815" y="443.85" fill="#FFFFFF" stroke="#000000" stroke-miterlimit="10" width="209.546" height="57.589"/>
<text transform="matrix(0 -0.5211 1 0 228.8877 521.9102)" font-family="'Optima-Bold'" font-size="80.5928">{</text>
<text transform="matrix(1 0 0 1 176.7817 469.4375)" font-family="'Optima-Bold'" font-size="16">BROWSER-ENABLED</text>
<text transform="matrix(1 0 0 1 188.3335 488.6387)" font-family="'Optima-Bold'" font-size="16">MOBILE DEVICES</text>
<text transform="matrix(1 0 0 1 549.6953 376.1846)" font-family="'Optima-Bold'" font-size="36">SERVER-SIDE</text>
<text transform="matrix(1 0 0 1 102.7534 562)" font-family="'Optima-Bold'" font-size="36">CLIENT-SIDE</text>
<line fill="none" stroke="#000000" stroke-width="6" stroke-miterlimit="10" x1="404.48" y1="195.336" x2="462.463" y2="195.336"/>
<text transform="matrix(1 0 0 1 398.4453 204.4961)" font-family="'Optima-Bold'" font-size="34">&lt;</text>
<text transform="matrix(1 0 0 1 448.3877 203.4961)" font-family="'Optima-Bold'" font-size="34">&gt;</text>
<text transform="matrix(1 0 0 1 380.666 164.3359)" font-family="'Optima-Bold'" font-size="24">INTERNET</text>
<rect x="209.605" y="401.85" fill="#FFFFFF" stroke="#000000" stroke-miterlimit="10" width="144.756" height="41.177"/>
<text transform="matrix(1 0 0 1 232.9814 428.4375)" font-family="'Optima-Bold'" font-size="16">NATIVE APPS</text>
<g>
	<g>
		<path fill="#010101" d="M401.598,101.049c0,0-1.847,2.667-1.076,6.616c0.77,3.949,1.281,5.949,3.436,7.128
			c2.154,1.18,4.206,1.282,4.514,1.077c0.359-0.154,0.359-3.282-0.358-4.872c-0.666-1.59-4.615-9.283-4.615-9.283"/>
		<path fill="#010101" d="M437.241,64.432l5.385,5.283c0,0,13.693-3.385,14.873,6.821c-0.154-5.744-1.539-11.54-5.283-13.18
			C448.473,61.714,447.651,61.098,437.241,64.432z"/>
		<g>
			<path fill="#04A9DD" d="M399.905,95.459c0-18.514,15.025-33.541,33.54-33.541s33.541,15.026,33.541,33.541
				S451.96,129,433.445,129C414.932,129.051,399.905,114.025,399.905,95.459z"/>
			<g opacity="0.42">
				<path fill="#FFFFFF" d="M416.47,67.458c0,0,18.002-12.975,36.823,2.513l0.462,1.128c0,0,2.205,1.589,2.923,2.82l2.872,3.539
					l-0.718-0.257l-1.385-0.974l-1.282-0.923l-0.923-0.872l-0.205,0.974l-0.924,0.461c0,0,0.153,3.078-0.256,3.385l-0.719-0.051
					c0,0,0.256,1.077-0.563,1.641c0,0-1.077,0.308-1.744,0.308c0,0-1.18,1.333,1.282,1.077c0,0,0.462-0.051,1.539,0.513
					c0,0,1.18-0.872,0.051-2.564c0,0,1.385-0.359,1.847-0.564c0,0,1.333,1.539,1.949,4.154l0.461,2.103l-0.308,2.77l0.152,1.333
					l-0.357,1.128c0,0-0.053-0.256-0.667-0.41c-0.615-0.154-0.923-0.872-1.386-0.821c-0.461,0.051-1.075-0.256-1.075-0.256
					s-0.667,0.564-0.925,0.308c-0.256-0.308-0.819-0.154-1.128-0.513c-0.308-0.359-0.77-0.513-1.129-0.359
					c-0.357,0.154-1.538,0.154-1.538,0.154l-1.18-0.154l-0.205,0.513c0,0,0,0,1.385,0.616c1.386,0.615,2,0.41,2,0.41l0.771,0.513
					l1.077,0.872l0.819-0.41l0.872,0.615l1.025-0.359l1.077-0.103l1.077-0.308c0,0,0.614-0.872,0.562-1.282
					c-0.051-0.461-0.205-1.487-0.205-1.487l0.205-1.18l1.231,1.795l0.152,1.231l0.771,2.359l-0.104,1.436l-0.103,2.411l0.257,1.641
					l0.104,1.282l0.152,0.563l0.615,1.128c0,0,0.821,0.154,0.411,0.461c-0.359,0.359-0.31,1.795-0.31,1.795l-0.409,2.206
					l-0.615,0.872l0.308,0.718c0,0-2.614,5.437-5.385,7.847l-1.025,0.564c0,0-0.719,0.103-1.076,0.256
					c-0.359,0.154-0.924,0.103-0.924,0.103l0.052-0.872v-0.974l-0.514-0.051l-0.77-0.513l-2.513,0.154l-0.976-0.359l0.205-0.718
					l-0.462-0.923c0,0-0.104-0.103-0.461,0.051c-0.359,0.154-0.821,0.206-1.128,0.462c-0.31,0.256-0.771,0.667-0.771,0.667
					l-0.719,0.308l-0.871-0.051l-1.539,1.128c0,0-1.229,1.282-1.641,1.385c-0.359,0.154-1.59,1.026-1.59,1.026l-1.487,0.974
					l-1.385,0.359l-1.949,0.461l-1.333-0.77l-0.872-0.41l-1.077-0.256l-1.077-0.051l-0.718-0.051l-0.41-0.667l-0.308-0.564
					l-0.564-0.821l0.154-0.82l-1.282-0.718c0,0,0.104-0.103-0.41-0.308c-0.513-0.205-0.409-0.667-0.409-0.667v-1.18
					c0,0,0.205-0.718,0.103-1.231c-0.154-0.564-0.103-0.923,0-1.333c0.104-0.462,0.104-0.462,0.104-0.462l0.819-1.385l-0.205-1.179
					l-0.358-1.18l0.308-1.59l0.154-0.975l0.41-0.308l0.923-0.103l0.77-0.667l1.077-1.282l1.282-1.436c0,0,1.743-0.872,1.487-1.128
					c-0.258-0.308,1.538-1.487,1.538-1.487l0.819,0.975l0.462,0.923l1.438-0.103l1.024-0.923l1.181-0.206l1.024-0.564l1.181-0.359
					l-0.309-0.923l-0.41-0.564l0.41-0.667l0.771-0.462l1.128-0.461l1.59-1.231l0.82-1.18c0,0,0.667-0.41,0.409-0.872
					c-0.256-0.461,0.564-1.333,0.564-1.333s-0.205-0.667-0.771-0.872c-0.513-0.205-0.871-0.615-0.871-0.615l-0.924-1.026
					l-0.819,1.18c0,0,0.256,0.103-0.154,0.975c-0.41,0.872-0.513,1.128-0.513,1.128s0.153,0.359-0.82,0.206
					c-0.974-0.153-1.438-0.103-1.438-0.103s-0.357-1.385-0.665-1.744c-0.309-0.359,0.665-0.769,0.357-1.487
					c-0.308-0.718-0.103-1.282-0.103-1.282l1.437-1.59l1.18-1.18c0,0,0.667-0.564-0.052-0.615c-0.718-0.052-0.718-0.052-1.18,0
					c-0.461,0.051-0.82,0.41-1.437,0.461c-0.615,0.051,0.052,0.461-0.614,0.051c-0.667-0.411-0.462-0.77-0.462-0.77l-0.154-0.564
					c0,0,0.154-0.975-0.358-0.205c-0.513,0.769-0.563,1.487-0.563,1.487l0.563,0.667l0.771,0.154l-0.462,0.616l-0.462,0.41
					l-0.871-0.051l-0.616-0.154l0.257,1.641l0.256,0.461l0.359,1.18l0.872,0.051l0.975,0.154l-0.205,0.718
					c0,0-0.205,0.154-0.563,0.513c-0.359,0.359-0.615,1.026-0.615,1.026l0.103,1.077l0.719,0.051c0,0,0.975,0.154,0.77,0.513
					s0.309,1.077,0.309,1.077s0,0.154-0.976-0.154c-0.975-0.359-1.229-0.461-1.846-0.564c-0.616-0.154-1.744-0.308-1.744-0.308
					s-0.052-0.821-0.77-0.513c-0.719,0.308-1.642,0.616-1.642,0.616l-0.257-0.308l-0.975-0.154l-0.309,0.616l0.309,0.564
					l1.743,0.461c0,0,1.025,0.411,1.333,0.206c0.309-0.257,0.821-0.564,0.821-0.564l0.615-0.051v1.18l1.077,1.077
					c0,0-0.257-0.102-0.564,0.154c-0.307,0.256-0.513-0.41-0.513-0.41s0.562,0.872,0.256,1.077c-0.308,0.256-0.871,0.923-1.18,0.359
					s-0.051-0.461-0.256-1.077c-0.205-0.667,0.152-1.128-0.205-1.026c-0.359,0.154,0.205-0.718-0.719-0.205
					c-0.924,0.461-0.205,0.513-0.924,0.461c-0.718-0.052-0.256-0.103-1.077-0.256c-0.819-0.154-1.333-0.205-1.333-0.205
					l-0.513,0.154l-1.077,1.641l-0.513,0.975c0,0,0.41,0.461,0.103,0.718c-0.307,0.257-0.513,0.923-0.513,0.923l-0.358,0.923
					c0,0,0.923,0.513,0.666,0.771c-0.308,0.256,0.462,0.769-0.103,1.229c-0.563,0.513-0.616,1.385-0.616,1.385
					s0.359-0.154-0.666,0.205c-1.024,0.359-0.819,0.205-1.642,0.41c-0.82,0.205-0.974-0.359-0.974-0.359s0.409-0.513,0.051-0.872
					c-0.309-0.359-0.104-0.103-0.667-0.77s-1.077-1.589-1.077-1.589l0.052-0.872l1.692-0.154l0.872-0.923l0.667-0.769
					c0,0,0-0.205-0.667-0.77c-0.667-0.564,0.308-0.41-0.667-0.564c-0.976-0.154-0.153,0-0.976-0.154
					c-0.769-0.154-1.229-0.256-1.229-0.256l1.59-0.872c0,0,0-0.975,0.205-1.333s0.819-1.385,0.513-1.949s-0.256-1.077-0.256-1.077
					s0.461,0.77,0.718-0.308c0.256-1.077,0.771-1.025,0.461-1.231c-0.357-0.205,0.257-0.051-0.615-0.513
					c-0.871-0.41-0.871-0.41-0.871-0.41l0.358-1.128l0.923,1.231l0.667,0.41l1.282-1.59l1.077-1.436c0,0,0.205-0.513-0.308-1.077
					c-0.515-0.564-0.771-0.872-0.771-0.872l1.025-0.205l-0.205-0.718l-0.615-0.154l0.205-0.718l0.615-1.026
					c0,0-0.052-0.256-0.461,0.051c-0.359,0.359-0.771,1.026-1.077,1.282c-0.308,0.256-0.771,0.667-0.771,0.667l-0.923-0.872
					c0,0,0.051,0.256-0.41-0.461c-0.462-0.77-0.205-0.975-0.205-0.975l-0.153-0.564l-0.82,0.359l0.153,0.564l0.41,0.667v1.333
					l0.615,0.513l1.59,0.308l-0.563,0.513l0.257,0.462c0,0,0.153,0.359,0.309,0.718c0.152,0.359,0.204,1.026,0.204,1.026
					l-0.257,1.077l-0.819-0.154c0,0-0.104-0.718-0.564-0.82s-0.461-0.103-0.461-0.103l-0.872-0.051l-0.205,0.718l-0.821,0.051
					l-0.409-0.308c0,0-0.153-0.564-0.41-0.82c-0.256-0.308-0.309-0.923-0.309-0.923l0.719-1.487V79.92l-0.514-0.923
					c0,0-0.975-0.359-0.461-1.282c0.513-0.975,0.718-1.282,0.718-1.282l0.153-0.616l0.771-0.667c0,0,0.77-0.461,1.229-0.718
					c0.462-0.257,1.642-0.77,1.642-0.77s0.463,0.923,0.258,1.282c-0.206,0.359-0.411,1.026-0.411,1.026s1.077,0.051,1.334-0.154
					c0.308-0.256,0.718-0.308,0.718-0.308s0.359-0.154-0.308-0.923c-0.667-0.77-0.615-1.282-0.615-1.282l-0.309-0.718l-0.052-1.59
					l0.41-0.667l-0.051-0.564c0,0,0.513-1.128-0.052-0.821c-0.563,0.308-1.23-0.103-1.23-0.103l-0.564-0.461l0.771-0.667
					l-1.077,0.103l-1.024,0.359c0,0-0.821-0.769-1.13-0.513c-0.308,0.256-0.409-0.308-0.974,0c-0.563,0.308-1.59,0.462-1.59,0.462
					l1.128-0.975l1.128-0.41l0.308-0.257l-0.308-0.308c0,0-0.256-0.872-0.615-0.513c-0.358,0.308-0.819,0.359-0.819,0.359
					s-0.154-0.359-0.514-0.051c-0.358,0.308-0.719,0.103-1.18,0.359c-0.462,0.257-1.385,0.718-1.385,0.718L416.47,67.458z"/>
				<path fill="#FFFFFF" d="M408.521,74.484c0,0-0.205,0.256-0.563,0.667c-1.231,1.641-4.257,6.257-5.949,14.001
					c0,0-0.41,9.539,0.82,12.514l0.513-0.564c0,0-0.051-0.616-0.205-1.026c-0.152-0.359,0.205-1.333,0.205-1.333l0.872-0.769
					c0,0-0.103,1.23,0.309,0.923c0.358-0.308,1.691,0.051,1.024-0.359c-0.666-0.41-0.615-0.513-1.024-0.77
					c-0.41-0.308-0.309-0.359-0.462-0.923c-0.153-0.563,0.514-0.975,0.104-1.077c-0.462-0.103-0.309,0.256-0.462-0.103
					c-0.154-0.359,0.667-0.564,0.667-0.564l1.024,0.974c0,0,0.153,0.564,0.205,1.026c0.053,0.462,0.462,1.128,0.462,1.128
					s1.487,0.718,0.975,0.154c-0.513-0.564-0.153-0.205-0.871-1.231c-0.719-1.026-0.154-1.692-0.154-1.692s0.667-0.41,0.154-0.975
					c-0.513-0.564-0.513-0.205-0.616-1.128c-0.103-0.923,0.104-1.59,0.104-1.59l-0.053-1.949l-0.103-1.282l-0.718,1.487
					c0,0,0.205-0.718,0.103-1.231c-0.153-0.564,0.256-1.077,0-1.333c-0.153-0.154-0.153-0.564-0.205-0.77
					c-0.052-0.154-0.103-0.205-0.205,0.103c-0.205,0.718-0.052,1.077-0.409,1.693c-0.31,0.615-0.154,0.615-0.359,1.333
					c-0.205,0.718-0.462,1.59-0.462,1.59l-0.563,0.667l0.104-1.231l0.256-2.205l0.462-1.385l0.205-1.333l0.513-0.564
					c0,0,1.181-0.564,1.438-1.077c0.205-0.513-0.462,0.256,0.461-1.026c0.872-1.282,0.872-1.282,0.872-1.282
					s-0.104,1.231-0.41,2.052c-0.308,0.769,0,0.154-0.308,0.769c-0.564,0.359-0.821,2.923-0.821,2.923s1.59-1.026,1.282-1.436
					c-0.309-0.359-0.41-0.82-0.41-0.82s-0.563,0.308,0.153-0.616c0.719-0.923,1.333-0.974,0.872-1.282
					c-0.411-0.308,0.41-0.667-0.103-1.282c-0.514-0.564,0.205-1.693,0.205-1.693l0.152-0.82c0,0,0.205,0.41-0.667,0.41
					c-0.87,0-0.87,0-0.87,0s0.923,0.103,0.666-0.564s0-0.923,0-0.923s0.409-0.513,0.924,0.103c0.513,0.616,0.41,1.795,0.513,0.616
					c0.153-1.18-0.103-0.923-0.462-1.282c-0.308-0.359-0.564-0.821-0.564-0.821s0.411,0.308,0.72,0.051
					c0.308-0.256,0.103-1.23,0.103-1.23L408.521,74.484z"/>
				<path fill="#FFFFFF" d="M408.932,90.023l0.358-1.487l0.462-1.231l0.667-0.77c0,0,1.128-0.461,1.128-0.974
					c0.051-0.513,0.257-1.231,0.257-1.231l0.923-0.461c0,0,1.282-0.462,0.976-0.821c-0.308-0.359-0.719,0.154-0.771-0.513
					c-0.052-0.616,0.462-1.231,0.462-1.231l-0.205-0.821l0.563-0.513l-0.257-1.282l0.359-1.487l0.358-1.128
					c0,0-0.462-0.771-0.77-0.513c-0.309,0.257-0.359,0.154-0.667,0.411c-0.309,0.256,0.205,0.667-0.563,0.513
					c-0.821-0.154-0.309,0.205-0.821-0.154c-0.461-0.359-0.256-0.513-0.461-0.359c-0.204,0.154-0.103,0.103-0.872,0.769
					c-0.769,0.666-0.77,1.231-0.77,1.231s0.257,0.103,0.154,0.564c-0.104,0.411,0,1.333,0,1.333l0.256,0.461l-0.563,1.847
					l0.052,0.82l-0.358,1.128l-0.771,0.667l-0.204,0.667c0,0,0.051,0.256,0,1.179c-0.053,0.872,0,1.333,0,1.333l0.103,0.923
					l0.41,0.667L408.932,90.023z"/>
				<path fill="#FFFFFF" d="M415.444,85.715l0.409-1.026c0,0-0.409-0.461-0.87-0.051c-0.462,0.41,0.051,0.256-0.462,0.41
					c-0.564,0.103-0.564,0.103-0.564,0.103s0.052,0.257-0.308,0.616c-0.41,0.308-0.41,0.308-0.41,0.308l1.282,1.128l0.513-0.77
					L415.444,85.715z"/>
				<path fill="#FFFFFF" d="M420.932,91.459l-0.409-0.461l0.153-0.974c0,0-0.41-0.821-0.718-0.206
					c-0.309,0.616,0.205,0.821-0.257,1.077s-0.615-0.308-0.462,0.256s0.41,0.821,0.41,0.821l0.719-0.103L420.932,91.459z"/>
				<path fill="#FFFFFF" d="M422.316,92.28l1.129-0.821l0.871-0.769c0,0,0.309-0.41-0.052-0.615
					c-0.358-0.206,0.258,0.308-0.358-0.206c-0.615-0.461,0.41,0.308-0.615-0.461c-1.025-0.769-0.923-0.667-1.436-0.923
					c-0.514-0.206-0.976-0.154-0.976-0.154l0.309-0.769c0,0-0.053-0.461-0.463-0.103c-0.357,0.308,0.154,0.718-0.357,0.308
					c-0.515-0.41-0.667-0.769-0.667-0.769l0.103,1.282l0.771,0.872l0.562,0.667l0.924,0.718l-0.308,0.256l0.051,0.82
					c0,0,0.976-1.025,0.718-0.104C422.316,92.28,422.316,92.28,422.316,92.28z"/>
				<path fill="#FFFFFF" d="M427.599,124.744c0,0-11.539-1.744-18.206-10.36l0.872,0.41c0,0,7.744,8.154,16.616,9.129
					L427.599,124.744z"/>
			</g>
			<path opacity="0.75" fill="#FFFFFF" enable-background="new    " d="M463.858,102.588c0.308-6.616-0.359-12.514-2.001-17.643
				c0.77-0.923,1.539-1.949,2.309-2.923c-0.154-0.308-0.308-0.667-0.462-0.974c-0.718,0.974-1.438,1.897-2.205,2.821
				c-1.487-4.206-3.642-7.847-6.462-10.975c-0.667-0.77-1.385-1.436-2.154-2.103c0.462-0.513,0.976-1.025,1.438-1.539
				c-0.257-0.205-0.515-0.41-0.771-0.564c-0.462,0.513-0.924,1.026-1.385,1.487c-4.719-3.949-10.258-6.257-15.488-7.488
				c0.153-0.205,0.256-0.359,0.359-0.564c-0.257-0.051-0.616-0.051-0.976-0.103c-0.103,0.154-0.204,0.308-0.257,0.41
				c-0.923-0.205-1.847-0.359-2.77-0.513c-1.59,0-3.128,0.154-4.667,0.359c2.103,0.154,4.411,0.461,6.821,0.974
				c-1.386,1.744-2.976,3.385-4.667,4.821c-2.925-1.898-5.539-3.385-7.643-4.462c-0.41,0.154-0.82,0.308-1.282,0.461
				c2.104,1.026,4.925,2.564,8.053,4.667c-2.564,2.051-5.386,3.744-8.309,5.18l-4.411-7.693c-0.257,0.154-0.563,0.308-0.819,0.462
				l4.409,7.692c-2.718,1.333-5.486,2.411-8.052,3.283c-0.205-3.385-0.152-6.206-0.051-8.309c-0.359,0.257-0.667,0.564-0.975,0.821
				c-0.104,2.103-0.104,4.718,0.103,7.795c-2.513,0.82-4.872,1.436-6.821,1.897c0.104-0.821,0.258-1.539,0.359-2.308
				c-0.462,0.77-0.923,1.487-1.334,2.308c0,0.051,0,0.154-0.051,0.205c-0.052,0-0.052,0-0.104,0
				c-0.205,0.359-0.358,0.718-0.513,1.077c0.153-0.051,0.308-0.051,0.513-0.103c-0.614,4.923-0.819,11.026,0.256,17.334
				c-1.436,0.308-2.718,0.564-3.742,0.769c0.051,0.308,0.051,0.616,0.103,0.923c1.077-0.154,2.308-0.41,3.795-0.77
				c0.82,4.206,2.257,8.514,4.616,12.565c0.513,0.923,1.128,1.795,1.691,2.667c-1.486,0.359-2.77,0.667-3.847,0.872
				c0.205,0.308,0.41,0.564,0.666,0.82c1.077-0.256,2.359-0.513,3.796-0.872c2.771,3.795,6.309,7.026,10.515,9.693
				c-0.872,0.256-1.692,0.461-2.411,0.667c0.462,0.205,0.924,0.41,1.334,0.616c0.666-0.206,1.385-0.359,2.152-0.616
				c1.692,1.026,3.539,1.949,5.438,2.77c1.128,0.205,2.257,0.308,3.437,0.41c-2.719-1.025-5.281-2.205-7.591-3.539
				c2.872-0.872,6.154-1.949,9.744-3.333c2.616,2.051,5.591,4,8.924,5.744c0.462-0.103,0.872-0.257,1.282-0.411
				c-3.385-1.744-6.462-3.641-9.18-5.744c3.385-1.333,6.923-2.923,10.513-4.77l4.564,7.949c0.257-0.154,0.563-0.308,0.82-0.462
				l-4.563-7.949c3.229-1.692,6.41-3.59,9.539-5.744c0.256,3.231,0.205,6.616-0.104,10.206c0.358-0.308,0.667-0.615,1.025-0.923
				c0.257-3.488,0.257-6.821,0-9.95c2.257-1.59,4.462-3.333,6.514-5.231c-0.205,2.77-0.616,5.744-1.18,8.77
				c0.461-0.718,0.923-1.437,1.333-2.206c0.41-2.564,0.667-5.077,0.821-7.437c0.923-0.872,1.846-1.795,2.718-2.718
				c0.103-0.564,0.153-1.077,0.257-1.642C465.807,100.639,464.884,101.665,463.858,102.588z M452.318,71.509
				c0.719,0.667,1.437,1.333,2.103,2.051c2.872,3.128,4.977,6.872,6.411,11.18c-2.718,3.231-5.642,6.103-8.667,8.719
				c-2.359-5.488-5.438-10.104-8.668-13.898C446.421,77.202,449.396,74.484,452.318,71.509z M430.01,88.998
				c4.053-2.359,8.309-5.231,12.667-8.719c3.334,3.898,6.411,8.514,8.668,13.898c-4.257,3.59-8.719,6.616-13.13,9.18L430.01,88.998z
				 M437.446,103.768c-4.821,2.718-9.591,4.872-13.95,6.565c-3.385-4.77-5.795-9.745-7.487-14.617
				c0.153-0.051,0.309-0.103,0.41-0.154c3.744-1.436,8.052-3.436,12.771-6.103L437.446,103.768z M436.164,63.509
				c5.229,1.23,10.77,3.436,15.437,7.385c-2.872,2.975-5.795,5.59-8.719,8c-1.077-1.179-2.103-2.308-3.18-3.333
				c-2.82-2.718-5.692-5.026-8.41-6.923C433.087,67.099,434.728,65.406,436.164,63.509z M430.471,69.304
				c3.744,2.616,7.848,5.949,11.592,10.257c-4.258,3.385-8.463,6.257-12.564,8.616l-7.693-13.385
				C424.83,73.253,427.804,71.458,430.471,69.304z M420.983,75.202l7.743,13.437c-4.615,2.615-9.025,4.616-13.025,6.154
				c-1.897-5.846-2.821-11.437-3.18-16.155C415.239,77.715,418.111,76.586,420.983,75.202z M404.521,80.895
				c2-0.462,4.41-1.128,7.025-1.949c0.309,3.795,0.923,8.206,2.154,12.77c0.308,1.128,0.666,2.256,1.024,3.436
				c-3.795,1.436-7.18,2.41-10.001,3.077C403.648,91.921,403.905,85.767,404.521,80.895z M409.444,111.46
				c-2.31-3.949-3.692-8.154-4.515-12.309c2.821-0.667,6.257-1.641,10.104-3.077c1.641,4.718,4,9.745,7.487,14.617
				c-4.258,1.59-8.104,2.769-11.231,3.641C410.624,113.409,410.008,112.435,409.444,111.46z M422.624,124.795
				c-4.308-2.667-7.897-5.847-10.719-9.59c3.18-0.872,7.025-2.052,11.231-3.642c2.563,3.437,5.692,6.77,9.487,9.898
				C428.933,122.846,425.496,123.923,422.624,124.795z M433.65,121c-3.795-3.026-6.976-6.359-9.539-9.847
				c0.872-0.359,1.744-0.667,2.615-1.077c3.437-1.436,7.23-3.282,11.181-5.487l6.616,11.488
				C440.831,118.025,437.138,119.666,433.65,121z M445.396,115.666l-6.668-11.488c4.309-2.513,8.719-5.487,13.026-9.077
				c1.743,4.359,3.025,9.231,3.538,14.616C452.062,111.922,448.729,113.922,445.396,115.666z M462.884,103.562
				c-2.104,1.949-4.358,3.795-6.667,5.437c-0.563-5.437-1.896-10.309-3.642-14.617c2.975-2.564,5.896-5.436,8.616-8.564
				C462.679,90.946,463.294,96.896,462.884,103.562z"/>
		</g>
		<path opacity="0.28" fill="#010101" enable-background="new    " d="M436.574,109.46c0,0,17.386,0.256,24.359-4.462
			c-2.257-2.616-2.257-2.616-2.257-2.616s9.026-13.744,2.616-25.386c-13.283,23.796-15.027,27.13-24.515,32.002"/>
		<g>
			<g>
				<g>
					<path fill="#B4535B" d="M461.242,77.048c-2.82-9.795-6.564-20.104-24.001-12.616l1.076,0.41c0,0,5.642-2.667,11.54-1.077
						c5.896,1.59,6.153,12.309-4.411,25.181l-1.642-2.154c0,0-3.847,18.258-7.23,22.668c4.667,0.256,20.514-6.052,20.514-6.052l-2-2
						C455.088,101.409,464.062,86.792,461.242,77.048z"/>
				</g>
			</g>
			<g opacity="0.34">
				<g>
					<path fill="#010101" d="M453.14,63.149c-3.437-1.897-8.411-1.949-15.897,1.282l1.076,0.41c0,0,5.642-2.667,11.54-1.077
						c5.896,1.59,6.153,12.309-4.411,25.181l1.077,1.692c0,0,5.486-4.923,8.052-11.488C456.473,74.433,458.985,66.432,453.14,63.149
						z"/>
				</g>
			</g>
		</g>
		<path fill="#B4535B" d="M443.806,86.792l-1.437-0.359c0,0-2.667,12.976-6.359,21.694c0.514,1.333,0.514,1.333,0.514,1.333
			S439.856,107.152,443.806,86.792z"/>
		<path opacity="0.34" fill="#010101" enable-background="new    " d="M443.806,86.792l-1.437-0.359c0,0-2.667,12.976-6.359,21.694
			c0.514,1.333,0.514,1.333,0.514,1.333S439.856,107.152,443.806,86.792z"/>
		<path fill="#B4535B" d="M401.033,104.076c0,0-3.487,19.386,24.104,7.18c0,0-14.154,10.462-23.745,2.872
			c-4.82-4.718-2.667-11.642-1.334-15.232"/>
	</g>
</g>
<rect x="45.815" y="443.85" fill="#FFFFFF" stroke="#000000" stroke-miterlimit="10" width="99.285" height="57.589"/>
<text transform="matrix(1 0 0 1 52.3374 468.2617)" font-family="'Optima-Bold'" font-size="16">COMPUTER</text>
<text transform="matrix(1 0 0 1 58.1294 487.4609)" font-family="'Optima-Bold'" font-size="16">BROWSER</text>
<rect x="53.605" y="401.85" fill="#FFFFFF" stroke="#000000" stroke-miterlimit="10" width="144.756" height="41.177"/>
<text transform="matrix(1 0 0 1 99.2134 427.4375)" font-family="'Optima-Bold'" font-size="16">HTML5</text>
<rect x="54.605" y="359.85" fill="#FFFFFF" stroke="#000000" stroke-miterlimit="10" width="144.756" height="41.177"/>
<text transform="matrix(1 0 0 1 108.6616 385.4375)" font-family="'Optima-Bold'" font-size="16">CSS3</text>
<rect x="54.605" y="317.85" fill="#FFFFFF" stroke="#000000" stroke-miterlimit="10" width="144.756" height="41.177"/>
<text transform="matrix(1 0 0 1 81.9897 343.4375)" font-family="'Optima-Bold'" font-size="16">JAVASCRIPT</text>
<text transform="matrix(1 0 0 1 311.269 293.8145)" font-family="'Optima-Bold'" font-size="14">USER</text>
<text transform="matrix(1 0 0 1 306.9849 310.6143)" font-family="'Optima-Bold'" font-size="14">INPUT</text>
<text transform="matrix(1 0 0 1 307.5234 336.0996)" font-family="'Optima-Bold'" font-size="14">clicks</text>
<text transform="matrix(1 0 0 1 307.2646 352.8994)" font-family="'Optima-Bold'" font-size="14">forms</text>
<text transform="matrix(1 0 0 1 313.3545 369.6992)" font-family="'Optima-Bold'" font-size="14">urls</text>
<g>
	
		<line fill="none" stroke="#000000" stroke-width="6" stroke-miterlimit="10" x1="307.809" y1="320.083" x2="365.791" y2="320.083"/>
	<text transform="matrix(1 0 0 1 351.7158 328.2432)" font-family="'Optima-Bold'" font-size="34">&gt;</text>
</g>
<line fill="none" stroke="#000000" stroke-width="6" stroke-miterlimit="10" x1="393.546" y1="281.504" x2="460.908" y2="281.504"/>
<text transform="matrix(1.0716 0 0 1 387.8906 290.2734)" font-family="'Optima-Bold'" font-size="31.7299">&lt;</text>
<text transform="matrix(1 0 0 1 418.2695 254.8145)" font-family="'Optima-Bold'" font-size="14">USER</text>
<text transform="matrix(1 0 0 1 406.5938 271.6143)" font-family="'Optima-Bold'" font-size="14">OUTPUT</text>
<text transform="matrix(1 0 0 1 414.6631 297.0996)" font-family="'Optima-Bold'" font-size="14">page</text>
<text transform="matrix(1 0 0 1 443.4473 297.0996)" font-family="'Optima-Bold'" font-size="14">s</text>
<text transform="matrix(1 0 0 1 408.3008 313.8994)" font-family="'Optima-Bold'" font-size="14">content</text>
<text transform="matrix(1 0 0 1 16.7236 61.7734)" font-family="'Optima-Bold'" font-size="28">OPEN SOURCE SOFTWARE </text>
<text transform="matrix(1 0 0 1 16.7236 95.373)" font-family="'Optima-Bold'" font-size="28">CLIENT-SERVER STACKS</text>
<g>
	<path d="M648.844,585.266c0,1.72-1.317,3.099-3.008,3.099c-1.699,0-3.038-1.379-3.038-3.099c0-1.698,1.339-3.078,3.048-3.078
		C647.525,582.188,648.844,583.566,648.844,585.266z M643.297,585.295c0,1.49,1.1,2.658,2.539,2.658
		c1.409,0.021,2.509-1.168,2.509-2.688c0-1.489-1.1-2.668-2.519-2.668C644.396,582.598,643.297,583.775,643.297,585.295z
		 M647.056,584.127c-0.13-0.07-0.5-0.229-0.97-0.229c-0.938,0-1.398,0.6-1.398,1.397c0,0.779,0.488,1.41,1.408,1.41
		c0.4,0,0.779-0.111,1.011-0.26l0.12,0.379c-0.352,0.229-0.811,0.311-1.229,0.311c-1.16,0-1.829-0.801-1.829-1.809
		c0-1.142,0.899-1.859,1.909-1.859c0.52,0,0.959,0.15,1.1,0.271L647.056,584.127z"/>
	<path d="M649.658,588.664v-0.541l0.688-0.668c1.658-1.58,2.418-2.42,2.418-3.398c0-0.66-0.31-1.27-1.278-1.27
		c-0.59,0-1.079,0.299-1.379,0.549l-0.279-0.619c0.439-0.369,1.089-0.66,1.828-0.66c1.398,0,1.989,0.961,1.989,1.89
		c0,1.2-0.87,2.17-2.239,3.487l-0.51,0.48v0.02h2.908v0.73H649.658L649.658,588.664z"/>
	<path d="M659.115,585.346c0,2.209-0.83,3.429-2.259,3.429c-1.27,0-2.14-1.189-2.159-3.339c0-2.188,0.949-3.379,2.27-3.379
		C658.326,582.057,659.115,583.277,659.115,585.346z M655.588,585.445c0,1.688,0.521,2.647,1.318,2.647
		c0.89,0,1.318-1.049,1.318-2.709c0-1.598-0.398-2.647-1.318-2.647C656.146,582.736,655.588,583.676,655.588,585.445z"/>
	<path d="M661.826,582.986h-0.021l-1.129,0.608l-0.17-0.67l1.418-0.758h0.75v6.496h-0.85L661.826,582.986L661.826,582.986z"/>
	<path d="M666.246,585.246c-0.729-0.34-1.039-0.9-1.039-1.459c0-1.031,0.869-1.73,2.019-1.73c1.26,0,1.899,0.779,1.899,1.601
		c0,0.549-0.28,1.149-1.08,1.52v0.029c0.811,0.32,1.31,0.9,1.31,1.68c0,1.14-0.97,1.89-2.208,1.89c-1.358,0-2.18-0.8-2.18-1.748
		c0-0.82,0.49-1.41,1.289-1.75L666.246,585.246z M668.465,586.975c0-0.778-0.549-1.17-1.43-1.42
		c-0.759,0.222-1.168,0.73-1.168,1.351c-0.031,0.649,0.469,1.229,1.299,1.229C667.955,588.135,668.465,587.645,668.465,586.975z
		 M666.047,583.727c-0.01,0.648,0.489,1,1.238,1.199c0.561-0.188,0.99-0.59,0.99-1.18c0-0.521-0.312-1.06-1.101-1.06
		C666.446,582.688,666.047,583.166,666.047,583.727z"/>
	<path d="M673.977,581.928h0.88v4.508c0,1.789-0.88,2.339-2.039,2.339c-0.33,0-0.72-0.07-0.931-0.16l0.121-0.709
		c0.18,0.069,0.439,0.129,0.738,0.129c0.78,0,1.229-0.351,1.229-1.668L673.977,581.928L673.977,581.928z"/>
	<path d="M676.767,586.404c0.021,1.188,0.771,1.68,1.659,1.68c0.63,0,1.021-0.109,1.34-0.25l0.159,0.629
		c-0.31,0.141-0.85,0.312-1.619,0.312c-1.488,0-2.378-0.99-2.378-2.449s0.859-2.599,2.269-2.599c1.59,0,2,1.38,2,2.269
		c0,0.182-0.011,0.311-0.03,0.41L676.767,586.404L676.767,586.404z M679.346,585.775c0.011-0.552-0.229-1.42-1.22-1.42
		c-0.899,0-1.279,0.811-1.349,1.42H679.346z"/>
	<path d="M681.287,585.336c0-0.57-0.01-1.061-0.041-1.51h0.77l0.041,0.959h0.029c0.221-0.648,0.76-1.06,1.35-1.06
		c0.091,0,0.16,0.011,0.24,0.021v0.83c-0.09-0.021-0.18-0.021-0.301-0.021c-0.619,0-1.059,0.459-1.179,1.119
		c-0.021,0.119-0.03,0.271-0.03,0.41v2.578h-0.879V585.336L681.287,585.336z"/>
	<path d="M684.946,586.404c0.021,1.188,0.77,1.68,1.659,1.68c0.63,0,1.02-0.109,1.34-0.25l0.158,0.629
		c-0.31,0.141-0.85,0.312-1.618,0.312c-1.489,0-2.378-0.99-2.378-2.449s0.858-2.599,2.268-2.599c1.59,0,2,1.38,2,2.269
		c0,0.182-0.01,0.311-0.03,0.41L684.946,586.404L684.946,586.404z M687.525,585.775c0.01-0.552-0.23-1.42-1.221-1.42
		c-0.898,0-1.278,0.811-1.349,1.42H687.525z"/>
	<path d="M689.467,585.135c0-0.51-0.021-0.908-0.041-1.309h0.771l0.041,0.789h0.028c0.271-0.459,0.721-0.89,1.529-0.89
		c0.65,0,1.149,0.4,1.359,0.97h0.02c0.15-0.279,0.352-0.479,0.551-0.629c0.289-0.222,0.601-0.341,1.06-0.341
		c0.649,0,1.6,0.42,1.6,2.099v2.84h-0.858v-2.729c0-0.938-0.351-1.489-1.051-1.489c-0.51,0-0.89,0.371-1.05,0.791
		c-0.039,0.129-0.068,0.278-0.068,0.438v2.988h-0.86v-2.898c0-0.77-0.34-1.319-1.009-1.319c-0.54,0-0.95,0.438-1.089,0.881
		c-0.052,0.119-0.07,0.279-0.07,0.43v2.908h-0.859v-3.529H689.467z"/>
	<path d="M697.996,583.826l1.05,2.858c0.12,0.318,0.24,0.699,0.319,0.988h0.021c0.091-0.289,0.19-0.66,0.311-1.01l0.96-2.838h0.929
		l-1.318,3.446c-0.63,1.66-1.06,2.5-1.658,3.029c-0.44,0.369-0.86,0.521-1.079,0.562l-0.222-0.73c0.222-0.07,0.511-0.209,0.771-0.43
		c0.24-0.189,0.53-0.529,0.74-0.98c0.04-0.09,0.069-0.157,0.069-0.209c0-0.051-0.021-0.119-0.069-0.229l-1.779-4.457H697.996
		L697.996,583.826z"/>
	<path d="M704.537,582.027c0.529-0.091,1.158-0.15,1.848-0.15c1.25,0,2.141,0.301,2.729,0.84c0.609,0.549,0.96,1.33,0.96,2.418
		c0,1.101-0.351,2-0.97,2.619c-0.64,0.629-1.68,0.969-2.988,0.969c-0.629,0-1.139-0.028-1.578-0.078L704.537,582.027
		L704.537,582.027z M705.406,587.984c0.22,0.028,0.539,0.039,0.879,0.039c1.869,0,2.869-1.039,2.869-2.857
		c0.01-1.59-0.892-2.6-2.729-2.6c-0.45,0-0.79,0.041-1.02,0.09L705.406,587.984L705.406,587.984z"/>
	<path d="M715.584,586.205c0,1.789-1.25,2.568-2.408,2.568c-1.3,0-2.318-0.959-2.318-2.488c0-1.609,1.068-2.56,2.397-2.56
		C714.645,583.727,715.584,584.736,715.584,586.205z M711.756,586.256c0,1.06,0.6,1.857,1.459,1.857c0.84,0,1.469-0.789,1.469-1.879
		c0-0.818-0.408-1.849-1.448-1.849C712.205,584.387,711.756,585.346,711.756,586.256z"/>
	<path d="M716.696,585.135c0-0.51-0.011-0.908-0.04-1.309h0.778l0.052,0.799h0.02c0.24-0.449,0.8-0.898,1.601-0.898
		c0.67,0,1.709,0.4,1.709,2.06v2.879h-0.881v-2.789c0-0.779-0.29-1.43-1.118-1.43c-0.569,0-1.021,0.41-1.181,0.899
		c-0.04,0.109-0.06,0.261-0.06,0.41v2.908h-0.88V585.135z"/>
	<path d="M722.127,587.773c0.271,0.159,0.729,0.34,1.168,0.34c0.631,0,0.93-0.31,0.93-0.719c0-0.421-0.25-0.642-0.889-0.88
		c-0.88-0.319-1.289-0.791-1.289-1.368c0-0.781,0.639-1.421,1.668-1.421c0.49,0,0.92,0.13,1.181,0.3l-0.209,0.641
		c-0.19-0.121-0.541-0.291-0.99-0.291c-0.521,0-0.799,0.301-0.799,0.66c0,0.399,0.278,0.58,0.907,0.83
		c0.83,0.311,1.271,0.729,1.271,1.449c0,0.858-0.67,1.459-1.799,1.459c-0.529,0-1.021-0.142-1.359-0.341L722.127,587.773z"/>
	<path d="M730.584,586.205c0,1.789-1.25,2.568-2.408,2.568c-1.3,0-2.318-0.959-2.318-2.488c0-1.609,1.068-2.56,2.397-2.56
		C729.645,583.727,730.584,584.736,730.584,586.205z M726.756,586.256c0,1.06,0.6,1.857,1.459,1.857c0.84,0,1.469-0.789,1.469-1.879
		c0-0.818-0.408-1.849-1.448-1.849C727.205,584.387,726.756,585.346,726.756,586.256z"/>
	<path d="M731.696,585.135c0-0.51-0.011-0.908-0.04-1.309h0.778l0.052,0.799h0.02c0.24-0.449,0.8-0.898,1.601-0.898
		c0.67,0,1.709,0.4,1.709,2.06v2.879h-0.881v-2.789c0-0.779-0.29-1.43-1.118-1.43c-0.569,0-1.021,0.41-1.181,0.899
		c-0.04,0.109-0.06,0.261-0.06,0.41v2.908h-0.88V585.135z"/>
	<path d="M736.676,589.902c0.222-0.601,0.49-1.668,0.602-2.398l0.979-0.1c-0.24,0.85-0.68,1.959-0.959,2.428L736.676,589.902z"/>
	<path d="M741.466,588.664v-6.736h0.96l2.148,3.408c0.489,0.789,0.889,1.498,1.199,2.188l0.028-0.011
		c-0.08-0.897-0.1-1.719-0.1-2.768v-2.818h0.82v6.736h-0.881l-2.14-3.418c-0.469-0.75-0.919-1.521-1.248-2.25l-0.031,0.01
		c0.052,0.85,0.062,1.66,0.062,2.779v2.879H741.466z"/>
	<path d="M749.475,588.664v-2.859l-2.139-3.877h1l0.949,1.859c0.25,0.51,0.46,0.918,0.67,1.389h0.02
		c0.181-0.438,0.42-0.879,0.681-1.389l0.97-1.859h0.979l-2.249,3.867v2.869H749.475z"/>
	<path d="M757.723,588.453c-0.31,0.16-0.959,0.32-1.778,0.32c-1.898,0-3.317-1.199-3.317-3.418c0-2.119,1.429-3.539,3.52-3.539
		c0.828,0,1.368,0.182,1.599,0.301l-0.22,0.709c-0.32-0.16-0.789-0.279-1.351-0.279c-1.579,0-2.629,1.01-2.629,2.779
		c0,1.658,0.95,2.707,2.579,2.707c0.54,0,1.079-0.109,1.429-0.279L757.723,588.453z"/>
	<path d="M762.545,582.986h-0.02l-1.131,0.608l-0.17-0.67l1.419-0.758h0.75v6.496h-0.85L762.545,582.986L762.545,582.986z"/>
	<path d="M770.094,585.346c0,2.209-0.83,3.429-2.26,3.429c-1.269,0-2.139-1.189-2.158-3.339c0-2.188,0.949-3.379,2.27-3.379
		C769.304,582.057,770.094,583.277,770.094,585.346z M766.565,585.445c0,1.688,0.52,2.647,1.318,2.647
		c0.89,0,1.318-1.049,1.318-2.709c0-1.598-0.398-2.647-1.318-2.647C767.125,582.736,766.565,583.676,766.565,585.445z"/>
	<path d="M775.223,585.346c0,2.209-0.828,3.429-2.258,3.429c-1.27,0-2.139-1.189-2.159-3.339c0-2.188,0.949-3.379,2.27-3.379
		C774.434,582.057,775.223,583.277,775.223,585.346z M771.695,585.445c0,1.688,0.52,2.647,1.317,2.647
		c0.892,0,1.32-1.049,1.32-2.709c0-1.598-0.4-2.647-1.32-2.647C772.255,582.736,771.695,583.676,771.695,585.445z"/>
	<path d="M776.025,588.664v-0.541l0.688-0.668c1.659-1.58,2.419-2.42,2.419-3.398c0-0.66-0.31-1.27-1.278-1.27
		c-0.591,0-1.079,0.299-1.381,0.549l-0.278-0.619c0.438-0.369,1.09-0.66,1.829-0.66c1.398,0,1.988,0.961,1.988,1.89
		c0,1.2-0.87,2.17-2.238,3.487l-0.511,0.48v0.02h2.909v0.73H776.025L776.025,588.664z"/>
	<path d="M785.373,582.168v0.578l-2.828,5.918h-0.91l2.818-5.748v-0.02h-3.178v-0.729L785.373,582.168L785.373,582.168z"/>
	<path d="M697.855,602.082c0.409-0.029,0.75-0.139,0.96-0.379c0.239-0.271,0.34-0.65,0.34-1.81v-4.067h0.88v4.408
		c0,0.938-0.15,1.549-0.58,1.987c-0.39,0.392-1.029,0.549-1.499,0.549L697.855,602.082z M700.135,594.467
		c0,0.289-0.199,0.539-0.56,0.539c-0.319,0-0.53-0.25-0.53-0.539c0-0.299,0.221-0.549,0.551-0.549
		C699.925,593.918,700.135,594.168,700.135,594.467z"/>
	<path d="M700.286,602.082c0.41-0.029,0.75-0.139,0.96-0.379c0.24-0.271,0.34-0.65,0.34-1.81v-4.067h0.879v4.408
		c0,0.938-0.148,1.549-0.58,1.987c-0.389,0.392-1.028,0.549-1.498,0.549L700.286,602.082z M702.564,594.467
		c0,0.289-0.199,0.539-0.56,0.539c-0.32,0-0.53-0.25-0.53-0.539c0-0.299,0.221-0.549,0.551-0.549S702.564,594.168,702.564,594.467z"
		/>
	<path d="M708.073,593.568v5.846c0,0.43,0.021,0.92,0.04,1.25h-0.779l-0.041-0.84h-0.029c-0.26,0.539-0.84,0.949-1.629,0.949
		c-1.17,0-2.079-0.99-2.079-2.459c-0.011-1.609,0.999-2.589,2.169-2.589c0.75,0,1.239,0.351,1.459,0.729h0.021v-2.887H708.073
		L708.073,593.568z M707.203,597.795c0-0.109-0.01-0.26-0.039-0.369c-0.131-0.551-0.61-1.01-1.271-1.01
		c-0.909,0-1.448,0.799-1.448,1.859c0,0.979,0.489,1.789,1.43,1.789c0.589,0,1.129-0.4,1.289-1.052
		c0.029-0.119,0.039-0.237,0.039-0.379V597.795z"/>
	<path d="M713.924,598.205c0,1.789-1.25,2.568-2.409,2.568c-1.3,0-2.318-0.959-2.318-2.488c0-1.609,1.069-2.56,2.397-2.56
		C712.983,595.727,713.924,596.736,713.924,598.205z M710.096,598.256c0,1.06,0.601,1.857,1.459,1.857c0.84,0,1.47-0.789,1.47-1.879
		c0-0.818-0.41-1.849-1.449-1.849C710.545,596.387,710.096,597.346,710.096,598.256z"/>
	<path d="M715.035,597.135c0-0.51-0.01-0.908-0.04-1.309h0.78l0.049,0.799h0.021c0.239-0.449,0.8-0.898,1.6-0.898
		c0.67,0,1.709,0.4,1.709,2.06v2.879h-0.879v-2.789c0-0.779-0.289-1.43-1.119-1.43c-0.57,0-1.021,0.41-1.181,0.899
		c-0.04,0.109-0.061,0.261-0.061,0.41v2.908h-0.879V597.135z"/>
	<path d="M720.465,599.773c0.271,0.159,0.73,0.34,1.17,0.34c0.629,0,0.931-0.31,0.931-0.719c0-0.421-0.25-0.642-0.892-0.88
		c-0.879-0.319-1.289-0.791-1.289-1.368c0-0.781,0.642-1.421,1.67-1.421c0.489,0,0.919,0.13,1.18,0.3l-0.21,0.641
		c-0.189-0.121-0.539-0.291-0.989-0.291c-0.521,0-0.8,0.301-0.8,0.66c0,0.399,0.279,0.58,0.909,0.83
		c0.829,0.311,1.271,0.729,1.271,1.449c0,0.858-0.67,1.459-1.799,1.459c-0.53,0-1.021-0.142-1.359-0.341L720.465,599.773z"/>
	<path d="M728.923,598.205c0,1.789-1.249,2.568-2.409,2.568c-1.299,0-2.317-0.959-2.317-2.488c0-1.609,1.068-2.56,2.397-2.56
		C727.982,595.727,728.923,596.736,728.923,598.205z M725.095,598.256c0,1.06,0.601,1.857,1.459,1.857c0.84,0,1.47-0.789,1.47-1.879
		c0-0.818-0.409-1.849-1.448-1.849C725.545,596.387,725.095,597.346,725.095,598.256z"/>
	<path d="M730.035,597.135c0-0.51-0.01-0.908-0.04-1.309h0.78l0.049,0.799h0.021c0.239-0.449,0.8-0.898,1.6-0.898
		c0.67,0,1.709,0.4,1.709,2.06v2.879h-0.879v-2.789c0-0.779-0.289-1.43-1.119-1.43c-0.57,0-1.021,0.41-1.181,0.899
		c-0.04,0.109-0.061,0.261-0.061,0.41v2.908h-0.879V597.135z"/>
	<path d="M740.093,601.312c-0.55,0.291-1.108,0.399-1.778,0.399c-1.641,0-3.028-1.199-3.028-3.129c0-2.059,1.43-3.848,3.647-3.848
		c1.738,0,2.898,1.229,2.898,2.897c0,1.5-0.84,2.379-1.77,2.379c-0.4,0-0.771-0.26-0.75-0.879h-0.029
		c-0.351,0.59-0.811,0.879-1.409,0.879c-0.58,0-1.079-0.469-1.079-1.26c0-1.238,0.979-2.367,2.368-2.367
		c0.42,0,0.81,0.09,1.069,0.209l-0.341,1.81c-0.149,0.76-0.028,1.108,0.301,1.119c0.51,0.021,1.078-0.669,1.078-1.818
		c0-1.459-0.868-2.508-2.418-2.508c-1.629,0-2.998,1.299-2.998,3.328c0,1.668,1.09,2.707,2.568,2.707c0.569,0,1.1-0.119,1.509-0.351
		L740.093,601.312z M739.543,596.996c-0.1-0.041-0.27-0.08-0.5-0.08c-0.879,0-1.589,0.83-1.589,1.799c0,0.439,0.22,0.76,0.659,0.76
		c0.58,0,1.108-0.739,1.22-1.358L739.543,596.996z"/>
	<path d="M747.093,599.953c0,1.121-0.229,1.789-0.688,2.219c-0.479,0.43-1.159,0.58-1.77,0.58c-0.58,0-1.22-0.139-1.608-0.398
		l0.22-0.68c0.318,0.209,0.818,0.389,1.419,0.389c0.9,0,1.559-0.469,1.559-1.698v-0.529h-0.02c-0.26,0.449-0.789,0.812-1.539,0.812
		c-1.199,0-2.06-1.021-2.06-2.359c0-1.639,1.069-2.56,2.188-2.56c0.84,0,1.29,0.431,1.509,0.83h0.021l0.029-0.729h0.779
		c-0.029,0.34-0.04,0.74-0.04,1.32V599.953L747.093,599.953z M746.213,597.734c0-0.148-0.01-0.279-0.049-0.39
		c-0.16-0.52-0.58-0.938-1.23-0.938c-0.839,0-1.438,0.709-1.438,1.828c0,0.948,0.489,1.739,1.429,1.739
		c0.55,0,1.039-0.34,1.22-0.899c0.051-0.15,0.069-0.32,0.069-0.469L746.213,597.734L746.213,597.734z"/>
	<path d="M748.484,597.135c0-0.51-0.021-0.908-0.039-1.309h0.77l0.039,0.789h0.031c0.27-0.459,0.719-0.89,1.528-0.89
		c0.648,0,1.148,0.4,1.358,0.97h0.021c0.148-0.279,0.35-0.479,0.549-0.629c0.291-0.222,0.6-0.341,1.061-0.341
		c0.648,0,1.6,0.42,1.6,2.099v2.84h-0.86v-2.729c0-0.938-0.35-1.489-1.049-1.489c-0.51,0-0.89,0.371-1.049,0.791
		c-0.041,0.129-0.07,0.278-0.07,0.438v2.988h-0.859v-2.898c0-0.77-0.34-1.319-1.01-1.319c-0.539,0-0.949,0.438-1.09,0.881
		c-0.05,0.119-0.069,0.279-0.069,0.43v2.908h-0.859v-3.529H748.484z"/>
	<path d="M760.223,599.504c0,0.42,0.021,0.83,0.07,1.16h-0.789l-0.07-0.609h-0.029c-0.271,0.379-0.79,0.72-1.479,0.72
		c-0.979,0-1.479-0.689-1.479-1.39c0-1.17,1.039-1.809,2.907-1.799v-0.102c0-0.39-0.108-1.119-1.1-1.109
		c-0.459,0-0.93,0.131-1.27,0.361l-0.199-0.59c0.398-0.25,0.989-0.421,1.599-0.421c1.479,0,1.839,1.011,1.839,1.97V599.504z
		 M759.373,598.195c-0.959-0.021-2.049,0.149-2.049,1.09c0,0.578,0.38,0.838,0.819,0.838c0.64,0,1.05-0.398,1.189-0.809
		c0.029-0.101,0.039-0.199,0.039-0.279L759.373,598.195L759.373,598.195z"/>
	<path d="M762.625,594.467c0,0.301-0.211,0.539-0.561,0.539c-0.319,0-0.529-0.238-0.529-0.539c0-0.299,0.22-0.549,0.55-0.549
		C762.404,593.918,762.625,594.156,762.625,594.467z M761.645,600.664v-4.838h0.881v4.838H761.645z"/>
	<path d="M763.984,593.568h0.88v7.096h-0.88V593.568z"/>
	<path d="M766.035,600.145c0-0.36,0.25-0.631,0.6-0.631c0.351,0,0.59,0.261,0.59,0.631c0,0.359-0.239,0.63-0.608,0.63
		C766.275,600.773,766.035,600.504,766.035,600.145z"/>
	<path d="M771.763,600.494c-0.229,0.109-0.738,0.279-1.39,0.279c-1.459,0-2.408-0.99-2.408-2.47c0-1.487,1.021-2.578,2.6-2.578
		c0.52,0,0.979,0.13,1.22,0.261l-0.201,0.67c-0.209-0.111-0.539-0.23-1.019-0.23c-1.109,0-1.709,0.83-1.709,1.83
		c0,1.119,0.72,1.81,1.679,1.81c0.5,0,0.83-0.121,1.08-0.23L771.763,600.494z"/>
	<path d="M777.113,598.205c0,1.789-1.25,2.568-2.409,2.568c-1.3,0-2.319-0.959-2.319-2.488c0-1.609,1.07-2.56,2.398-2.56
		C776.173,595.727,777.113,596.736,777.113,598.205z M773.285,598.256c0,1.06,0.6,1.857,1.459,1.857c0.84,0,1.469-0.789,1.469-1.879
		c0-0.818-0.41-1.849-1.449-1.849C773.734,596.387,773.285,597.346,773.285,598.256z"/>
	<path d="M778.225,597.135c0-0.51-0.02-0.908-0.04-1.309h0.771l0.04,0.789h0.03c0.27-0.459,0.72-0.89,1.527-0.89
		c0.65,0,1.15,0.4,1.359,0.97h0.021c0.149-0.279,0.352-0.479,0.551-0.629c0.289-0.222,0.6-0.341,1.06-0.341
		c0.649,0,1.599,0.42,1.599,2.099v2.84h-0.858v-2.729c0-0.938-0.351-1.489-1.049-1.489c-0.511,0-0.892,0.371-1.051,0.791
		c-0.039,0.129-0.068,0.278-0.068,0.438v2.988h-0.86v-2.898c0-0.77-0.34-1.319-1.009-1.319c-0.54,0-0.95,0.438-1.09,0.881
		c-0.051,0.119-0.07,0.279-0.07,0.43v2.908h-0.859v-3.529H778.225z"/>
</g>
<text transform="matrix(1 0 0 1 655.5 604.5)" font-family="'MyriadPro-Regular'" font-size="22">µ</text>
</svg>
