<?xml version="1.0" ?><svg id="Layer_1" style="enable-background:new 0 0 512 512;" version="1.1" viewBox="0 0 512 512" xml:space="preserve" xmlns="http://www.w3.org/2000/svg" xmlns:xlink="http://www.w3.org/1999/xlink"><style type="text/css">
	.st0{fill:#010101;}
</style><path class="st0" d="M256,75.9c-99.4,0-180.1,80.6-180.1,180c0,99.5,80.6,180.1,180.1,180.1  c99.4,0,180.1-80.6,180.1-180.1C436.1,156.6,355.4,75.9,256,75.9z M250.8,157.7c6.8-14.5,18.1-23.9,33-29.3c3-1,6.1-1.6,9.2-2.1  c1.3-0.3,1.6,0.6,1.7,1.6c0.1,1.4,0.3,3,0.2,3.7c-0.1,11.3-3.6,20.7-9.3,29.4c-6.5,9.7-15.4,16.5-26.6,20.2  c-3.4,1.1-6.9,1.7-10.5,1.7c-1.4,0-1.9-0.5-2.1-2C245.5,172.6,247.4,164.9,250.8,157.7z M350.3,300.6c-7.1,16.5-16.6,31.6-28.3,45.2  c-4,4.6-8.6,8.7-14.1,11.8c-8.5,4.8-17.3,4.8-26.2,1c-3.7-1.5-7.2-3.4-11-4.7c-12.3-3.9-24.4-3.4-36.2,1.5c-3.1,1.3-6.2,2.7-9.3,3.9  c-11.5,4.3-21.8,1.6-31.2-5.8c-5.7-4.5-10.4-10-14.8-15.9c-10-13.4-17.8-28-23.1-43.9c-3.8-11.3-6.2-23-6.8-34.9  c-0.7-13.1,0.3-26.1,5.6-38.3c8.3-19,22.3-32,42.4-37.8c3.9-1.1,8-1.6,11.8-1.5c8.1-0.1,15.4,2,22.6,4.5c4.4,1.5,8.7,3.2,13.3,4.3  c8.1,2,16,1.3,23.7-1.7c5.5-2.1,11-4.3,16.8-5.6c17.4-4,33.1-0.1,47.1,10.7c3.9,2.9,7.4,6.2,10.4,10c1.3,1.4,1.2,1.7-0.4,2.8  c-14.5,8.9-23.1,21.8-24.5,38.8c-1.4,15.9,3.4,29.7,14.5,41.3c4.8,5,10.4,8.8,16.8,11.5C351,298.6,351.1,298.9,350.3,300.6z" id="XMLID_968_"/></svg>