<?xml version="1.0" encoding="UTF-8" standalone="no"?>
<svg width="166px" height="170px" viewBox="0 0 166 170" version="1.1" xmlns="http://www.w3.org/2000/svg" xmlns:xlink="http://www.w3.org/1999/xlink" xmlns:sketch="http://www.bohemiancoding.com/sketch/ns">
    <!-- Generator: Sketch 3.4.4 (17249) - http://www.bohemiancoding.com/sketch -->
    <title>Fill 2 Copy</title>
    <desc>Created with Sketch.</desc>
    <defs></defs>
    <g id="Page-1" stroke="none" stroke-width="1" fill="none" fill-rule="evenodd" sketch:type="MSPage">
        <g id="ATHENA-1200px_Home_Scroll_&amp;_Highlight" sketch:type="MSArtboardGroup" transform="translate(-557.000000, -7352.000000)" fill="#2F65B0">
            <path d="M574.140958,7422.94557 L574.140958,7422.94557 L574.140958,7472.4214 C574.140958,7473.82171 573.21377,7474.29171 572.286583,7474.29171 C571.364199,7474.29171 570.437012,7473.82171 570.437012,7472.4214 L570.437012,7422.94557 C570.437012,7422.01526 571.364199,7421.08495 572.286583,7421.08495 C573.21377,7421.08495 574.140958,7422.01526 574.140958,7422.94557 M587.573166,7421.08495 L587.573166,7421.08495 C586.650782,7421.08495 585.723595,7422.01526 585.723595,7422.94557 L585.723595,7493.89114 C585.723595,7495.29144 586.650782,7495.76144 587.573166,7495.76144 C588.500353,7495.76144 589.427541,7495.29144 589.427541,7493.89114 L589.427541,7422.94557 C589.427541,7422.01526 588.500353,7421.08495 587.573166,7421.08495 M618.146331,7450.02137 L618.146331,7450.02137 C617.219144,7450.02137 616.296761,7450.48652 616.296761,7451.88682 L616.296761,7515.83087 C616.296761,7516.76602 617.219144,7517.69632 618.146331,7517.69632 C619.073519,7517.69632 620.00551,7516.76602 620.00551,7515.83087 L620.00551,7451.88682 C620.00551,7450.48652 619.073519,7450.02137 618.146331,7450.02137 M633.432914,7450.02137 L633.432914,7450.02137 C632.505727,7450.02137 631.583343,7450.48652 631.583343,7451.88682 L631.583343,7519.56663 C631.583343,7520.49694 632.505727,7521.43209 633.432914,7521.43209 C634.360102,7521.43209 635.287289,7520.49694 635.287289,7519.56663 L635.287289,7451.88682 C635.287289,7450.48652 634.360102,7450.02137 633.432914,7450.02137 M664.010884,7478.49262 L664.010884,7478.49262 C663.083697,7478.49262 662.156509,7479.42293 662.156509,7480.35808 L662.156509,7517.23117 C662.156509,7518.16148 663.083697,7519.09663 664.010884,7519.09663 C664.933267,7519.09663 665.860455,7518.16148 665.860455,7517.23117 L665.860455,7480.35808 C665.860455,7479.42293 664.933267,7478.49262 664.010884,7478.49262 M679.297467,7478.49262 L679.297467,7478.49262 C678.365475,7478.49262 677.438288,7479.42293 677.438288,7480.35808 L677.438288,7512.0951 C677.438288,7513.03026 678.365475,7513.96541 679.297467,7513.96541 C680.21985,7513.96541 681.147038,7513.03026 681.147038,7512.0951 L681.147038,7480.35808 C681.147038,7479.42293 680.21985,7478.49262 679.297467,7478.49262 M695.511237,7491.56052 L695.511237,7491.56052 L695.511237,7503.22812 C695.511237,7504.16327 695.040437,7505.09358 693.652058,7505.09358 C692.724871,7505.09358 691.802487,7504.16327 691.802487,7503.22812 L691.802487,7477.55747 C689.948112,7477.09232 688.098542,7475.69201 686.239363,7474.29171 C684.389792,7472.4214 683.001413,7469.62079 683.001413,7466.82018 L650.573872,7466.82018 L650.107876,7467.29018 L650.107876,7519.56663 C650.107876,7520.49694 649.185493,7521.43209 648.258305,7521.43209 C647.331118,7521.43209 646.408735,7520.49694 646.408735,7519.56663 L646.408735,7448.15106 C644.549556,7447.68591 642.233989,7446.75076 640.84561,7444.8853 C638.996039,7443.01984 637.60766,7440.21923 637.60766,7437.41862 L605.180119,7437.41862 L604.714123,7437.88377 L604.714123,7510.22965 C604.714123,7511.62995 603.786936,7512.0951 602.859749,7512.0951 C601.937365,7512.0951 601.010178,7511.62995 601.010178,7510.22965 L601.010178,7419.21465 C599.155803,7418.7495 596.840236,7417.34435 595.451857,7415.94889 C593.131486,7414.07858 592.209103,7411.27797 591.743107,7408.47736 L558.854375,7408.47736 C557.465996,7408.47736 557,7407.54706 557,7406.61675 C557,7405.2116 557.465996,7404.28129 558.854375,7404.28129 L592.670295,7404.28129 C593.131486,7402.87614 594.058674,7401.01068 595.451857,7400.07553 C599.616994,7396.34461 604.714123,7396.80977 607.956878,7399.14522 C610.73844,7401.01068 611.660823,7404.74645 609.811252,7408.01221 C609.345257,7409.41736 607.956878,7410.34767 606.568498,7410.81282 C604.252932,7411.74313 601.010178,7410.81282 601.471369,7408.47736 C601.471369,7407.54706 602.398557,7406.14675 603.325744,7406.61675 C604.252932,7406.61675 604.714123,7406.61675 605.180119,7407.54706 C607.02969,7406.61675 607.956878,7403.81614 605.641311,7401.94583 C603.786936,7400.54553 600.544182,7400.54553 597.767424,7402.87614 C596.37424,7403.81614 595.451857,7405.67675 595.451857,7407.54706 C595.451857,7409.88251 596.37424,7411.74313 597.767424,7413.14828 C601.937365,7416.87919 608.418069,7416.87919 612.126819,7413.14828 C617.219144,7408.47736 617.219144,7400.54553 612.126819,7395.41431 C609.811252,7392.6137 605.641311,7391.20855 599.616994,7391.20855 L558.854375,7391.20855 C557.465996,7391.20855 557,7390.27824 557,7389.34793 C557,7387.94278 557.465996,7387.01248 558.854375,7387.01248 L577.849708,7387.01248 C591.743107,7366.00305 615.830765,7352 643.161176,7352 C687.171354,7352 722.375653,7387.47763 722.375653,7431.8174 C722.375653,7455.62259 712.186199,7476.62232 695.511237,7491.56052 M657.986568,7442.54984 L657.986568,7442.54984 C662.617701,7437.41862 662.617701,7429.48679 657.520572,7424.35072 C655.209809,7421.55011 651.035064,7420.14496 645.015551,7420.14496 L604.714123,7420.14496 L604.714123,7433.2177 L605.180119,7433.68286 L638.068852,7433.68286 C638.530043,7431.8174 639.457231,7430.41709 640.84561,7429.01679 C645.015551,7425.28103 650.573872,7425.74618 653.355434,7428.08164 C656.132193,7430.41709 657.05938,7433.68286 655.209809,7437.41862 C654.743814,7438.35377 653.355434,7439.74923 651.962251,7440.21923 C649.646685,7440.68438 646.869926,7440.21923 646.869926,7437.88377 C646.869926,7436.48347 647.797114,7435.55316 649.185493,7435.55316 C649.646685,7435.55316 650.573872,7436.01831 650.573872,7436.48347 C652.889439,7436.01831 653.355434,7432.75255 651.035064,7431.3474 C649.185493,7429.48679 645.942739,7429.48679 643.161176,7431.8174 C641.772797,7433.2177 641.306802,7434.61801 641.306802,7436.94862 C640.84561,7438.81892 641.772797,7440.68438 643.622368,7442.54984 C647.331118,7446.2856 653.82143,7446.2856 657.986568,7442.54984 M703.38032,7471.4911 L703.38032,7471.4911 C708.011454,7466.82018 708.011454,7458.88835 703.38032,7453.75228 C700.603562,7450.95167 696.433621,7449.55137 690.8753,7449.55137 L650.107876,7449.55137 L650.107876,7462.15411 C650.107876,7462.61927 650.573872,7462.61927 650.573872,7462.61927 L683.462604,7462.61927 C683.923796,7461.22381 684.850983,7459.3535 686.239363,7458.4232 C690.409304,7454.68743 695.972429,7455.15259 698.749187,7457.48805 C701.525945,7459.81866 702.453133,7463.08927 700.603562,7466.35503 C700.137566,7467.75534 698.749187,7468.69049 697.360808,7469.15564 C695.511237,7470.09079 692.263679,7469.15564 692.263679,7466.82018 C692.263679,7465.88988 693.190866,7464.95472 694.579246,7464.95472 C695.040437,7464.95472 695.972429,7464.95472 696.433621,7465.88988 C698.287995,7464.95472 698.749187,7462.15411 696.433621,7460.28866 C695.040437,7458.88835 691.336492,7458.88835 689.020925,7461.22381 C687.632546,7462.15411 686.700554,7464.01957 686.700554,7465.88988 C686.700554,7468.22049 687.171354,7470.09079 689.020925,7471.4911 C692.724871,7475.69201 699.210379,7475.69201 703.38032,7471.4911" id="Fill-2-Copy" sketch:type="MSShapeGroup"></path>
        </g>
    </g>
</svg>