<svg xmlns="http://www.w3.org/2000/svg" viewBox="0 0 44 44"><defs><style>.cls-1{fill:#dc1431}.cls-2{fill:#fff;fill-rule:evenodd}</style></defs><title>Mobile_L1_App</title><g id="Layer_2" data-name="Layer 2"><g id="Mobile_L1_App"><rect class="cls-1" width="44" height="44" rx="7.99" ry="7.99"/><path class="cls-2" d="M30.25 16.25a67.2 67.2 0 0 0-9-3.12c-1 .2-1.95.42-2.91.67a61.64 61.64 0 0 1 8.86 3.3q1.5-.46 3-.85m7.48 2.46a78.7 78.7 0 0 0-20.27 10.15q2.31 1.4 4.51 3a82.46 82.46 0 0 1 19.22-11.22q-1.71-1-3.46-1.93m-19.59-.96c1.12.43 2.22.9 3.32 1.4a73.78 73.78 0 0 0-10 4.91c-1.08-.56-2.18-1.09-3.3-1.58a69.47 69.47 0 0 1 10-4.73m-4.16-1.44a57.84 57.84 0 0 0-10.37 4.38c1 .37 2.09.77 3.12 1.19a59.61 59.61 0 0 1 10.07-4.63q-1.39-.51-2.81-.94m11.66 1.3a61.77 61.77 0 0 0-8.81-3.39c-1.06.3-2.12.63-3.17 1a61.52 61.52 0 0 1 9.07 3.43c1-.36 1.93-.71 2.91-1M11.58 25.7q2.16 1 4.25 2.24a74.23 74.23 0 0 1 20.7-9.81q-1.9-.94-3.86-1.76a71.69 71.69 0 0 0-21.09 9.33z"/></g></g></svg>