<?xml version="1.0" encoding="iso-8859-1"?>
<!-- Generator: Adobe Illustrator 18.0.0, SVG Export Plug-In . SVG Version: 6.00 Build 0)  -->
<!DOCTYPE svg PUBLIC "-//W3C//DTD SVG 1.1//EN" "http://www.w3.org/Graphics/SVG/1.1/DTD/svg11.dtd">
<svg version="1.1" id="Capa_1" xmlns="http://www.w3.org/2000/svg" xmlns:xlink="http://www.w3.org/1999/xlink" x="0px" y="0px"
	 viewBox="0 0 460.067 460.067" style="enable-background:new 0 0 460.067 460.067;" xml:space="preserve">
<g id="XMLID_107_">
	<circle id="XMLID_108_" cx="248.35" cy="37.504" r="37.504"/>
	<path id="XMLID_230_" d="M339.931,200.895l-0.336-66.922c-0.118-23.495-19.329-42.609-42.824-42.609c-15.649,0-68.036,0-84.691,0
		c-4.909,0-4.41,0.299-37.427,14.44l14.966-32.094l3.128,6.152c2.679,5.268,9.12,7.362,14.383,4.686
		c5.266-2.678,7.364-9.118,4.686-14.384l-29.824-58.647c-2.678-5.266-9.117-7.362-14.383-4.686
		c-5.266,2.678-7.364,9.118-4.686,14.384l7.069,13.901c-2.272,1.721-4.174,3.999-5.463,6.762l-42.698,91.565
		c-3.171,6.799-1.817,14.851,3.404,20.239c5.224,5.391,13.231,6.996,20.122,4.043l54.622-23.397l0.009,304.024
		c0,11.993,9.722,21.715,21.715,21.715c11.993,0,21.715-9.722,21.715-21.715V269.47c0-2.59,2.099-4.688,4.688-4.688
		s4.688,2.099,4.688,4.688v168.882c0,11.993,9.722,21.715,21.715,21.715c11.993,0,21.715-9.722,21.715-21.715l-0.385-304.202
		c-0.003-2.089,1.689-3.785,3.778-3.788c2.089-0.003,3.785,1.689,3.788,3.779v0.013l0.335,66.831v63.796
		c0,9.994,8.102,18.095,18.096,18.095c9.994,0,18.096-8.102,18.096-18.095L339.931,200.895z"/>
</g>
<g>
</g>
<g>
</g>
<g>
</g>
<g>
</g>
<g>
</g>
<g>
</g>
<g>
</g>
<g>
</g>
<g>
</g>
<g>
</g>
<g>
</g>
<g>
</g>
<g>
</g>
<g>
</g>
<g>
</g>
</svg>
