<?xml version="1.0" encoding="utf-8"?>
<!-- Generator: Adobe Illustrator 15.1.0, SVG Export Plug-In . SVG Version: 6.00 Build 0)  -->
<!DOCTYPE svg PUBLIC "-//W3C//DTD SVG 1.1//EN" "http://www.w3.org/Graphics/SVG/1.1/DTD/svg11.dtd">
<svg version="1.1" id="Layer_1" xmlns="http://www.w3.org/2000/svg" xmlns:xlink="http://www.w3.org/1999/xlink" x="0px" y="0px"
	 width="792px" height="612px" viewBox="0 0 792 612" enable-background="new 0 0 792 612" xml:space="preserve">
<rect x="414.517" y="380.954" fill="#FFFFFF" stroke="#010101" width="94.957" height="41.176"/>
<circle fill="#FFFFFF" stroke="#010101" stroke-width="2" cx="261.374" cy="268.374" r="46.639"/>
<circle fill="#FFFFFF" stroke="#010101" stroke-width="2" cx="397.373" cy="271.374" r="46.639"/>
<circle fill="#FFFFFF" stroke="#010101" stroke-width="2" cx="537.374" cy="271.374" r="46.639"/>
<g>
	<g>
		<line fill="none" stroke="#010101" stroke-width="2" x1="182.971" y1="370.979" x2="228.855" y2="317.923"/>
		<g>
			<path fill="#010101" d="M236.751,308.794c-2.122,5.674-4.011,13.356-3.988,19.152l-4.944-8.824l-9.443-3.619
				C224.114,314.689,231.443,311.712,236.751,308.794z"/>
		</g>
	</g>
</g>
<rect x="278.517" y="377.954" fill="#FFFFFF" stroke="#010101" width="94.958" height="41.176"/>
<g>
	<g>
		<line fill="none" stroke="#010101" stroke-width="2" x1="344.559" y1="385.42" x2="382.613" y2="326.493"/>
		<g>
			<path fill="#010101" d="M389.162,316.354c-1.311,5.914-2.114,13.784-1.284,19.521l-6.123-8.05l-9.854-2.271
				C377.468,323.952,384.312,319.982,389.162,316.354z"/>
		</g>
	</g>
</g>
<g>
	<g>
		<line fill="none" stroke="#010101" stroke-width="2" x1="265.828" y1="315.012" x2="306.752" y2="370.088"/>
		<g>
			<path fill="#010101" d="M313.953,379.776c-5.079-3.304-12.168-6.813-17.831-8.05l9.687-2.911l5.581-8.434
				C310.938,366.161,312.254,373.962,313.953,379.776z"/>
		</g>
	</g>
</g>
<g>
	<g>
		<line fill="none" stroke="#010101" stroke-width="2" x1="474.97" y1="380.979" x2="520.855" y2="327.923"/>
		<g>
			<path fill="#010101" d="M528.751,318.794c-2.121,5.674-4.012,13.355-3.988,19.152l-4.942-8.824l-9.442-3.619
				C516.114,324.69,523.443,321.712,528.751,318.794z"/>
		</g>
	</g>
</g>
<g>
	<g>
		<line fill="none" stroke="#010101" stroke-width="2" x1="402.827" y1="318.012" x2="443.753" y2="373.088"/>
		<g>
			<path fill="#010101" d="M450.952,382.776c-5.079-3.304-12.168-6.813-17.83-8.05l9.687-2.911l5.582-8.434
				C447.938,369.161,449.255,376.962,450.952,382.776z"/>
		</g>
	</g>
</g>
<rect x="575.517" y="371.954" fill="#FFFFFF" stroke="#010101" width="94.957" height="41.176"/>
<g>
	<g>
		<line fill="none" stroke="#010101" stroke-width="2" x1="563.827" y1="309.013" x2="604.753" y2="364.088"/>
		<g>
			<path fill="#010101" d="M611.952,373.776c-5.078-3.304-12.168-6.813-17.83-8.05l9.687-2.911l5.582-8.434
				C608.938,360.161,610.255,367.962,611.952,373.776z"/>
		</g>
	</g>
</g>
<g>
	<path d="M32.729,35.261l-3.42-13.483h1.84l1.6,6.821c0.4,1.681,0.76,3.361,1,4.661h0.04c0.22-1.34,0.64-2.94,1.1-4.681l1.8-6.801
		h1.82l1.641,6.841c0.38,1.601,0.74,3.201,0.94,4.621h0.04c0.28-1.48,0.66-2.98,1.08-4.661l1.781-6.801h1.78L41.95,35.261h-1.82
		l-1.701-7.021c-0.42-1.72-0.7-3.041-0.88-4.401h-0.04c-0.22,1.34-0.54,2.661-1.041,4.401l-1.92,7.021H32.729z"/>
	<path d="M49.029,22.858c0,0.6-0.42,1.081-1.121,1.081c-0.64,0-1.06-0.48-1.06-1.081s0.44-1.1,1.1-1.1
		C48.589,21.758,49.029,22.238,49.029,22.858z M47.069,35.261v-9.682h1.76v9.682H47.069z"/>
	<path d="M51.789,21.778h7.261v1.46h-5.501v4.481h5.081v1.44h-5.081v6.101h-1.76V21.778z"/>
	<path d="M62.929,22.858c0,0.6-0.42,1.081-1.121,1.081c-0.64,0-1.06-0.48-1.06-1.081s0.44-1.1,1.1-1.1
		C62.489,21.758,62.929,22.238,62.929,22.858z M60.969,35.261v-9.682h1.76v9.682H60.969z"/>
	<path d="M71.689,23.258h-4.101v-1.48h9.982v1.48h-4.12V35.26h-1.76L71.689,23.258L71.689,23.258z"/>
	<path d="M78.569,30.74c0.04,2.38,1.541,3.361,3.321,3.361c1.26,0,2.041-0.22,2.681-0.5l0.32,1.26c-0.62,0.28-1.7,0.62-3.241,0.62
		c-2.98,0-4.761-1.98-4.761-4.901c0-2.92,1.72-5.201,4.541-5.201c3.181,0,4,2.761,4,4.541c0,0.36-0.02,0.62-0.06,0.82H78.569z
		 M83.73,29.479c0.02-1.1-0.46-2.841-2.44-2.841c-1.8,0-2.561,1.621-2.701,2.841H83.73z"/>
	<path d="M87.369,33.48c0.54,0.32,1.46,0.68,2.34,0.68c1.26,0,1.861-0.62,1.861-1.44c0-0.84-0.5-1.28-1.781-1.76
		c-1.76-0.64-2.581-1.581-2.581-2.741c0-1.561,1.28-2.841,3.341-2.841c0.98,0,1.84,0.26,2.36,0.6l-0.42,1.28
		c-0.38-0.24-1.08-0.58-1.98-0.58c-1.04,0-1.6,0.6-1.6,1.32c0,0.8,0.56,1.161,1.82,1.661c1.66,0.62,2.541,1.46,2.541,2.9
		c0,1.721-1.34,2.921-3.601,2.921c-1.06,0-2.04-0.28-2.72-0.68L87.369,33.48z"/>
	<path d="M97.649,23.258v2.32h2.521v1.34h-2.521v5.221c0,1.2,0.34,1.88,1.32,1.88c0.48,0,0.76-0.04,1.021-0.12l0.08,1.34
		c-0.34,0.12-0.88,0.24-1.561,0.24c-0.82,0-1.48-0.28-1.9-0.74c-0.48-0.54-0.68-1.4-0.68-2.541v-5.281h-1.5v-1.34h1.5v-1.8
		L97.649,23.258z"/>
	<path d="M106.228,33.14c0.78,0.5,1.9,0.88,3.101,0.88c1.78,0,2.821-0.94,2.821-2.3c0-1.241-0.72-1.979-2.541-2.661
		c-2.201-0.8-3.561-1.96-3.561-3.841c0-2.101,1.741-3.661,4.361-3.661c1.36,0,2.381,0.32,2.961,0.66l-0.48,1.42
		c-0.42-0.26-1.32-0.64-2.541-0.64c-1.841,0-2.541,1.1-2.541,2.021c0,1.26,0.82,1.88,2.68,2.601c2.281,0.88,3.421,1.98,3.421,3.961
		c0,2.08-1.521,3.901-4.701,3.901c-1.3,0-2.72-0.4-3.44-0.88L106.228,33.14z"/>
	<path d="M123.27,34.921c-0.46,0.22-1.48,0.56-2.781,0.56c-2.92,0-4.821-1.98-4.821-4.941c0-2.98,2.041-5.161,5.201-5.161
		c1.04,0,1.96,0.26,2.44,0.521l-0.4,1.34c-0.42-0.22-1.08-0.46-2.04-0.46c-2.221,0-3.421,1.661-3.421,3.661
		c0,2.24,1.44,3.621,3.361,3.621c1,0,1.66-0.24,2.16-0.46L123.27,34.921z"/>
	<path d="M125.328,28.599c0-1.14-0.02-2.12-0.08-3.021h1.54l0.08,1.92h0.06c0.44-1.3,1.521-2.121,2.701-2.121
		c0.18,0,0.32,0.02,0.48,0.04v1.661c-0.18-0.04-0.36-0.04-0.6-0.04c-1.24,0-2.12,0.92-2.36,2.24c-0.04,0.24-0.06,0.54-0.06,0.82
		v5.161h-1.76L125.328,28.599L125.328,28.599z"/>
	<path d="M133.908,22.858c0,0.6-0.42,1.081-1.121,1.081c-0.64,0-1.06-0.48-1.06-1.081s0.44-1.1,1.1-1.1
		C133.468,21.758,133.908,22.238,133.908,22.858z M131.948,35.261v-9.682h1.76v9.682H131.948z"/>
	<path d="M136.628,28.739c0-1.24-0.04-2.24-0.08-3.161h1.56l0.1,1.661h0.04c0.7-1.181,1.86-1.861,3.441-1.861
		c2.36,0,4.121,1.98,4.121,4.901c0,3.48-2.14,5.201-4.421,5.201c-1.28,0-2.4-0.56-2.98-1.521h-0.04v5.261h-1.74L136.628,28.739
		L136.628,28.739z M138.368,31.32c0,0.26,0.02,0.5,0.08,0.72c0.32,1.22,1.38,2.061,2.641,2.061c1.86,0,2.94-1.521,2.94-3.741
		c0-1.92-1.02-3.581-2.88-3.581c-1.2,0-2.341,0.84-2.661,2.161c-0.06,0.22-0.12,0.48-0.12,0.7V31.32L138.368,31.32z"/>
	<path d="M150.127,23.258v2.32h2.521v1.34h-2.521v5.221c0,1.2,0.34,1.88,1.32,1.88c0.48,0,0.76-0.04,1.021-0.12l0.08,1.34
		c-0.34,0.12-0.88,0.24-1.561,0.24c-0.82,0-1.48-0.28-1.9-0.74c-0.48-0.54-0.68-1.4-0.68-2.541v-5.281h-1.5v-1.34h1.5v-1.8
		L150.127,23.258z"/>
	<path d="M30.529,45.978c1.06-0.18,2.32-0.3,3.701-0.3c2.5,0,4.281,0.6,5.461,1.681c1.22,1.1,1.92,2.66,1.92,4.841
		c0,2.201-0.7,4.001-1.94,5.241c-1.28,1.26-3.36,1.94-5.981,1.94c-1.26,0-2.281-0.06-3.161-0.16V45.978z M32.269,57.9
		c0.44,0.06,1.08,0.08,1.76,0.08c3.741,0,5.741-2.081,5.741-5.721c0.02-3.181-1.78-5.201-5.461-5.201c-0.9,0-1.581,0.08-2.041,0.18
		L32.269,57.9L32.269,57.9z"/>
	<path d="M50.59,56.94c0,0.84,0.04,1.66,0.14,2.32h-1.581l-0.14-1.22h-0.06c-0.541,0.76-1.581,1.44-2.961,1.44
		c-1.96,0-2.96-1.38-2.96-2.781c0-2.34,2.081-3.621,5.821-3.601v-0.2c0-0.78-0.22-2.241-2.201-2.221c-0.92,0-1.86,0.26-2.541,0.72
		l-0.4-1.18c0.8-0.5,1.98-0.84,3.201-0.84c2.96,0,3.681,2.021,3.681,3.941L50.59,56.94L50.59,56.94z M48.89,54.32
		c-1.92-0.04-4.101,0.3-4.101,2.18c0,1.16,0.76,1.681,1.641,1.681c1.28,0,2.1-0.8,2.38-1.621c0.06-0.2,0.08-0.4,0.08-0.56V54.32z"/>
	<path d="M55.468,47.258v2.32h2.521v1.34h-2.521v5.221c0,1.2,0.34,1.88,1.32,1.88c0.48,0,0.76-0.04,1.021-0.12l0.08,1.34
		c-0.34,0.12-0.88,0.24-1.561,0.24c-0.82,0-1.48-0.28-1.9-0.74c-0.48-0.54-0.68-1.4-0.68-2.541v-5.281h-1.5v-1.34h1.5v-1.8
		L55.468,47.258z"/>
	<path d="M66.77,56.94c0,0.84,0.04,1.66,0.14,2.32h-1.581l-0.14-1.22h-0.06c-0.541,0.76-1.581,1.44-2.961,1.44
		c-1.96,0-2.96-1.38-2.96-2.781c0-2.34,2.081-3.621,5.821-3.601v-0.2c0-0.78-0.22-2.241-2.201-2.221c-0.92,0-1.86,0.26-2.541,0.72
		l-0.4-1.18c0.8-0.5,1.98-0.84,3.201-0.84c2.96,0,3.681,2.021,3.681,3.941L66.77,56.94L66.77,56.94z M65.069,54.32
		c-1.92-0.04-4.101,0.3-4.101,2.18c0,1.16,0.76,1.681,1.641,1.681c1.28,0,2.1-0.8,2.38-1.621c0.06-0.2,0.08-0.4,0.08-0.56V54.32z"/>
	<path d="M73.888,45.778h7.261v1.46h-5.501v4.481h5.081v1.44h-5.081v6.101h-1.76V45.778z"/>
	<path d="M83.248,45.058h1.76v14.203h-1.76V45.058z"/>
	<path d="M96.729,54.34c0,3.581-2.5,5.141-4.821,5.141c-2.601,0-4.641-1.92-4.641-4.981c0-3.221,2.14-5.121,4.801-5.121
		C94.849,49.378,96.729,51.399,96.729,54.34z M89.068,54.44c0,2.12,1.2,3.721,2.92,3.721c1.681,0,2.941-1.581,2.941-3.761
		c0-1.641-0.82-3.701-2.901-3.701C89.968,50.699,89.068,52.619,89.068,54.44z"/>
	<path d="M99.508,49.579l1.3,4.921c0.26,1.081,0.52,2.081,0.7,3.081h0.06c0.22-0.98,0.541-2.021,0.86-3.061l1.581-4.941h1.48
		l1.5,4.841c0.36,1.16,0.64,2.18,0.86,3.161h0.06c0.16-0.98,0.42-2,0.74-3.141l1.38-4.861h1.74l-3.121,9.682h-1.6l-1.48-4.621
		c-0.34-1.08-0.62-2.041-0.86-3.181h-0.04c-0.24,1.16-0.541,2.161-0.88,3.201l-1.561,4.601h-1.6l-2.921-9.682H99.508z"/>
	<path d="M117.828,45.978c1.06-0.18,2.32-0.3,3.701-0.3c2.5,0,4.281,0.6,5.461,1.681c1.22,1.1,1.92,2.66,1.92,4.841
		c0,2.201-0.7,4.001-1.94,5.241c-1.28,1.26-3.36,1.94-5.981,1.94c-1.26,0-2.281-0.06-3.161-0.16V45.978z M119.568,57.9
		c0.44,0.06,1.08,0.08,1.76,0.08c3.741,0,5.741-2.081,5.741-5.721c0.02-3.181-1.78-5.201-5.461-5.201c-0.9,0-1.581,0.08-2.041,0.18
		L119.568,57.9L119.568,57.9z"/>
	<path d="M133.048,46.858c0,0.6-0.42,1.081-1.121,1.081c-0.64,0-1.06-0.48-1.06-1.081s0.44-1.1,1.1-1.1
		C132.607,45.758,133.048,46.238,133.048,46.858z M131.087,59.261v-9.682h1.76v9.682H131.087z"/>
	<path d="M142.568,56.94c0,0.84,0.04,1.66,0.14,2.32h-1.581l-0.14-1.22h-0.06c-0.541,0.76-1.581,1.44-2.961,1.44
		c-1.96,0-2.96-1.38-2.96-2.781c0-2.34,2.081-3.621,5.821-3.601v-0.2c0-0.78-0.22-2.241-2.201-2.221c-0.92,0-1.86,0.26-2.541,0.72
		l-0.4-1.18c0.8-0.5,1.98-0.84,3.201-0.84c2.96,0,3.681,2.021,3.681,3.941L142.568,56.94L142.568,56.94z M140.868,54.32
		c-1.92-0.04-4.101,0.3-4.101,2.18c0,1.16,0.76,1.681,1.641,1.681c1.28,0,2.1-0.8,2.38-1.621c0.06-0.2,0.08-0.4,0.08-0.56V54.32
		L140.868,54.32z"/>
	<path d="M153.689,57.84c0,2.241-0.46,3.581-1.38,4.441c-0.96,0.86-2.32,1.16-3.541,1.16c-1.16,0-2.44-0.28-3.221-0.8l0.44-1.36
		c0.64,0.42,1.64,0.78,2.84,0.78c1.801,0,3.121-0.94,3.121-3.401V57.6h-0.04c-0.521,0.9-1.581,1.62-3.081,1.62
		c-2.4,0-4.121-2.041-4.121-4.721c0-3.28,2.14-5.121,4.381-5.121c1.68,0,2.581,0.86,3.021,1.661h0.04l0.06-1.46h1.561
		c-0.06,0.68-0.08,1.48-0.08,2.641V57.84z M151.929,53.399c0-0.3-0.02-0.56-0.1-0.78c-0.32-1.04-1.161-1.88-2.46-1.88
		c-1.681,0-2.881,1.42-2.881,3.661c0,1.9,0.98,3.48,2.861,3.48c1.1,0,2.08-0.68,2.44-1.8c0.1-0.3,0.14-0.64,0.14-0.94V53.399z"/>
	<path d="M156.467,52.599c0-1.14-0.02-2.12-0.08-3.021h1.54l0.08,1.92h0.06c0.44-1.3,1.521-2.121,2.701-2.121
		c0.18,0,0.32,0.02,0.48,0.04v1.661c-0.18-0.04-0.36-0.04-0.6-0.04c-1.24,0-2.12,0.92-2.36,2.24c-0.04,0.24-0.06,0.54-0.06,0.82
		v5.161h-1.76L156.467,52.599L156.467,52.599z"/>
	<path d="M169.708,56.94c0,0.84,0.04,1.66,0.14,2.32h-1.581l-0.14-1.22h-0.06c-0.54,0.76-1.581,1.44-2.961,1.44
		c-1.96,0-2.96-1.38-2.96-2.781c0-2.34,2.081-3.621,5.821-3.601v-0.2c0-0.78-0.22-2.241-2.201-2.221c-0.92,0-1.86,0.26-2.541,0.72
		l-0.4-1.18c0.8-0.5,1.98-0.84,3.201-0.84c2.96,0,3.681,2.021,3.681,3.941L169.708,56.94L169.708,56.94z M168.008,54.32
		c-1.92-0.04-4.101,0.3-4.101,2.18c0,1.16,0.76,1.681,1.641,1.681c1.28,0,2.1-0.8,2.38-1.621c0.06-0.2,0.08-0.4,0.08-0.56V54.32
		L168.008,54.32z"/>
	<path d="M172.547,52.199c0-1.02-0.04-1.82-0.08-2.621h1.54l0.08,1.581h0.06c0.54-0.92,1.44-1.781,3.061-1.781
		c1.3,0,2.301,0.8,2.721,1.94h0.04c0.3-0.56,0.7-0.96,1.1-1.26c0.58-0.44,1.201-0.68,2.121-0.68c1.3,0,3.201,0.84,3.201,4.201v5.681
		h-1.72V53.8c0-1.881-0.7-2.981-2.101-2.981c-1.02,0-1.78,0.74-2.101,1.581c-0.08,0.26-0.14,0.56-0.14,0.88v5.98h-1.721V53.46
		c0-1.541-0.68-2.641-2.021-2.641c-1.08,0-1.9,0.88-2.18,1.76c-0.1,0.24-0.14,0.561-0.14,0.86v5.821h-1.72V52.199L172.547,52.199z"
		/>
</g>
<rect x="135.517" y="370.954" fill="#FFFFFF" stroke="#010101" width="94.958" height="41.176"/>
<g>
	<path fill="#030303" d="M77.969,74.838c24.519-1.766,49.604,7.407,67.104,24.685c2.292,2.36,1.994,6.489-0.425,8.652
		c-2.222,2.619-6.671,2.666-8.964,0.114c-14.97-14.412-36.105-22.205-56.858-20.655c-17.241,1.109-33.942,8.535-46.452,20.43
		c-1.113,1.137-2.534,2.071-4.169,2.151c-4.098,0.48-7.888-3.802-7.003-7.812c0.249-1.439,1.173-2.637,2.23-3.596
		C38.077,84.784,57.739,76.172,77.969,74.838z"/>
	<path fill="#030303" d="M77.362,98.882c18.784-2.043,38.29,4.881,51.583,18.303c2.077,2.373,1.818,6.253-0.49,8.385
		c-2.104,2.576-6.348,2.865-8.733,0.529c-8.51-8.391-20.017-13.718-31.948-14.591c-14.489-1.201-29.292,4.296-39.608,14.505
		c-2.379,2.515-6.811,2.228-8.952-0.447c-2.308-2.178-2.499-6.163-0.284-8.47C49.155,106.866,62.981,100.357,77.362,98.882z"/>
	<path fill="#030303" d="M80.139,122.605c11.854-1.177,24.109,3.362,32.358,11.947c2.259,2.351,1.997,6.397-0.382,8.573
		c-2.16,2.606-6.49,2.782-8.837,0.339c-4.649-4.773-11.09-7.79-17.758-8.154c-7.567-0.539-15.225,2.45-20.599,7.769
		c-1.322,1.485-3.286,2.397-5.295,2.16c-4.665-0.327-7.903-6.555-4.689-10.292C61.425,127.909,70.642,123.549,80.139,122.605z"/>
	<path fill="#030303" d="M81.966,144.758c7.639-1.282,15.391,5.026,15.638,12.772c0.709,7.596-5.996,14.804-13.62,14.637
		c-6.853,0.237-13.204-5.448-13.805-12.264C69.203,152.748,74.798,145.584,81.966,144.758z"/>
</g>
<g>
	<path d="M249.476,258.16l-3.079-12.136h1.657l1.44,6.14c0.36,1.512,0.684,3.025,0.9,4.195h0.036
		c0.198-1.207,0.576-2.647,0.99-4.213l1.621-6.122h1.639l1.476,6.158c0.342,1.44,0.667,2.881,0.847,4.16h0.036
		c0.252-1.333,0.594-2.683,0.972-4.195l1.603-6.122h1.603l-3.439,12.136h-1.638l-1.531-6.32c-0.378-1.548-0.63-2.737-0.792-3.961
		h-0.036c-0.198,1.207-0.486,2.395-0.937,3.961l-1.729,6.32L249.476,258.16L249.476,258.16z"/>
	<path d="M264.146,246.996c0,0.541-0.378,0.973-1.008,0.973c-0.576,0-0.955-0.432-0.955-0.973c0-0.54,0.396-0.99,0.99-0.99
		C263.749,246.006,264.146,246.438,264.146,246.996z M262.381,258.16v-8.714h1.584v8.714H262.381z"/>
	<path d="M266.629,246.024h6.536v1.314h-4.951v4.033h4.573v1.296h-4.573v5.492h-1.584L266.629,246.024L266.629,246.024z"/>
	<path d="M276.656,246.996c0,0.541-0.378,0.973-1.008,0.973c-0.576,0-0.955-0.432-0.955-0.973c0-0.54,0.396-0.99,0.99-0.99
		C276.259,246.006,276.656,246.438,276.656,246.996z M274.891,258.16v-8.714h1.584v8.714H274.891z"/>
	<path d="M248.726,270.141c0,3.236-1.975,4.973-4.384,4.973c-2.507,0-4.244-1.947-4.244-4.805c0-2.998,1.849-4.959,4.37-4.959
		C247.059,265.35,248.726,267.325,248.726,270.141z M241.386,270.281c0,2.031,1.093,3.838,3.025,3.838
		c1.933,0,3.026-1.779,3.026-3.922c0-1.891-0.98-3.852-3.012-3.852C242.395,266.345,241.386,268.222,241.386,270.281z"/>
	<path d="M250.261,270.015c0-0.714-0.014-1.274-0.056-1.835h1.093l0.07,1.121h0.028c0.336-0.63,1.121-1.261,2.241-1.261
		c0.938,0,2.395,0.561,2.395,2.886v4.034H254.8v-3.908c0-1.092-0.406-2.003-1.569-2.003c-0.798,0-1.429,0.574-1.653,1.261
		c-0.056,0.154-0.084,0.364-0.084,0.574v4.076h-1.233V270.015z"/>
	<path d="M262.12,264.454v14.008h-0.938v-14.008H262.12z"/>
	<path d="M275.423,270.141c0,3.236-1.975,4.973-4.384,4.973c-2.507,0-4.244-1.947-4.244-4.805c0-2.998,1.849-4.959,4.37-4.959
		C273.756,265.35,275.423,267.325,275.423,270.141z M268.083,270.281c0,2.031,1.093,3.838,3.026,3.838s3.025-1.779,3.025-3.922
		c0-1.891-0.98-3.852-3.012-3.852C269.09,266.345,268.083,268.222,268.083,270.281z"/>
	<path d="M281.385,274.959v-5.841h-2.857v5.841h-1.219v-5.841h-0.938v-0.938h0.938v-0.21c0-0.953,0.224-1.765,0.757-2.312
		c0.392-0.392,0.952-0.63,1.708-0.63c0.393,0,0.756,0.126,0.967,0.238l-0.252,0.925c-0.182-0.098-0.448-0.182-0.728-0.182
		c-0.967,0-1.233,0.826-1.233,1.891v0.28h2.857v-0.322c0-0.952,0.21-1.821,0.785-2.367c0.462-0.448,1.079-0.63,1.639-0.63
		c0.448,0,0.827,0.098,1.051,0.196l-0.154,0.953c-0.196-0.084-0.434-0.154-0.798-0.154c-1.037,0-1.303,0.911-1.303,1.961v0.364
		h1.625v0.938h-1.625v5.841L281.385,274.959L281.385,274.959z"/>
	<path d="M240.657,282.459c0.743-0.126,1.625-0.21,2.591-0.21c1.751,0,2.998,0.42,3.824,1.177c0.854,0.771,1.345,1.863,1.345,3.39
		c0,1.541-0.49,2.802-1.359,3.67c-0.896,0.883-2.353,1.359-4.188,1.359c-0.882,0-1.597-0.042-2.213-0.112V282.459L240.657,282.459z
		 M241.876,290.807c0.308,0.042,0.756,0.056,1.233,0.056c2.619,0,4.02-1.457,4.02-4.006c0.014-2.227-1.247-3.642-3.824-3.642
		c-0.63,0-1.106,0.056-1.429,0.126V290.807z"/>
	<path d="M250.682,288.594c0.028,1.667,1.079,2.353,2.325,2.353c0.882,0,1.429-0.154,1.877-0.35l0.224,0.882
		c-0.434,0.196-1.19,0.435-2.269,0.435c-2.087,0-3.334-1.387-3.334-3.432s1.205-3.642,3.18-3.642c2.228,0,2.802,1.933,2.802,3.18
		c0,0.252-0.014,0.435-0.042,0.575L250.682,288.594L250.682,288.594z M254.295,287.711c0.014-0.77-0.322-1.989-1.709-1.989
		c-1.26,0-1.793,1.134-1.891,1.989H254.295z"/>
	<path d="M258.494,283.355v1.625h1.765v0.938h-1.765v3.656c0,0.84,0.238,1.316,0.924,1.316c0.336,0,0.533-0.028,0.715-0.084
		l0.056,0.938c-0.238,0.084-0.616,0.168-1.092,0.168c-0.575,0-1.037-0.196-1.331-0.519c-0.336-0.378-0.476-0.98-0.476-1.779v-3.698
		h-1.051v-0.938h1.051v-1.261L258.494,283.355z"/>
	<path d="M262.245,288.594c0.028,1.667,1.079,2.353,2.325,2.353c0.882,0,1.429-0.154,1.877-0.35l0.224,0.882
		c-0.434,0.196-1.19,0.435-2.269,0.435c-2.087,0-3.334-1.387-3.334-3.432s1.205-3.642,3.18-3.642c2.228,0,2.802,1.933,2.802,3.18
		c0,0.252-0.014,0.435-0.042,0.575L262.245,288.594L262.245,288.594z M265.859,287.711c0.014-0.77-0.322-1.989-1.709-1.989
		c-1.26,0-1.793,1.134-1.891,1.989H265.859z"/>
	<path d="M273.405,291.521c-0.322,0.154-1.036,0.393-1.947,0.393c-2.045,0-3.376-1.387-3.376-3.46c0-2.087,1.429-3.614,3.642-3.614
		c0.729,0,1.373,0.182,1.709,0.364l-0.28,0.938c-0.294-0.154-0.756-0.322-1.429-0.322c-1.555,0-2.396,1.163-2.396,2.563
		c0,1.569,1.009,2.536,2.354,2.536c0.7,0,1.163-0.168,1.513-0.322L273.405,291.521z"/>
	<path d="M276.511,283.355v1.625h1.765v0.938h-1.765v3.656c0,0.84,0.238,1.316,0.924,1.316c0.336,0,0.533-0.028,0.715-0.084
		l0.056,0.938c-0.238,0.084-0.616,0.168-1.092,0.168c-0.575,0-1.037-0.196-1.331-0.519c-0.336-0.378-0.476-0.98-0.476-1.779v-3.698
		h-1.051v-0.938h1.051v-1.261L276.511,283.355z"/>
	<path d="M280.613,289.07l-0.028-0.364c-0.084-0.742,0.168-1.583,0.868-2.423c0.63-0.742,0.98-1.289,0.98-1.919
		c0-0.714-0.448-1.19-1.331-1.205c-0.504,0-1.064,0.168-1.415,0.434l-0.336-0.882c0.476-0.336,1.261-0.561,2.003-0.561
		c1.611,0,2.339,0.995,2.339,2.059c0,0.953-0.532,1.639-1.205,2.438c-0.616,0.729-0.84,1.359-0.798,2.073l0.028,0.35H280.613
		L280.613,289.07z M280.318,291.045c0-0.518,0.351-0.882,0.827-0.882c0.504,0,0.827,0.364,0.827,0.882
		c0,0.49-0.322,0.869-0.841,0.869C280.655,291.914,280.318,291.536,280.318,291.045z"/>
</g>
<g>
	<path d="M382.034,263.059l-3.42-13.483h1.84l1.6,6.821c0.4,1.681,0.76,3.361,1,4.661h0.04c0.22-1.34,0.64-2.94,1.1-4.681l1.8-6.801
		h1.82l1.641,6.841c0.38,1.601,0.74,3.201,0.94,4.621h0.04c0.28-1.48,0.66-2.98,1.08-4.661l1.781-6.801h1.78l-3.821,13.483h-1.82
		l-1.701-7.021c-0.42-1.72-0.7-3.041-0.88-4.401h-0.04c-0.22,1.34-0.54,2.661-1.041,4.401l-1.92,7.021H382.034L382.034,263.059z"/>
	<path d="M397.014,258.538c0.041,2.38,1.541,3.361,3.321,3.361c1.261,0,2.04-0.22,2.681-0.5l0.32,1.26
		c-0.621,0.28-1.701,0.62-3.241,0.62c-2.979,0-4.761-1.98-4.761-4.901c0-2.92,1.721-5.201,4.541-5.201c3.181,0,4,2.761,4,4.541
		c0,0.36-0.02,0.62-0.059,0.82H397.014z M402.176,257.278c0.021-1.1-0.461-2.841-2.44-2.841c-1.801,0-2.562,1.621-2.7,2.841H402.176
		z"/>
	<path d="M406.054,248.856h1.74v6.082h0.04c0.62-1.081,1.74-1.761,3.301-1.761c2.42,0,4.102,2,4.102,4.921
		c0,3.46-2.2,5.181-4.36,5.181c-1.4,0-2.521-0.54-3.262-1.801h-0.039l-0.102,1.581h-1.5c0.04-0.66,0.08-1.64,0.08-2.5V248.856z
		 M407.794,259.178c0,0.22,0.021,0.44,0.08,0.64c0.319,1.22,1.36,2.061,2.641,2.061c1.86,0,2.94-1.5,2.94-3.721
		c0-1.94-1-3.601-2.9-3.601c-1.18,0-2.301,0.84-2.66,2.161c-0.061,0.22-0.101,0.46-0.101,0.74V259.178L407.794,259.178z"/>
	<path d="M364.697,271.471v6.403c0,2.401,1.073,3.425,2.513,3.425c1.584,0,2.625-1.056,2.625-3.425v-6.403h1.409v6.307
		c0,3.313-1.745,4.658-4.082,4.658c-2.209,0-3.874-1.249-3.874-4.61v-6.355H364.697z"/>
	<path d="M373.608,277.041c0-0.992-0.032-1.792-0.064-2.529h1.249l0.08,1.329h0.032c0.561-0.944,1.489-1.489,2.753-1.489
		c1.889,0,3.297,1.584,3.297,3.921c0,2.785-1.713,4.162-3.538,4.162c-1.024,0-1.921-0.448-2.385-1.217H375v4.21h-1.393
		L373.608,277.041L373.608,277.041z M375,279.106c0,0.208,0.016,0.4,0.064,0.576c0.256,0.977,1.104,1.649,2.113,1.649
		c1.489,0,2.353-1.217,2.353-2.993c0-1.537-0.816-2.865-2.305-2.865c-0.96,0-1.873,0.672-2.129,1.729
		c-0.048,0.176-0.096,0.384-0.096,0.56V279.106z"/>
	<path d="M387.385,270.254v16.006h-1.073v-16.006H387.385z"/>
	<path d="M393.368,271.631c0.849-0.144,1.857-0.24,2.961-0.24c2.001,0,3.425,0.48,4.37,1.344c0.977,0.88,1.536,2.129,1.536,3.874
		c0,1.761-0.561,3.201-1.554,4.194c-1.023,1.008-2.688,1.553-4.786,1.553c-1.008,0-1.825-0.048-2.529-0.128L393.368,271.631
		L393.368,271.631z M394.76,281.171c0.353,0.048,0.865,0.064,1.409,0.064c2.993,0,4.594-1.665,4.594-4.578
		c0.018-2.545-1.425-4.162-4.37-4.162c-0.72,0-1.265,0.064-1.633,0.144V281.171z"/>
	<path d="M411.051,278.322c0,2.865-2.001,4.114-3.856,4.114c-2.082,0-3.714-1.537-3.714-3.986c0-2.577,1.712-4.098,3.841-4.098
		C409.546,274.352,411.051,275.969,411.051,278.322z M404.92,278.402c0,1.697,0.961,2.977,2.337,2.977
		c1.345,0,2.354-1.265,2.354-3.009c0-1.312-0.656-2.961-2.32-2.961C405.641,275.409,404.92,276.945,404.92,278.402z"/>
	<path d="M413.271,274.512l1.04,3.938c0.207,0.864,0.416,1.665,0.561,2.465h0.048c0.176-0.784,0.433-1.617,0.688-2.449l1.265-3.954
		h1.185l1.2,3.874c0.289,0.928,0.514,1.745,0.688,2.529h0.048c0.129-0.784,0.336-1.601,0.592-2.513l1.105-3.89h1.393l-2.498,7.747
		h-1.279l-1.186-3.697c-0.271-0.865-0.496-1.633-0.688-2.545h-0.031c-0.192,0.929-0.434,1.729-0.704,2.561l-1.248,3.682h-1.281
		l-2.337-7.747L413.271,274.512L413.271,274.512z"/>
	<path d="M424.487,276.609c0-0.816-0.018-1.457-0.063-2.097h1.248l0.08,1.28h0.031c0.385-0.72,1.281-1.44,2.562-1.44
		c1.073,0,2.737,0.64,2.737,3.297v4.61h-1.408v-4.466c0-1.249-0.465-2.289-1.793-2.289c-0.912,0-1.633,0.656-1.889,1.441
		c-0.064,0.176-0.096,0.416-0.096,0.656v4.658h-1.409V276.609z"/>
</g>
<circle fill="#FFFFFF" stroke="#010101" stroke-width="2" cx="327.13" cy="104.188" r="46.639"/>
<g>
	<path d="M314.434,92.613l-3.079-12.136h1.657l1.44,6.14c0.36,1.512,0.684,3.025,0.9,4.195h0.036
		c0.198-1.207,0.576-2.647,0.99-4.213l1.621-6.122h1.639l1.476,6.158c0.342,1.44,0.667,2.881,0.847,4.16h0.036
		c0.252-1.333,0.594-2.683,0.972-4.195l1.603-6.122h1.603l-3.439,12.136h-1.638l-1.531-6.32c-0.378-1.548-0.63-2.737-0.792-3.961
		h-0.036c-0.198,1.207-0.486,2.395-0.937,3.961l-1.729,6.32h-1.639V92.613z"/>
	<path d="M329.104,81.45c0,0.541-0.378,0.973-1.008,0.973c-0.576,0-0.955-0.432-0.955-0.973c0-0.54,0.396-0.99,0.99-0.99
		C328.707,80.459,329.104,80.892,329.104,81.45z M327.339,92.613v-8.714h1.584v8.714H327.339z"/>
	<path d="M331.587,80.478h6.536v1.314h-4.951v4.033h4.573v1.296h-4.573v5.492h-1.584L331.587,80.478L331.587,80.478z"/>
	<path d="M341.614,81.45c0,0.541-0.378,0.973-1.008,0.973c-0.576,0-0.955-0.432-0.955-0.973c0-0.54,0.396-0.99,0.99-0.99
		C341.217,80.459,341.614,80.892,341.614,81.45z M339.849,92.613v-8.714h1.584v8.714H339.849z"/>
	<path d="M313.684,104.594c0,3.236-1.975,4.973-4.384,4.973c-2.507,0-4.244-1.947-4.244-4.805c0-2.998,1.849-4.959,4.37-4.959
		C312.017,99.804,313.684,101.779,313.684,104.594z M306.344,104.734c0,2.031,1.093,3.838,3.025,3.838
		c1.933,0,3.026-1.779,3.026-3.922c0-1.891-0.98-3.852-3.012-3.852C307.353,100.798,306.344,102.675,306.344,104.734z"/>
	<path d="M315.219,104.468c0-0.714-0.014-1.274-0.056-1.835h1.093l0.07,1.121h0.028c0.336-0.63,1.121-1.261,2.241-1.261
		c0.938,0,2.395,0.561,2.395,2.886v4.034h-1.232v-3.908c0-1.092-0.406-2.003-1.569-2.003c-0.798,0-1.429,0.574-1.653,1.261
		c-0.056,0.154-0.084,0.364-0.084,0.574v4.076h-1.233V104.468L315.219,104.468z"/>
	<path d="M327.078,98.907v14.008h-0.938V98.907H327.078z"/>
	<path d="M340.381,104.594c0,3.236-1.975,4.973-4.384,4.973c-2.507,0-4.244-1.947-4.244-4.805c0-2.998,1.849-4.959,4.37-4.959
		C338.714,99.804,340.381,101.779,340.381,104.594z M333.042,104.734c0,2.031,1.093,3.838,3.026,3.838s3.025-1.779,3.025-3.922
		c0-1.891-0.98-3.852-3.012-3.852C334.049,100.798,333.042,102.675,333.042,104.734z"/>
	<path d="M346.343,109.413v-5.841h-2.857v5.841h-1.219v-5.841h-0.938v-0.938h0.938v-0.21c0-0.953,0.224-1.765,0.757-2.312
		c0.392-0.392,0.952-0.63,1.708-0.63c0.393,0,0.756,0.126,0.967,0.238l-0.252,0.925c-0.182-0.098-0.448-0.182-0.728-0.182
		c-0.967,0-1.233,0.826-1.233,1.891v0.28h2.857v-0.322c0-0.952,0.21-1.821,0.785-2.367c0.462-0.448,1.079-0.63,1.639-0.63
		c0.448,0,0.827,0.098,1.051,0.196l-0.154,0.953c-0.196-0.084-0.434-0.154-0.798-0.154c-1.037,0-1.303,0.911-1.303,1.961v0.364
		h1.625v0.938h-1.625v5.841L346.343,109.413L346.343,109.413z"/>
	<path d="M309.963,117.809h-2.872v-1.037h6.99v1.037h-2.885v8.404h-1.233V117.809L309.963,117.809z"/>
	<path d="M320.228,122.768c0,2.507-1.751,3.6-3.375,3.6c-1.821,0-3.25-1.345-3.25-3.488c0-2.255,1.499-3.586,3.362-3.586
		C318.911,119.293,320.228,120.708,320.228,122.768z M314.863,122.837c0,1.485,0.84,2.605,2.045,2.605
		c1.177,0,2.059-1.106,2.059-2.633c0-1.148-0.574-2.591-2.031-2.591C315.493,120.218,314.863,121.563,314.863,122.837z"/>
	<path d="M327.578,125.219c0,1.569-0.322,2.507-0.967,3.11c-0.672,0.602-1.625,0.812-2.479,0.812c-0.812,0-1.709-0.196-2.255-0.561
		l0.308-0.953c0.448,0.294,1.148,0.546,1.989,0.546c1.261,0,2.185-0.658,2.185-2.381v-0.742h-0.028
		c-0.364,0.63-1.107,1.135-2.157,1.135c-1.681,0-2.886-1.429-2.886-3.306c0-2.297,1.499-3.586,3.068-3.586
		c1.176,0,1.807,0.603,2.115,1.163h0.028l0.042-1.022h1.093c-0.042,0.477-0.056,1.037-0.056,1.849V125.219L327.578,125.219z
		 M326.345,122.109c0-0.21-0.014-0.393-0.07-0.546c-0.224-0.729-0.812-1.317-1.723-1.317c-1.176,0-2.017,0.995-2.017,2.563
		c0,1.331,0.687,2.438,2.003,2.438c0.77,0,1.457-0.477,1.709-1.261c0.07-0.21,0.098-0.448,0.098-0.659V122.109z"/>
	<path d="M335.403,125.219c0,1.569-0.322,2.507-0.967,3.11c-0.672,0.602-1.625,0.812-2.479,0.812c-0.812,0-1.709-0.196-2.255-0.561
		l0.308-0.953c0.448,0.294,1.149,0.546,1.989,0.546c1.261,0,2.185-0.658,2.185-2.381v-0.742h-0.028
		c-0.364,0.63-1.107,1.135-2.157,1.135c-1.681,0-2.886-1.429-2.886-3.306c0-2.297,1.499-3.586,3.068-3.586
		c1.176,0,1.807,0.603,2.115,1.163h0.028l0.042-1.022h1.093c-0.042,0.477-0.056,1.037-0.056,1.849V125.219L335.403,125.219z
		 M334.17,122.109c0-0.21-0.014-0.393-0.07-0.546c-0.224-0.729-0.812-1.317-1.723-1.317c-1.176,0-2.017,0.995-2.017,2.563
		c0,1.331,0.687,2.438,2.003,2.438c0.77,0,1.457-0.477,1.708-1.261c0.07-0.21,0.098-0.448,0.098-0.659L334.17,122.109
		L334.17,122.109z"/>
	<path d="M337.43,116.268h1.233v9.945h-1.233V116.268z"/>
	<path d="M341.42,123.048c0.028,1.667,1.079,2.353,2.325,2.353c0.882,0,1.429-0.154,1.877-0.35l0.224,0.882
		c-0.434,0.196-1.19,0.435-2.269,0.435c-2.087,0-3.334-1.387-3.334-3.432s1.205-3.642,3.18-3.642c2.227,0,2.802,1.933,2.802,3.18
		c0,0.252-0.014,0.435-0.042,0.575L341.42,123.048L341.42,123.048z M345.034,122.165c0.014-0.77-0.322-1.989-1.709-1.989
		c-1.261,0-1.793,1.134-1.891,1.989H345.034z"/>
</g>
<g>
	<path d="M157.113,395.342c0.78,0.5,1.9,0.88,3.101,0.88c1.78,0,2.821-0.939,2.821-2.3c0-1.241-0.72-1.979-2.541-2.661
		c-2.201-0.8-3.561-1.96-3.561-3.841c0-2.101,1.741-3.661,4.361-3.661c1.36,0,2.381,0.32,2.961,0.66l-0.48,1.421
		c-0.42-0.26-1.32-0.641-2.541-0.641c-1.841,0-2.541,1.1-2.541,2.021c0,1.262,0.82,1.88,2.68,2.602
		c2.281,0.881,3.421,1.979,3.421,3.961c0,2.08-1.521,3.899-4.701,3.899c-1.3,0-2.72-0.399-3.44-0.88L157.113,395.342z"/>
	<path d="M174.155,397.122c-0.46,0.22-1.48,0.56-2.781,0.56c-2.92,0-4.821-1.979-4.821-4.94c0-2.98,2.041-5.16,5.201-5.16
		c1.04,0,1.96,0.26,2.44,0.52l-0.4,1.342c-0.42-0.221-1.08-0.46-2.04-0.46c-2.221,0-3.421,1.659-3.421,3.659
		c0,2.24,1.44,3.621,3.361,3.621c1,0,1.66-0.239,2.16-0.46L174.155,397.122z"/>
	<path d="M176.213,390.801c0-1.141-0.02-2.121-0.08-3.021h1.54l0.08,1.921h0.06c0.44-1.3,1.521-2.12,2.701-2.12
		c0.18,0,0.32,0.02,0.48,0.039v1.661c-0.18-0.04-0.36-0.04-0.6-0.04c-1.24,0-2.12,0.92-2.36,2.24c-0.04,0.239-0.06,0.54-0.06,0.819
		v5.161h-1.76L176.213,390.801L176.213,390.801z"/>
	<path d="M184.793,385.059c0,0.602-0.42,1.081-1.121,1.081c-0.64,0-1.06-0.479-1.06-1.081c0-0.6,0.44-1.1,1.1-1.1
		C184.353,383.959,184.793,384.439,184.793,385.059z M182.833,397.462v-9.683h1.76v9.683H182.833z"/>
	<path d="M187.513,390.94c0-1.24-0.04-2.24-0.08-3.161h1.56l0.1,1.661h0.04c0.7-1.182,1.86-1.86,3.441-1.86
		c2.36,0,4.121,1.979,4.121,4.9c0,3.479-2.14,5.2-4.421,5.2c-1.28,0-2.4-0.56-2.98-1.52h-0.04v5.261h-1.74L187.513,390.94
		L187.513,390.94z M189.253,393.521c0,0.26,0.02,0.5,0.08,0.72c0.32,1.22,1.38,2.061,2.641,2.061c1.86,0,2.94-1.521,2.94-3.741
		c0-1.92-1.02-3.579-2.88-3.579c-1.2,0-2.341,0.84-2.661,2.159c-0.06,0.222-0.12,0.48-0.12,0.7V393.521L189.253,393.521z"/>
	<path d="M201.013,385.459v2.32h2.521v1.341h-2.521v5.222c0,1.199,0.34,1.88,1.32,1.88c0.48,0,0.76-0.04,1.021-0.12l0.08,1.341
		c-0.34,0.121-0.88,0.239-1.561,0.239c-0.82,0-1.48-0.278-1.9-0.739c-0.48-0.539-0.68-1.4-0.68-2.54v-5.281h-1.5v-1.341h1.5v-1.8
		L201.013,385.459z"/>
</g>
<g>
	<path d="M302.597,400.664v-4.578l-3.426-6.211h1.601l1.521,2.977c0.4,0.816,0.736,1.474,1.072,2.228h0.032
		c0.288-0.705,0.672-1.41,1.088-2.228l1.553-2.977h1.568l-3.602,6.195v4.594H302.597z"/>
	<path d="M308.372,397.047c0.032,1.904,1.232,2.688,2.657,2.688c1.008,0,1.633-0.177,2.145-0.398l0.256,1.008
		c-0.496,0.226-1.36,0.496-2.593,0.496c-2.385,0-3.81-1.584-3.81-3.922c0-2.336,1.376-4.162,3.633-4.162
		c2.545,0,3.201,2.209,3.201,3.635c0,0.287-0.016,0.496-0.048,0.656L308.372,397.047L308.372,397.047z M312.502,396.037
		c0.016-0.879-0.368-2.271-1.953-2.271c-1.441,0-2.049,1.295-2.161,2.271H312.502z"/>
	<path d="M315.412,399.238c0.432,0.256,1.168,0.545,1.873,0.545c1.008,0,1.489-0.496,1.489-1.152c0-0.672-0.4-1.024-1.425-1.408
		c-1.409-0.512-2.065-1.266-2.065-2.192c0-1.248,1.024-2.273,2.673-2.273c0.784,0,1.473,0.209,1.889,0.48l-0.336,1.024
		c-0.304-0.192-0.865-0.465-1.585-0.465c-0.832,0-1.28,0.48-1.28,1.058c0,0.641,0.448,0.928,1.457,1.327
		c1.329,0.496,2.033,1.168,2.033,2.32c0,1.377-1.072,2.338-2.881,2.338c-0.849,0-1.633-0.225-2.177-0.545L315.412,399.238z"/>
	<path d="M326.612,388.658v16.008h-1.073v-16.008H326.612z"/>
	<path d="M332.595,400.664v-10.789h1.537l3.441,5.459c0.785,1.264,1.425,2.4,1.921,3.504l0.048-0.016
		c-0.128-1.439-0.16-2.752-0.16-4.435v-4.514h1.312v10.789h-1.409l-3.425-5.475c-0.752-1.201-1.473-2.435-2.001-3.603l-0.048,0.016
		c0.08,1.361,0.096,2.658,0.096,4.451v4.609h-1.312V400.664z"/>
	<path d="M350.086,396.727c0,2.865-2,4.113-3.857,4.113c-2.081,0-3.713-1.537-3.713-3.986c0-2.575,1.712-4.098,3.841-4.098
		C348.582,392.756,350.086,394.373,350.086,396.727z M343.956,396.807c0,1.695,0.96,2.978,2.337,2.978
		c1.345,0,2.353-1.265,2.353-3.01c0-1.312-0.656-2.962-2.321-2.962C344.676,393.812,343.956,395.35,343.956,396.807z"/>
</g>
<g>
	<path d="M436.598,405.664v-4.578l-3.426-6.211h1.601l1.521,2.977c0.4,0.816,0.736,1.474,1.072,2.228h0.032
		c0.287-0.705,0.672-1.41,1.089-2.228l1.553-2.977h1.568l-3.603,6.195v4.594H436.598z"/>
	<path d="M442.372,402.047c0.032,1.904,1.231,2.688,2.657,2.688c1.008,0,1.633-0.177,2.145-0.398l0.256,1.008
		c-0.496,0.226-1.358,0.496-2.592,0.496c-2.386,0-3.811-1.584-3.811-3.922c0-2.336,1.377-4.162,3.634-4.162
		c2.545,0,3.201,2.209,3.201,3.635c0,0.287-0.018,0.496-0.048,0.656L442.372,402.047L442.372,402.047z M446.502,401.037
		c0.016-0.879-0.368-2.271-1.953-2.271c-1.439,0-2.049,1.295-2.16,2.271H446.502z"/>
	<path d="M449.412,404.238c0.432,0.256,1.168,0.545,1.872,0.545c1.009,0,1.489-0.496,1.489-1.152c0-0.672-0.4-1.024-1.427-1.408
		c-1.407-0.512-2.063-1.266-2.063-2.192c0-1.248,1.023-2.273,2.674-2.273c0.783,0,1.473,0.209,1.889,0.48l-0.336,1.024
		c-0.305-0.192-0.864-0.465-1.586-0.465c-0.832,0-1.278,0.48-1.278,1.058c0,0.641,0.446,0.928,1.455,1.327
		c1.329,0.496,2.032,1.168,2.032,2.32c0,1.377-1.071,2.338-2.881,2.338c-0.848,0-1.633-0.225-2.177-0.545L449.412,404.238z"/>
	<path d="M460.612,393.658v16.008h-1.073v-16.008H460.612z"/>
	<path d="M466.596,405.664v-10.789h1.536l3.441,5.459c0.784,1.264,1.425,2.4,1.921,3.504l0.048-0.016
		c-0.128-1.439-0.159-2.752-0.159-4.435v-4.514h1.312v10.789h-1.409l-3.425-5.475c-0.753-1.201-1.474-2.435-2.002-3.603
		l-0.047,0.016c0.079,1.361,0.096,2.658,0.096,4.451v4.609h-1.312V405.664z"/>
	<path d="M484.086,401.727c0,2.865-2,4.113-3.857,4.113c-2.08,0-3.713-1.537-3.713-3.986c0-2.575,1.712-4.098,3.842-4.098
		C482.582,397.756,484.086,399.373,484.086,401.727z M477.955,401.807c0,1.695,0.961,2.978,2.338,2.978
		c1.344,0,2.354-1.265,2.354-3.01c0-1.312-0.656-2.962-2.321-2.962C478.676,398.812,477.955,400.35,477.955,401.807z"/>
</g>
<g>
	<g>
		<line fill="none" stroke="#010101" stroke-width="2" x1="326.9" y1="374.908" x2="325.497" y2="164.776"/>
		<g>
			<path fill="#010101" d="M325.257,152.709c2.22,5.636,5.955,12.609,9.852,16.901l-9.578-3.25l-9.438,3.629
				C319.812,165.547,323.265,158.429,325.257,152.709z"/>
		</g>
	</g>
</g>
<g>
	<line fill="none" stroke="#010101" stroke-width="2" x1="303.14" y1="145.587" x2="273.658" y2="209.235"/>
	<path fill="#010101" d="M267.138,200.678l7.185,7.12l10.074,0.876c-5.291,2.363-11.515,7.245-15.813,11.514"/>
	<path fill="#010101" d="M268.583,220.188c0.475-6.039,0.176-13.945-1.445-19.51"/>
</g>
<g>
	<path d="M511.737,269.059v-12.136h1.729l3.872,6.14c0.882,1.422,1.603,2.701,2.16,3.943l0.054-0.018
		c-0.144-1.62-0.18-3.097-0.18-4.987v-5.078h1.476v12.136h-1.584l-3.854-6.158c-0.846-1.351-1.656-2.737-2.25-4.051l-0.055,0.018
		c0.09,1.53,0.107,2.989,0.107,5.005v5.186H511.737L511.737,269.059z"/>
	<path d="M533.952,262.865c0,4.159-2.538,6.392-5.636,6.392c-3.224,0-5.455-2.503-5.455-6.176c0-3.853,2.377-6.374,5.617-6.374
		C531.81,256.708,533.952,259.246,533.952,262.865z M524.518,263.045c0,2.611,1.404,4.933,3.89,4.933c2.484,0,3.89-2.287,3.89-5.041
		c0-2.431-1.261-4.952-3.871-4.952C525.816,257.985,524.518,260.398,524.518,263.045z"/>
	<path d="M537.838,258.256h-3.69v-1.333h8.984v1.333h-3.709v10.803h-1.585V258.256z"/>
	<path d="M546.046,256.923v12.136h-1.585v-12.136H546.046z"/>
	<path d="M548.764,256.923h6.535v1.314h-4.951v4.033h4.574v1.296h-4.574v5.492h-1.584V256.923z"/>
	<path d="M560.248,269.059v-5.149l-3.854-6.986h1.802l1.711,3.349c0.449,0.918,0.828,1.656,1.206,2.503h0.036
		c0.323-0.792,0.756-1.584,1.225-2.503l1.746-3.349h1.765l-4.052,6.968v5.167H560.248z"/>
	<path d="M525.435,288.259c-0.304-0.304-0.593-0.624-1.009-1.041c-0.928,0.849-1.952,1.217-3.151,1.217
		c-2.099,0-3.314-1.409-3.314-3.025c0-1.473,0.881-2.481,2.113-3.153v-0.048c-0.562-0.705-0.896-1.505-0.896-2.257
		c0-1.329,0.945-2.673,2.737-2.673c1.345,0,2.386,0.88,2.386,2.289c0,1.136-0.656,2.033-2.369,2.881v0.064
		c0.912,1.056,1.938,2.225,2.625,2.993c0.496-0.752,0.832-1.793,1.04-3.153h1.28c-0.288,1.697-0.752,3.041-1.553,3.985
		c0.576,0.625,1.137,1.232,1.776,1.921H525.435z M523.738,286.402c-0.642-0.704-1.842-2.017-3.041-3.409
		c-0.594,0.384-1.394,1.057-1.394,2.209c0,1.232,0.912,2.177,2.226,2.177C522.441,287.379,523.226,286.963,523.738,286.402z
		 M520.457,279.808c0,0.785,0.367,1.377,0.816,1.953c1.088-0.625,1.791-1.201,1.791-2.129c0-0.656-0.367-1.393-1.265-1.393
		C520.921,278.239,520.457,278.976,520.457,279.808z"/>
	<path d="M531.736,277.471h1.408v9.62h4.608v1.168h-6.018L531.736,277.471L531.736,277.471z"/>
	<path d="M547.898,282.753c0,3.698-2.257,5.683-5.011,5.683c-2.864,0-4.85-2.225-4.85-5.49c0-3.426,2.113-5.667,4.994-5.667
		C545.994,277.279,547.898,279.536,547.898,282.753z M539.512,282.913c0,2.321,1.248,4.386,3.457,4.386s3.458-2.033,3.458-4.482
		c0-2.161-1.12-4.401-3.44-4.401C540.665,278.416,539.512,280.56,539.512,282.913z"/>
	<path d="M557.932,287.779c-0.625,0.24-1.873,0.592-3.33,0.592c-1.633,0-2.977-0.416-4.032-1.424
		c-0.93-0.896-1.505-2.337-1.505-4.018c0-3.217,2.226-5.57,5.843-5.57c1.248,0,2.239,0.272,2.705,0.496l-0.354,1.137
		c-0.576-0.272-1.296-0.464-2.385-0.464c-2.625,0-4.338,1.633-4.338,4.338c0,2.737,1.633,4.354,4.161,4.354
		c0.913,0,1.537-0.128,1.856-0.288v-3.217h-2.177v-1.121h3.554L557.932,287.779L557.932,287.779z"/>
</g>
<g>
	<path d="M610.508,385.875h1.408v9.619h4.609v1.17h-6.019L610.508,385.875L610.508,385.875z"/>
	<path d="M624.814,392.727c0,2.865-2,4.113-3.857,4.113c-2.081,0-3.713-1.537-3.713-3.986c0-2.575,1.712-4.098,3.841-4.098
		C623.311,388.756,624.814,390.373,624.814,392.727z M618.684,392.807c0,1.695,0.961,2.978,2.339,2.978
		c1.344,0,2.353-1.265,2.353-3.01c0-1.312-0.656-2.962-2.321-2.962C619.404,389.812,618.684,391.35,618.684,392.807z"/>
	<path d="M633.214,395.527c0,1.793-0.368,2.864-1.104,3.553c-0.769,0.688-1.856,0.93-2.833,0.93c-0.93,0-1.952-0.225-2.577-0.641
		l0.353-1.09c0.514,0.338,1.312,0.625,2.272,0.625c1.44,0,2.498-0.752,2.498-2.722v-0.848h-0.033
		c-0.416,0.719-1.264,1.295-2.465,1.295c-1.92,0-3.297-1.633-3.297-3.776c0-2.625,1.713-4.099,3.506-4.099
		c1.344,0,2.063,0.689,2.416,1.328h0.031l0.049-1.168h1.249c-0.049,0.545-0.064,1.186-0.064,2.113L633.214,395.527L633.214,395.527z
		 M631.806,391.975c0-0.239-0.017-0.448-0.08-0.625c-0.257-0.832-0.929-1.504-1.969-1.504c-1.345,0-2.306,1.136-2.306,2.929
		c0,1.521,0.785,2.784,2.289,2.784c0.881,0,1.665-0.543,1.953-1.438c0.08-0.24,0.111-0.514,0.111-0.752L631.806,391.975
		L631.806,391.975z"/>
</g>
<g>
	<g>
		<line fill="none" stroke="#010101" stroke-width="2" x1="460.895" y1="217.003" x2="377.838" y2="141.117"/>
		<g>
			<path fill="#010101" d="M368.709,133.222c5.674,2.121,13.355,4.012,19.152,3.988l-8.824,4.943l-3.619,9.442
				C374.605,145.858,371.627,138.529,368.709,133.222z"/>
		</g>
	</g>
</g>
<line fill="none" stroke="#010101" stroke-width="2" x1="461.9" y1="379.126" x2="460.497" y2="215.261"/>
<circle fill="#FFFFFF" stroke="#010101" stroke-width="2" cx="543.373" cy="525.374" r="46.639"/>
<g>
	<path d="M529.006,507.256h-3.69v-1.332h8.983v1.332h-3.709v10.803h-1.584V507.256L529.006,507.256z"/>
	<path d="M541.912,512.369h-4.699v4.375h5.258v1.313h-6.842v-12.135h6.572v1.314h-4.988v3.835h4.699V512.369L541.912,512.369z"/>
	<path d="M544.305,516.15c0.702,0.449,1.711,0.793,2.791,0.793c1.603,0,2.539-0.848,2.539-2.071c0-1.116-0.647-1.782-2.287-2.396
		c-1.979-0.72-3.205-1.765-3.205-3.456c0-1.892,1.566-3.296,3.927-3.296c1.224,0,2.143,0.288,2.664,0.595l-0.433,1.277
		c-0.379-0.233-1.188-0.575-2.287-0.575c-1.655,0-2.287,0.989-2.287,1.817c0,1.135,0.738,1.693,2.413,2.342
		c2.054,0.791,3.079,1.781,3.079,3.564c0,1.873-1.369,3.512-4.23,3.512c-1.171,0-2.448-0.36-3.098-0.793L544.305,516.15z"/>
	<path d="M555.682,507.256h-3.69v-1.332h8.983v1.332h-3.709v10.803h-1.584V507.256L555.682,507.256z"/>
	<path d="M505.583,524.471c0.503-0.084,1.163-0.154,2.003-0.154c1.031,0,1.787,0.238,2.267,0.672
		c0.433,0.384,0.708,0.972,0.708,1.689c0,0.732-0.217,1.309-0.623,1.729c-0.563,0.587-1.451,0.888-2.472,0.888
		c-0.312,0-0.6-0.012-0.839-0.072v3.238h-1.044V524.471z M506.627,528.369c0.227,0.061,0.516,0.084,0.863,0.084
		c1.259,0,2.025-0.623,2.025-1.715c0-1.08-0.768-1.597-1.906-1.597c-0.455,0-0.804,0.037-0.982,0.084V528.369z"/>
	<path d="M516.141,528.669h-3.131v2.915h3.502v0.875h-4.557v-8.084h4.377v0.876h-3.322v2.555h3.131V528.669z"/>
	<path d="M517.871,524.483c0.527-0.098,1.295-0.169,2.002-0.169c1.115,0,1.848,0.217,2.339,0.659
		c0.396,0.36,0.636,0.912,0.636,1.548c0,1.057-0.672,1.764-1.512,2.052v0.036c0.612,0.216,0.984,0.791,1.176,1.631
		c0.265,1.127,0.456,1.905,0.624,2.219h-1.079c-0.133-0.24-0.312-0.924-0.527-1.932c-0.239-1.115-0.685-1.535-1.631-1.57h-0.983
		v3.502h-1.043L517.871,524.483L517.871,524.483z M518.914,528.166h1.067c1.114,0,1.822-0.612,1.822-1.535
		c0-1.044-0.756-1.5-1.858-1.5c-0.504,0-0.853,0.036-1.031,0.084V528.166z"/>
	<path d="M524.314,524.375h4.354v0.876h-3.298v2.687h3.046v0.863h-3.046v3.658h-1.056V524.375z"/>
	<path d="M537.079,528.333c0,2.771-1.691,4.258-3.754,4.258c-2.147,0-3.634-1.667-3.634-4.114c0-2.565,1.583-4.244,3.741-4.244
		C535.652,524.231,537.079,525.922,537.079,528.333z M530.795,528.453c0,1.739,0.936,3.286,2.59,3.286
		c1.655,0,2.591-1.522,2.591-3.358c0-1.619-0.839-3.298-2.578-3.298S530.795,526.689,530.795,528.453z"/>
	<path d="M538.439,524.483c0.526-0.098,1.295-0.169,2.002-0.169c1.114,0,1.848,0.217,2.339,0.659
		c0.396,0.36,0.636,0.912,0.636,1.548c0,1.057-0.672,1.764-1.512,2.052v0.036c0.611,0.216,0.983,0.791,1.176,1.631
		c0.264,1.127,0.456,1.905,0.624,2.219h-1.079c-0.133-0.24-0.312-0.924-0.528-1.932c-0.238-1.115-0.684-1.535-1.631-1.57h-0.982
		v3.502h-1.043L538.439,524.483L538.439,524.483z M539.482,528.166h1.066c1.115,0,1.823-0.612,1.823-1.535
		c0-1.044-0.756-1.5-1.859-1.5c-0.504,0-0.852,0.036-1.03,0.084V528.166z"/>
	<path d="M551.707,528.909c-0.061-1.128-0.133-2.495-0.133-3.49h-0.023c-0.288,0.937-0.611,1.955-1.02,3.07l-1.429,3.922h-0.791
		l-1.318-3.852c-0.384-1.149-0.695-2.182-0.923-3.142h-0.024c-0.023,1.007-0.084,2.351-0.156,3.573l-0.216,3.467h-0.995l0.563-8.084
		h1.331l1.38,3.91c0.336,0.996,0.6,1.883,0.813,2.723h0.025c0.215-0.814,0.503-1.703,0.863-2.723l1.438-3.91h1.33l0.504,8.084h-1.03
		L551.707,528.909z"/>
	<path d="M555.729,529.916l-0.839,2.543h-1.08l2.759-8.084h1.248l2.758,8.084h-1.115l-0.863-2.543H555.729z M558.393,529.101
		l-0.805-2.326c-0.18-0.527-0.299-1.008-0.419-1.476h-0.024c-0.118,0.468-0.239,0.973-0.407,1.463l-0.791,2.339H558.393z"/>
	<path d="M561.767,532.459v-8.084h1.151l2.578,4.09c0.588,0.947,1.068,1.799,1.439,2.627l0.035-0.012
		c-0.097-1.08-0.119-2.062-0.119-3.322v-3.383h0.982v8.084h-1.056l-2.566-4.102c-0.562-0.9-1.104-1.823-1.499-2.699l-0.036,0.013
		c0.062,1.02,0.072,1.991,0.072,3.334v3.454H561.767z"/>
	<path d="M575.299,532.207c-0.371,0.191-1.149,0.384-2.135,0.384c-2.278,0-3.981-1.438-3.981-4.102c0-2.542,1.717-4.245,4.223-4.245
		c0.996,0,1.643,0.215,1.919,0.358l-0.265,0.853c-0.384-0.192-0.947-0.336-1.618-0.336c-1.896,0-3.154,1.211-3.154,3.334
		c0,1.991,1.14,3.25,3.095,3.25c0.647,0,1.295-0.132,1.715-0.336L575.299,532.207z"/>
	<path d="M580.796,528.669h-3.13v2.915h3.502v0.875h-4.559v-8.084h4.378v0.876h-3.321v2.555h3.13V528.669z"/>
</g>
<g>
	<g>
		<line fill="none" stroke="#010101" stroke-width="2" x1="554.97" y1="476.979" x2="600.855" y2="423.923"/>
		<g>
			<path fill="#010101" d="M608.751,414.794c-2.121,5.674-4.012,13.355-3.988,19.152l-4.942-8.824l-9.442-3.619
				C596.114,420.69,603.443,417.712,608.751,414.794z"/>
		</g>
	</g>
</g>
<g>
	<g>
		<line fill="none" stroke="#010101" stroke-width="2" x1="482.827" y1="414.012" x2="523.753" y2="469.088"/>
		<g>
			<path fill="#010101" d="M530.952,478.776c-5.079-3.304-12.168-6.813-17.83-8.05l9.687-2.911l5.582-8.434
				C527.938,465.161,529.255,472.962,530.952,478.776z"/>
		</g>
	</g>
</g>
<g>
	<path d="M635.844,579.266c0,1.72-1.317,3.099-3.008,3.099c-1.699,0-3.038-1.379-3.038-3.099c0-1.698,1.339-3.078,3.048-3.078
		C634.525,576.188,635.844,577.566,635.844,579.266z M630.297,579.295c0,1.49,1.1,2.658,2.539,2.658
		c1.409,0.021,2.509-1.168,2.509-2.688c0-1.489-1.1-2.668-2.519-2.668C631.396,576.598,630.297,577.775,630.297,579.295z
		 M634.056,578.127c-0.13-0.07-0.5-0.229-0.97-0.229c-0.938,0-1.398,0.6-1.398,1.397c0,0.779,0.488,1.41,1.408,1.41
		c0.4,0,0.779-0.111,1.011-0.26l0.12,0.379c-0.352,0.229-0.811,0.311-1.229,0.311c-1.16,0-1.829-0.801-1.829-1.809
		c0-1.142,0.899-1.859,1.909-1.859c0.52,0,0.959,0.15,1.1,0.271L634.056,578.127z"/>
	<path d="M636.658,582.664v-0.541l0.688-0.668c1.658-1.58,2.418-2.42,2.418-3.398c0-0.66-0.31-1.27-1.278-1.27
		c-0.59,0-1.079,0.299-1.379,0.549l-0.279-0.619c0.439-0.369,1.089-0.66,1.828-0.66c1.398,0,1.989,0.961,1.989,1.89
		c0,1.2-0.87,2.17-2.239,3.487l-0.51,0.48v0.02h2.908v0.73H636.658L636.658,582.664z"/>
	<path d="M646.115,579.346c0,2.209-0.83,3.429-2.259,3.429c-1.27,0-2.14-1.189-2.159-3.339c0-2.188,0.949-3.379,2.27-3.379
		C645.326,576.057,646.115,577.277,646.115,579.346z M642.588,579.445c0,1.688,0.521,2.647,1.318,2.647
		c0.89,0,1.318-1.049,1.318-2.709c0-1.598-0.398-2.647-1.318-2.647C643.146,576.736,642.588,577.676,642.588,579.445z"/>
	<path d="M648.826,576.986h-0.021l-1.129,0.608l-0.17-0.67l1.418-0.758h0.75v6.496h-0.85L648.826,576.986L648.826,576.986z"/>
	<path d="M653.246,579.246c-0.729-0.34-1.039-0.9-1.039-1.459c0-1.031,0.869-1.73,2.019-1.73c1.26,0,1.899,0.779,1.899,1.601
		c0,0.549-0.28,1.149-1.08,1.52v0.029c0.811,0.32,1.31,0.9,1.31,1.68c0,1.14-0.97,1.89-2.208,1.89c-1.358,0-2.18-0.8-2.18-1.748
		c0-0.82,0.49-1.41,1.289-1.75L653.246,579.246z M655.465,580.975c0-0.778-0.549-1.17-1.43-1.42
		c-0.759,0.222-1.168,0.73-1.168,1.351c-0.031,0.649,0.469,1.229,1.299,1.229C654.955,582.135,655.465,581.645,655.465,580.975z
		 M653.047,577.727c-0.01,0.648,0.489,1,1.238,1.199c0.561-0.188,0.99-0.59,0.99-1.18c0-0.521-0.312-1.06-1.101-1.06
		C653.446,576.688,653.047,577.166,653.047,577.727z"/>
	<path d="M660.977,575.928h0.88v4.508c0,1.789-0.88,2.339-2.039,2.339c-0.33,0-0.72-0.07-0.931-0.16l0.121-0.709
		c0.18,0.069,0.439,0.129,0.738,0.129c0.78,0,1.229-0.351,1.229-1.668L660.977,575.928L660.977,575.928z"/>
	<path d="M663.767,580.404c0.021,1.188,0.771,1.68,1.659,1.68c0.63,0,1.021-0.109,1.34-0.25l0.159,0.629
		c-0.31,0.141-0.85,0.312-1.619,0.312c-1.488,0-2.378-0.99-2.378-2.449s0.859-2.599,2.269-2.599c1.59,0,2,1.38,2,2.269
		c0,0.182-0.011,0.311-0.03,0.41L663.767,580.404L663.767,580.404z M666.346,579.775c0.011-0.552-0.229-1.42-1.22-1.42
		c-0.899,0-1.279,0.811-1.349,1.42H666.346z"/>
	<path d="M668.287,579.336c0-0.57-0.01-1.061-0.041-1.51h0.77l0.041,0.959h0.029c0.221-0.648,0.76-1.06,1.35-1.06
		c0.091,0,0.16,0.011,0.24,0.021v0.83c-0.09-0.021-0.18-0.021-0.301-0.021c-0.619,0-1.059,0.459-1.179,1.119
		c-0.021,0.119-0.03,0.271-0.03,0.41v2.578h-0.879V579.336L668.287,579.336z"/>
	<path d="M671.946,580.404c0.021,1.188,0.77,1.68,1.659,1.68c0.63,0,1.02-0.109,1.34-0.25l0.158,0.629
		c-0.31,0.141-0.85,0.312-1.618,0.312c-1.489,0-2.378-0.99-2.378-2.449s0.858-2.599,2.268-2.599c1.59,0,2,1.38,2,2.269
		c0,0.182-0.01,0.311-0.03,0.41L671.946,580.404L671.946,580.404z M674.525,579.775c0.01-0.552-0.23-1.42-1.221-1.42
		c-0.898,0-1.278,0.811-1.349,1.42H674.525z"/>
	<path d="M676.467,579.135c0-0.51-0.021-0.908-0.041-1.309h0.771l0.041,0.789h0.028c0.271-0.459,0.721-0.89,1.529-0.89
		c0.65,0,1.149,0.4,1.359,0.97h0.02c0.15-0.279,0.352-0.479,0.551-0.629c0.289-0.222,0.601-0.341,1.06-0.341
		c0.649,0,1.6,0.42,1.6,2.099v2.84h-0.858v-2.729c0-0.938-0.351-1.489-1.051-1.489c-0.51,0-0.89,0.371-1.05,0.791
		c-0.039,0.129-0.068,0.278-0.068,0.438v2.988h-0.86v-2.898c0-0.77-0.34-1.319-1.009-1.319c-0.54,0-0.95,0.438-1.089,0.881
		c-0.052,0.119-0.07,0.279-0.07,0.43v2.908h-0.859v-3.529H676.467z"/>
	<path d="M684.996,577.826l1.05,2.858c0.12,0.318,0.24,0.699,0.319,0.988h0.021c0.091-0.289,0.19-0.66,0.311-1.01l0.96-2.838h0.929
		l-1.318,3.446c-0.63,1.66-1.06,2.5-1.658,3.029c-0.44,0.369-0.86,0.521-1.079,0.562l-0.222-0.73c0.222-0.07,0.511-0.209,0.771-0.43
		c0.24-0.189,0.53-0.529,0.74-0.98c0.04-0.09,0.069-0.157,0.069-0.209c0-0.051-0.021-0.119-0.069-0.229l-1.779-4.457H684.996
		L684.996,577.826z"/>
	<path d="M691.537,576.027c0.529-0.091,1.158-0.15,1.848-0.15c1.25,0,2.141,0.301,2.729,0.84c0.609,0.549,0.96,1.33,0.96,2.418
		c0,1.101-0.351,2-0.97,2.619c-0.64,0.629-1.68,0.969-2.988,0.969c-0.629,0-1.139-0.028-1.578-0.078L691.537,576.027
		L691.537,576.027z M692.406,581.984c0.22,0.028,0.539,0.039,0.879,0.039c1.869,0,2.869-1.039,2.869-2.857
		c0.01-1.59-0.892-2.6-2.729-2.6c-0.45,0-0.79,0.041-1.02,0.09L692.406,581.984L692.406,581.984z"/>
	<path d="M702.584,580.205c0,1.789-1.25,2.568-2.408,2.568c-1.3,0-2.318-0.959-2.318-2.488c0-1.609,1.068-2.56,2.397-2.56
		C701.645,577.727,702.584,578.736,702.584,580.205z M698.756,580.256c0,1.06,0.6,1.857,1.459,1.857c0.84,0,1.469-0.789,1.469-1.879
		c0-0.818-0.408-1.849-1.448-1.849C699.205,578.387,698.756,579.346,698.756,580.256z"/>
	<path d="M703.696,579.135c0-0.51-0.011-0.908-0.04-1.309h0.778l0.052,0.799h0.02c0.24-0.449,0.8-0.898,1.601-0.898
		c0.67,0,1.709,0.4,1.709,2.06v2.879h-0.881v-2.789c0-0.779-0.29-1.43-1.118-1.43c-0.569,0-1.021,0.41-1.181,0.899
		c-0.04,0.109-0.06,0.261-0.06,0.41v2.908h-0.88V579.135z"/>
	<path d="M709.127,581.773c0.271,0.159,0.729,0.34,1.168,0.34c0.631,0,0.93-0.31,0.93-0.719c0-0.421-0.25-0.642-0.889-0.88
		c-0.88-0.319-1.289-0.791-1.289-1.368c0-0.781,0.639-1.421,1.668-1.421c0.49,0,0.92,0.13,1.181,0.3l-0.209,0.641
		c-0.19-0.121-0.541-0.291-0.99-0.291c-0.521,0-0.799,0.301-0.799,0.66c0,0.399,0.278,0.58,0.907,0.83
		c0.83,0.311,1.271,0.729,1.271,1.449c0,0.858-0.67,1.459-1.799,1.459c-0.529,0-1.021-0.142-1.359-0.341L709.127,581.773z"/>
	<path d="M717.584,580.205c0,1.789-1.25,2.568-2.408,2.568c-1.3,0-2.318-0.959-2.318-2.488c0-1.609,1.068-2.56,2.397-2.56
		C716.645,577.727,717.584,578.736,717.584,580.205z M713.756,580.256c0,1.06,0.6,1.857,1.459,1.857c0.84,0,1.469-0.789,1.469-1.879
		c0-0.818-0.408-1.849-1.448-1.849C714.205,578.387,713.756,579.346,713.756,580.256z"/>
	<path d="M718.696,579.135c0-0.51-0.011-0.908-0.04-1.309h0.778l0.052,0.799h0.02c0.24-0.449,0.8-0.898,1.601-0.898
		c0.67,0,1.709,0.4,1.709,2.06v2.879h-0.881v-2.789c0-0.779-0.29-1.43-1.118-1.43c-0.569,0-1.021,0.41-1.181,0.899
		c-0.04,0.109-0.06,0.261-0.06,0.41v2.908h-0.88V579.135z"/>
	<path d="M723.676,583.902c0.222-0.601,0.49-1.668,0.602-2.398l0.979-0.1c-0.24,0.85-0.68,1.959-0.959,2.428L723.676,583.902z"/>
	<path d="M728.466,582.664v-6.736h0.96l2.148,3.408c0.489,0.789,0.889,1.498,1.199,2.188l0.028-0.011
		c-0.08-0.897-0.1-1.719-0.1-2.768v-2.818h0.82v6.736h-0.881l-2.14-3.418c-0.469-0.75-0.919-1.521-1.248-2.25l-0.031,0.01
		c0.052,0.85,0.062,1.66,0.062,2.779v2.879H728.466z"/>
	<path d="M736.475,582.664v-2.859l-2.139-3.877h1l0.949,1.859c0.25,0.51,0.46,0.918,0.67,1.389h0.02
		c0.181-0.438,0.42-0.879,0.681-1.389l0.97-1.859h0.979l-2.249,3.867v2.869H736.475z"/>
	<path d="M744.723,582.453c-0.31,0.16-0.959,0.32-1.778,0.32c-1.898,0-3.317-1.199-3.317-3.418c0-2.119,1.429-3.539,3.52-3.539
		c0.828,0,1.368,0.182,1.599,0.301l-0.22,0.709c-0.32-0.16-0.789-0.279-1.351-0.279c-1.579,0-2.629,1.01-2.629,2.779
		c0,1.658,0.95,2.707,2.579,2.707c0.54,0,1.079-0.109,1.429-0.279L744.723,582.453z"/>
	<path d="M749.545,576.986h-0.02l-1.131,0.608l-0.17-0.67l1.419-0.758h0.75v6.496h-0.85L749.545,576.986L749.545,576.986z"/>
	<path d="M757.094,579.346c0,2.209-0.83,3.429-2.26,3.429c-1.269,0-2.139-1.189-2.158-3.339c0-2.188,0.949-3.379,2.27-3.379
		C756.304,576.057,757.094,577.277,757.094,579.346z M753.565,579.445c0,1.688,0.52,2.647,1.318,2.647
		c0.89,0,1.318-1.049,1.318-2.709c0-1.598-0.398-2.647-1.318-2.647C754.125,576.736,753.565,577.676,753.565,579.445z"/>
	<path d="M762.223,579.346c0,2.209-0.828,3.429-2.258,3.429c-1.27,0-2.139-1.189-2.159-3.339c0-2.188,0.949-3.379,2.27-3.379
		C761.434,576.057,762.223,577.277,762.223,579.346z M758.695,579.445c0,1.688,0.52,2.647,1.317,2.647
		c0.892,0,1.32-1.049,1.32-2.709c0-1.598-0.4-2.647-1.32-2.647C759.255,576.736,758.695,577.676,758.695,579.445z"/>
	<path d="M763.025,582.664v-0.541l0.688-0.668c1.659-1.58,2.419-2.42,2.419-3.398c0-0.66-0.31-1.27-1.278-1.27
		c-0.591,0-1.079,0.299-1.381,0.549l-0.278-0.619c0.438-0.369,1.09-0.66,1.829-0.66c1.398,0,1.988,0.961,1.988,1.89
		c0,1.2-0.87,2.17-2.238,3.487l-0.511,0.48v0.02h2.909v0.73H763.025L763.025,582.664z"/>
	<path d="M772.373,576.168v0.578l-2.828,5.918h-0.91l2.818-5.748v-0.02h-3.178v-0.729L772.373,576.168L772.373,576.168z"/>
	<path d="M684.855,596.082c0.409-0.029,0.75-0.139,0.96-0.379c0.239-0.271,0.34-0.65,0.34-1.81v-4.067h0.88v4.408
		c0,0.938-0.15,1.549-0.58,1.987c-0.39,0.392-1.029,0.549-1.499,0.549L684.855,596.082z M687.135,588.467
		c0,0.289-0.199,0.539-0.56,0.539c-0.319,0-0.53-0.25-0.53-0.539c0-0.299,0.221-0.549,0.551-0.549
		C686.925,587.918,687.135,588.168,687.135,588.467z"/>
	<path d="M687.286,596.082c0.41-0.029,0.75-0.139,0.96-0.379c0.24-0.271,0.34-0.65,0.34-1.81v-4.067h0.879v4.408
		c0,0.938-0.148,1.549-0.58,1.987c-0.389,0.392-1.028,0.549-1.498,0.549L687.286,596.082z M689.564,588.467
		c0,0.289-0.199,0.539-0.56,0.539c-0.32,0-0.53-0.25-0.53-0.539c0-0.299,0.221-0.549,0.551-0.549S689.564,588.168,689.564,588.467z"
		/>
	<path d="M695.073,587.568v5.846c0,0.43,0.021,0.92,0.04,1.25h-0.779l-0.041-0.84h-0.029c-0.26,0.539-0.84,0.949-1.629,0.949
		c-1.17,0-2.079-0.99-2.079-2.459c-0.011-1.609,0.999-2.589,2.169-2.589c0.75,0,1.239,0.351,1.459,0.729h0.021v-2.887H695.073
		L695.073,587.568z M694.203,591.795c0-0.109-0.01-0.26-0.039-0.369c-0.131-0.551-0.61-1.01-1.271-1.01
		c-0.909,0-1.448,0.799-1.448,1.859c0,0.979,0.489,1.789,1.43,1.789c0.589,0,1.129-0.4,1.289-1.052
		c0.029-0.119,0.039-0.237,0.039-0.379V591.795z"/>
	<path d="M700.924,592.205c0,1.789-1.25,2.568-2.409,2.568c-1.3,0-2.318-0.959-2.318-2.488c0-1.609,1.069-2.56,2.397-2.56
		C699.983,589.727,700.924,590.736,700.924,592.205z M697.096,592.256c0,1.06,0.601,1.857,1.459,1.857c0.84,0,1.47-0.789,1.47-1.879
		c0-0.818-0.41-1.849-1.449-1.849C697.545,590.387,697.096,591.346,697.096,592.256z"/>
	<path d="M702.035,591.135c0-0.51-0.01-0.908-0.04-1.309h0.78l0.049,0.799h0.021c0.239-0.449,0.8-0.898,1.6-0.898
		c0.67,0,1.709,0.4,1.709,2.06v2.879h-0.879v-2.789c0-0.779-0.289-1.43-1.119-1.43c-0.57,0-1.021,0.41-1.181,0.899
		c-0.04,0.109-0.061,0.261-0.061,0.41v2.908h-0.879V591.135z"/>
	<path d="M707.465,593.773c0.271,0.159,0.73,0.34,1.17,0.34c0.629,0,0.931-0.31,0.931-0.719c0-0.421-0.25-0.642-0.892-0.88
		c-0.879-0.319-1.289-0.791-1.289-1.368c0-0.781,0.642-1.421,1.67-1.421c0.489,0,0.919,0.13,1.18,0.3l-0.21,0.641
		c-0.189-0.121-0.539-0.291-0.989-0.291c-0.521,0-0.8,0.301-0.8,0.66c0,0.399,0.279,0.58,0.909,0.83
		c0.829,0.311,1.271,0.729,1.271,1.449c0,0.858-0.67,1.459-1.799,1.459c-0.53,0-1.021-0.142-1.359-0.341L707.465,593.773z"/>
	<path d="M715.923,592.205c0,1.789-1.249,2.568-2.409,2.568c-1.299,0-2.317-0.959-2.317-2.488c0-1.609,1.068-2.56,2.397-2.56
		C714.982,589.727,715.923,590.736,715.923,592.205z M712.095,592.256c0,1.06,0.601,1.857,1.459,1.857c0.84,0,1.47-0.789,1.47-1.879
		c0-0.818-0.409-1.849-1.448-1.849C712.545,590.387,712.095,591.346,712.095,592.256z"/>
	<path d="M717.035,591.135c0-0.51-0.01-0.908-0.04-1.309h0.78l0.049,0.799h0.021c0.239-0.449,0.8-0.898,1.6-0.898
		c0.67,0,1.709,0.4,1.709,2.06v2.879h-0.879v-2.789c0-0.779-0.289-1.43-1.119-1.43c-0.57,0-1.021,0.41-1.181,0.899
		c-0.04,0.109-0.061,0.261-0.061,0.41v2.908h-0.879V591.135z"/>
	<path d="M727.093,595.312c-0.55,0.291-1.108,0.399-1.778,0.399c-1.641,0-3.028-1.199-3.028-3.129c0-2.059,1.43-3.848,3.647-3.848
		c1.738,0,2.898,1.229,2.898,2.897c0,1.5-0.84,2.379-1.77,2.379c-0.4,0-0.771-0.26-0.75-0.879h-0.029
		c-0.351,0.59-0.811,0.879-1.409,0.879c-0.58,0-1.079-0.469-1.079-1.26c0-1.238,0.979-2.367,2.368-2.367
		c0.42,0,0.81,0.09,1.069,0.209l-0.341,1.81c-0.149,0.76-0.028,1.108,0.301,1.119c0.51,0.021,1.078-0.669,1.078-1.818
		c0-1.459-0.868-2.508-2.418-2.508c-1.629,0-2.998,1.299-2.998,3.328c0,1.668,1.09,2.707,2.568,2.707c0.569,0,1.1-0.119,1.509-0.351
		L727.093,595.312z M726.543,590.996c-0.1-0.041-0.27-0.08-0.5-0.08c-0.879,0-1.589,0.83-1.589,1.799c0,0.439,0.22,0.76,0.659,0.76
		c0.58,0,1.108-0.739,1.22-1.358L726.543,590.996z"/>
	<path d="M734.093,593.953c0,1.121-0.229,1.789-0.688,2.219c-0.479,0.43-1.159,0.58-1.77,0.58c-0.58,0-1.22-0.139-1.608-0.398
		l0.22-0.68c0.318,0.209,0.818,0.389,1.419,0.389c0.9,0,1.559-0.469,1.559-1.698v-0.529h-0.02c-0.26,0.449-0.789,0.812-1.539,0.812
		c-1.199,0-2.06-1.021-2.06-2.359c0-1.639,1.069-2.56,2.188-2.56c0.84,0,1.29,0.431,1.509,0.83h0.021l0.029-0.729h0.779
		c-0.029,0.34-0.04,0.74-0.04,1.32V593.953L734.093,593.953z M733.213,591.734c0-0.148-0.01-0.279-0.049-0.39
		c-0.16-0.52-0.58-0.938-1.23-0.938c-0.839,0-1.438,0.709-1.438,1.828c0,0.948,0.489,1.739,1.429,1.739
		c0.55,0,1.039-0.34,1.22-0.899c0.051-0.15,0.069-0.32,0.069-0.469L733.213,591.734L733.213,591.734z"/>
	<path d="M735.484,591.135c0-0.51-0.021-0.908-0.039-1.309h0.77l0.039,0.789h0.031c0.27-0.459,0.719-0.89,1.528-0.89
		c0.648,0,1.148,0.4,1.358,0.97h0.021c0.148-0.279,0.35-0.479,0.549-0.629c0.291-0.222,0.6-0.341,1.061-0.341
		c0.648,0,1.6,0.42,1.6,2.099v2.84h-0.86v-2.729c0-0.938-0.35-1.489-1.049-1.489c-0.51,0-0.89,0.371-1.049,0.791
		c-0.041,0.129-0.07,0.278-0.07,0.438v2.988h-0.859v-2.898c0-0.77-0.34-1.319-1.01-1.319c-0.539,0-0.949,0.438-1.09,0.881
		c-0.05,0.119-0.069,0.279-0.069,0.43v2.908h-0.859v-3.529H735.484z"/>
	<path d="M747.223,593.504c0,0.42,0.021,0.83,0.07,1.16h-0.789l-0.07-0.609h-0.029c-0.271,0.379-0.79,0.72-1.479,0.72
		c-0.979,0-1.479-0.689-1.479-1.39c0-1.17,1.039-1.809,2.907-1.799v-0.102c0-0.39-0.108-1.119-1.1-1.109
		c-0.459,0-0.93,0.131-1.27,0.361l-0.199-0.59c0.398-0.25,0.989-0.421,1.599-0.421c1.479,0,1.839,1.011,1.839,1.97V593.504z
		 M746.373,592.195c-0.959-0.021-2.049,0.149-2.049,1.09c0,0.578,0.38,0.838,0.819,0.838c0.64,0,1.05-0.398,1.189-0.809
		c0.029-0.101,0.039-0.199,0.039-0.279L746.373,592.195L746.373,592.195z"/>
	<path d="M749.625,588.467c0,0.301-0.211,0.539-0.561,0.539c-0.319,0-0.529-0.238-0.529-0.539c0-0.299,0.22-0.549,0.55-0.549
		C749.404,587.918,749.625,588.156,749.625,588.467z M748.645,594.664v-4.838h0.881v4.838H748.645z"/>
	<path d="M750.984,587.568h0.88v7.096h-0.88V587.568z"/>
	<path d="M753.035,594.145c0-0.36,0.25-0.631,0.6-0.631c0.351,0,0.59,0.261,0.59,0.631c0,0.359-0.239,0.63-0.608,0.63
		C753.275,594.773,753.035,594.504,753.035,594.145z"/>
	<path d="M758.763,594.494c-0.229,0.109-0.738,0.279-1.39,0.279c-1.459,0-2.408-0.99-2.408-2.47c0-1.487,1.021-2.578,2.6-2.578
		c0.52,0,0.979,0.13,1.22,0.261l-0.201,0.67c-0.209-0.111-0.539-0.23-1.019-0.23c-1.109,0-1.709,0.83-1.709,1.83
		c0,1.119,0.72,1.81,1.679,1.81c0.5,0,0.83-0.121,1.08-0.23L758.763,594.494z"/>
	<path d="M764.113,592.205c0,1.789-1.25,2.568-2.409,2.568c-1.3,0-2.319-0.959-2.319-2.488c0-1.609,1.07-2.56,2.398-2.56
		C763.173,589.727,764.113,590.736,764.113,592.205z M760.285,592.256c0,1.06,0.6,1.857,1.459,1.857c0.84,0,1.469-0.789,1.469-1.879
		c0-0.818-0.41-1.849-1.449-1.849C760.734,590.387,760.285,591.346,760.285,592.256z"/>
	<path d="M765.225,591.135c0-0.51-0.02-0.908-0.04-1.309h0.771l0.04,0.789h0.03c0.27-0.459,0.72-0.89,1.527-0.89
		c0.65,0,1.15,0.4,1.359,0.97h0.021c0.149-0.279,0.352-0.479,0.551-0.629c0.289-0.222,0.6-0.341,1.06-0.341
		c0.649,0,1.599,0.42,1.599,2.099v2.84h-0.858v-2.729c0-0.938-0.351-1.489-1.049-1.489c-0.511,0-0.892,0.371-1.051,0.791
		c-0.039,0.129-0.068,0.278-0.068,0.438v2.988h-0.86v-2.898c0-0.77-0.34-1.319-1.009-1.319c-0.54,0-0.95,0.438-1.09,0.881
		c-0.051,0.119-0.07,0.279-0.07,0.43v2.908h-0.859v-3.529H765.225z"/>
</g>
<text transform="matrix(1 0 0 1 642.5 598.5)" font-family="'MyriadPro-Regular'" font-size="22"></text>
</svg>
