<?xml version="1.0" encoding="utf-8"?>
<!-- Generator: Adobe Illustrator 15.1.0, SVG Export Plug-In . SVG Version: 6.00 Build 0)  -->
<!DOCTYPE svg PUBLIC "-//W3C//DTD SVG 1.1//EN" "http://www.w3.org/Graphics/SVG/1.1/DTD/svg11.dtd">
<svg version="1.1" id="Layer_1" xmlns="http://www.w3.org/2000/svg" xmlns:xlink="http://www.w3.org/1999/xlink" x="0px" y="0px"
	 width="792px" height="612px" viewBox="0 0 792 612" enable-background="new 0 0 792 612" xml:space="preserve">
<rect x="453.496" y="246.16" fill="#FFFFFF" stroke="#000000" width="94.957" height="41.176"/>
<circle fill="#FFFFFF" stroke="#000000" stroke-width="2" cx="300.353" cy="133.58" r="46.639"/>
<circle fill="#FFFFFF" stroke="#000000" stroke-width="2" cx="436.353" cy="136.58" r="46.639"/>
<circle fill="#FFFFFF" stroke="#000000" stroke-width="2" cx="576.354" cy="136.58" r="46.639"/>
<g>
	<g>
		<line fill="none" stroke="#000000" stroke-width="2" x1="221.95" y1="236.185" x2="267.835" y2="183.129"/>
		<g>
			<path d="M275.731,174c-2.122,5.674-4.011,13.356-3.988,19.152l-4.944-8.824l-9.443-3.619
				C263.094,179.896,270.423,176.918,275.731,174z"/>
		</g>
	</g>
</g>
<g>
	<path d="M274.181,125.379c0.624,0.4,1.521,0.705,2.481,0.705c1.424,0,2.257-0.752,2.257-1.841c0-0.993-0.576-1.585-2.033-2.129
		c-1.761-0.64-2.849-1.569-2.849-3.073c0-1.681,1.393-2.929,3.489-2.929c1.088,0,1.905,0.256,2.369,0.528l-0.384,1.136
		c-0.336-0.208-1.057-0.512-2.033-0.512c-1.473,0-2.033,0.88-2.033,1.617c0,1.008,0.657,1.504,2.145,2.081
		c1.825,0.704,2.737,1.584,2.737,3.169c0,1.665-1.217,3.122-3.762,3.122c-1.041,0-2.177-0.32-2.753-0.705L274.181,125.379z"/>
	<path d="M283.637,116.287v6.403c0,2.401,1.073,3.425,2.513,3.425c1.584,0,2.625-1.056,2.625-3.425v-6.403h1.409v6.307
		c0,3.313-1.745,4.658-4.082,4.658c-2.209,0-3.874-1.249-3.874-4.61v-6.355H283.637z"/>
	<path d="M292.597,116.447c0.608-0.144,1.585-0.24,2.545-0.24c1.393,0,2.289,0.24,2.945,0.784c0.561,0.416,0.913,1.056,0.913,1.905
		c0,1.056-0.705,1.969-1.825,2.369v0.048c1.024,0.24,2.225,1.088,2.225,2.689c0,0.928-0.368,1.648-0.928,2.161
		c-0.736,0.688-1.953,1.009-3.713,1.009c-0.96,0-1.697-0.064-2.161-0.128V116.447z M293.989,120.865h1.265
		c1.457,0,2.321-0.784,2.321-1.825c0-1.249-0.944-1.761-2.353-1.761c-0.64,0-1.008,0.048-1.232,0.096V120.865z M293.989,126.019
		c0.288,0.048,0.672,0.064,1.168,0.064c1.441,0,2.77-0.528,2.77-2.097c0-1.457-1.265-2.081-2.785-2.081h-1.153V126.019z"/>
	<path d="M310.36,122.338c-0.08-1.505-0.176-3.33-0.176-4.658h-0.032c-0.384,1.249-0.816,2.609-1.36,4.098l-1.905,5.234h-1.057
		l-1.761-5.138c-0.512-1.537-0.928-2.913-1.232-4.194h-0.032c-0.032,1.345-0.112,3.138-0.208,4.77l-0.288,4.626h-1.329l0.752-10.789
		h1.777l1.841,5.218c0.448,1.329,0.8,2.513,1.088,3.633h0.032c0.288-1.088,0.672-2.272,1.153-3.633l1.92-5.218h1.777l0.672,10.789
		h-1.376L310.36,122.338z"/>
	<path d="M315.525,116.287v10.789h-1.408v-10.789H315.525z"/>
	<path d="M320.005,117.472h-3.281v-1.185h7.987v1.185h-3.297v9.604h-1.409V117.472z"/>
	<path d="M279.973,135.487h5.81v1.168h-4.402v3.585h4.066v1.153h-4.066v4.882h-1.408V135.487z"/>
	<path d="M297,140.77c0,3.698-2.257,5.683-5.01,5.683c-2.865,0-4.85-2.225-4.85-5.49c0-3.426,2.113-5.667,4.994-5.667
		C295.096,135.295,297,137.552,297,140.77z M288.613,140.93c0,2.321,1.249,4.386,3.458,4.386s3.458-2.033,3.458-4.482
		c0-2.161-1.121-4.401-3.441-4.401C289.766,136.432,288.613,138.577,288.613,140.93z"/>
	<path d="M298.805,135.631c0.705-0.128,1.729-0.224,2.673-0.224c1.489,0,2.465,0.288,3.121,0.88c0.528,0.48,0.849,1.216,0.849,2.064
		c0,1.409-0.896,2.353-2.017,2.737v0.048c0.816,0.288,1.312,1.057,1.569,2.177c0.352,1.505,0.608,2.545,0.832,2.961h-1.44
		c-0.176-0.32-0.416-1.232-0.704-2.577c-0.32-1.488-0.913-2.049-2.177-2.097h-1.312v4.674h-1.393V135.631z M300.197,140.545h1.425
		c1.489,0,2.433-0.816,2.433-2.049c0-1.393-1.009-2-2.481-2c-0.672,0-1.137,0.048-1.377,0.112V140.545z"/>
	<path d="M316.504,141.538c-0.08-1.505-0.176-3.33-0.176-4.658h-0.032c-0.384,1.249-0.816,2.609-1.36,4.098l-1.905,5.234h-1.057
		l-1.761-5.138c-0.512-1.537-0.928-2.913-1.232-4.194h-0.032c-0.032,1.345-0.112,3.138-0.208,4.77l-0.288,4.626h-1.329l0.752-10.789
		h1.777l1.841,5.218c0.448,1.329,0.8,2.513,1.088,3.633h0.032c0.288-1.088,0.672-2.272,1.153-3.633l1.92-5.218h1.777l0.672,10.789
		h-1.376L316.504,141.538z"/>
</g>
<g>
	<path d="M408.502,125.076l-3.538-10.789h1.521l1.682,5.314c0.447,1.457,0.848,2.769,1.152,4.034h0.031
		c0.305-1.249,0.736-2.609,1.232-4.018l1.825-5.331h1.488l-3.857,10.789H408.502z"/>
	<path d="M415.894,121.682l-1.12,3.394h-1.441l3.682-10.789h1.664l3.682,10.789h-1.488l-1.152-3.394H415.894z M419.447,120.594
		l-1.072-3.105c-0.24-0.705-0.4-1.345-0.561-1.969h-0.032c-0.16,0.624-0.32,1.296-0.544,1.953l-1.057,3.121H419.447z"/>
	<path d="M423.925,114.287h1.408v9.62h4.61v1.168h-6.019V114.287z"/>
	<path d="M432.885,114.287v10.789h-1.408v-10.789H432.885z"/>
	<path d="M435.316,114.447c0.848-0.144,1.856-0.24,2.961-0.24c2.001,0,3.426,0.48,4.369,1.344c0.977,0.88,1.537,2.129,1.537,3.874
		c0,1.761-0.561,3.201-1.553,4.194c-1.024,1.008-2.689,1.553-4.785,1.553c-1.009,0-1.825-0.048-2.529-0.128V114.447z
		 M436.709,123.987c0.352,0.048,0.864,0.064,1.408,0.064c2.993,0,4.594-1.665,4.594-4.578c0.016-2.545-1.424-4.162-4.369-4.162
		c-0.721,0-1.266,0.064-1.633,0.144V123.987z"/>
	<path d="M447.493,121.682l-1.12,3.394h-1.441l3.682-10.789h1.664l3.682,10.789h-1.488l-1.152-3.394H447.493z M451.047,120.594
		l-1.072-3.105c-0.24-0.705-0.4-1.345-0.561-1.969h-0.032c-0.16,0.624-0.32,1.296-0.544,1.953l-1.057,3.121H451.047z"/>
	<path d="M456.357,115.472h-3.281v-1.185h7.986v1.185h-3.297v9.604h-1.408V115.472z"/>
	<path d="M467.83,120.018h-4.178v3.89h4.674v1.168h-6.082v-10.789h5.843v1.168h-4.435v3.41h4.178V120.018z"/>
	<path d="M417.973,133.487h5.811v1.168h-4.402v3.585h4.066v1.153h-4.066v4.882h-1.408V133.487z"/>
	<path d="M435,138.77c0,3.698-2.256,5.683-5.01,5.683c-2.865,0-4.85-2.225-4.85-5.49c0-3.426,2.113-5.667,4.994-5.667
		C433.096,133.295,435,135.552,435,138.77z M426.613,138.93c0,2.321,1.248,4.386,3.457,4.386s3.458-2.033,3.458-4.482
		c0-2.161-1.12-4.401-3.441-4.401S426.613,136.577,426.613,138.93z"/>
	<path d="M436.805,133.631c0.705-0.128,1.729-0.224,2.674-0.224c1.488,0,2.465,0.288,3.121,0.88c0.527,0.48,0.848,1.216,0.848,2.064
		c0,1.409-0.896,2.353-2.017,2.737v0.048c0.816,0.288,1.312,1.057,1.569,2.177c0.352,1.505,0.607,2.545,0.832,2.961h-1.441
		c-0.176-0.32-0.416-1.232-0.703-2.577c-0.32-1.488-0.913-2.049-2.178-2.097h-1.312v4.674h-1.393V133.631z M438.197,138.545h1.425
		c1.489,0,2.433-0.816,2.433-2.049c0-1.393-1.008-2-2.48-2c-0.672,0-1.137,0.048-1.377,0.112V138.545z"/>
	<path d="M454.504,139.538c-0.08-1.505-0.176-3.33-0.176-4.658h-0.031c-0.385,1.249-0.816,2.609-1.361,4.098l-1.904,5.234h-1.057
		l-1.761-5.138c-0.513-1.537-0.929-2.913-1.232-4.194h-0.032c-0.031,1.345-0.111,3.138-0.208,4.77l-0.288,4.626h-1.328l0.752-10.789
		h1.777l1.84,5.218c0.448,1.329,0.801,2.513,1.089,3.633h0.032c0.287-1.088,0.672-2.272,1.152-3.633l1.92-5.218h1.777l0.672,10.789
		h-1.376L454.504,139.538z"/>
	<path d="M420.364,152.847c0.849-0.144,1.856-0.24,2.962-0.24c2,0,3.425,0.48,4.369,1.344c0.977,0.88,1.537,2.129,1.537,3.874
		c0,1.761-0.561,3.201-1.553,4.194c-1.025,1.008-2.689,1.553-4.786,1.553c-1.009,0-1.825-0.048-2.529-0.128V152.847z
		 M421.757,162.387c0.353,0.048,0.864,0.064,1.409,0.064c2.992,0,4.594-1.665,4.594-4.578c0.016-2.545-1.425-4.162-4.37-4.162
		c-0.72,0-1.265,0.064-1.633,0.144V162.387z"/>
	<path d="M432.541,160.082l-1.12,3.394h-1.44l3.682-10.789h1.664l3.682,10.789h-1.488l-1.152-3.394H432.541z M436.095,158.994
		l-1.072-3.105c-0.24-0.705-0.4-1.345-0.561-1.969h-0.032c-0.16,0.624-0.32,1.296-0.544,1.953l-1.056,3.121H436.095z"/>
	<path d="M441.404,153.872h-3.281v-1.185h7.988v1.185h-3.298v9.604h-1.409V153.872z"/>
	<path d="M447.854,160.082l-1.121,3.394h-1.44l3.681-10.789h1.665l3.682,10.789h-1.488l-1.153-3.394H447.854z M451.406,158.994
		l-1.072-3.105c-0.24-0.705-0.4-1.345-0.561-1.969h-0.031c-0.16,0.624-0.32,1.296-0.545,1.953l-1.057,3.121H451.406z"/>
</g>
<g>
	<path d="M548.775,118.784c0.704-0.128,1.729-0.224,2.673-0.224c1.488,0,2.465,0.288,3.121,0.88c0.528,0.48,0.849,1.216,0.849,2.064
		c0,1.409-0.896,2.353-2.018,2.737v0.048c0.816,0.288,1.312,1.057,1.569,2.177c0.353,1.505,0.608,2.545,0.832,2.961h-1.44
		c-0.176-0.32-0.416-1.232-0.704-2.577c-0.32-1.488-0.913-2.049-2.177-2.097h-1.312v4.674h-1.393V118.784z M550.168,123.698h1.424
		c1.489,0,2.434-0.816,2.434-2.049c0-1.393-1.009-2-2.48-2c-0.673,0-1.137,0.048-1.377,0.112V123.698z"/>
	<path d="M562.953,124.37h-4.178v3.89h4.674v1.168h-6.082V118.64h5.842v1.168h-4.434v3.41h4.178V124.37z"/>
	<path d="M565.238,118.64h1.408v9.62h4.61v1.168h-6.019V118.64z"/>
	<path d="M578.377,124.37h-4.178v3.89h4.674v1.168h-6.082V118.64h5.842v1.168h-4.434v3.41h4.178V124.37z"/>
	<path d="M582.424,126.035l-1.121,3.394h-1.44l3.681-10.789h1.665l3.682,10.789h-1.488l-1.153-3.394H582.424z M585.977,124.946
		l-1.072-3.105c-0.24-0.705-0.4-1.345-0.561-1.969h-0.031c-0.16,0.624-0.32,1.296-0.545,1.953l-1.057,3.121H585.977z"/>
	<path d="M590.295,127.731c0.623,0.4,1.52,0.705,2.48,0.705c1.424,0,2.257-0.752,2.257-1.841c0-0.993-0.576-1.585-2.032-2.129
		c-1.762-0.64-2.85-1.569-2.85-3.073c0-1.681,1.393-2.929,3.489-2.929c1.089,0,1.905,0.256,2.369,0.528l-0.384,1.136
		c-0.336-0.208-1.057-0.512-2.033-0.512c-1.473,0-2.033,0.88-2.033,1.617c0,1.008,0.656,1.504,2.145,2.081
		c1.825,0.704,2.738,1.584,2.738,3.169c0,1.665-1.217,3.122-3.762,3.122c-1.041,0-2.178-0.32-2.754-0.705L590.295,127.731z"/>
	<path d="M603.928,124.37h-4.178v3.89h4.674v1.168h-6.082V118.64h5.843v1.168h-4.435v3.41h4.178V124.37z"/>
	<path d="M541.023,137.968c0.672-0.112,1.553-0.208,2.673-0.208c1.376,0,2.385,0.32,3.025,0.896
		c0.576,0.512,0.944,1.297,0.944,2.257c0,0.977-0.288,1.745-0.832,2.305c-0.753,0.784-1.938,1.185-3.298,1.185
		c-0.416,0-0.8-0.016-1.12-0.096v4.322h-1.393V137.968z M542.416,143.17c0.304,0.08,0.688,0.112,1.152,0.112
		c1.681,0,2.705-0.833,2.705-2.289c0-1.44-1.024-2.129-2.545-2.129c-0.608,0-1.072,0.048-1.312,0.112V143.17z"/>
	<path d="M549.535,137.984c0.704-0.128,1.729-0.224,2.673-0.224c1.488,0,2.465,0.288,3.121,0.88c0.528,0.48,0.849,1.216,0.849,2.064
		c0,1.409-0.896,2.353-2.018,2.737v0.048c0.816,0.288,1.312,1.057,1.569,2.177c0.353,1.505,0.608,2.545,0.832,2.961h-1.44
		c-0.176-0.32-0.416-1.232-0.704-2.577c-0.32-1.488-0.913-2.049-2.177-2.097h-1.312v4.674h-1.393V137.984z M550.928,142.898h1.424
		c1.489,0,2.434-0.816,2.434-2.049c0-1.393-1.009-2-2.48-2c-0.673,0-1.137,0.048-1.377,0.112V142.898z"/>
	<path d="M567.41,143.122c0,3.698-2.256,5.683-5.01,5.683c-2.865,0-4.85-2.225-4.85-5.49c0-3.426,2.113-5.667,4.994-5.667
		C565.506,137.648,567.41,139.905,567.41,143.122z M559.023,143.282c0,2.321,1.248,4.386,3.457,4.386s3.458-2.033,3.458-4.482
		c0-2.161-1.12-4.401-3.441-4.401S559.023,140.929,559.023,143.282z"/>
	<path d="M569.215,137.968c0.672-0.112,1.553-0.208,2.673-0.208c1.376,0,2.385,0.32,3.025,0.896
		c0.576,0.512,0.944,1.297,0.944,2.257c0,0.977-0.288,1.745-0.832,2.305c-0.753,0.784-1.938,1.185-3.298,1.185
		c-0.416,0-0.8-0.016-1.12-0.096v4.322h-1.393V137.968z M570.607,143.17c0.304,0.08,0.688,0.112,1.152,0.112
		c1.681,0,2.705-0.833,2.705-2.289c0-1.44-1.024-2.129-2.545-2.129c-0.608,0-1.072,0.048-1.312,0.112V143.17z"/>
	<path d="M586.946,143.122c0,3.698-2.257,5.683-5.01,5.683c-2.865,0-4.851-2.225-4.851-5.49c0-3.426,2.113-5.667,4.994-5.667
		C585.041,137.648,586.946,139.905,586.946,143.122z M578.559,143.282c0,2.321,1.249,4.386,3.458,4.386s3.457-2.033,3.457-4.482
		c0-2.161-1.12-4.401-3.44-4.401C579.711,138.785,578.559,140.929,578.559,143.282z"/>
	<path d="M588.574,146.932c0.625,0.4,1.521,0.705,2.481,0.705c1.425,0,2.257-0.752,2.257-1.841c0-0.993-0.576-1.585-2.033-2.129
		c-1.76-0.64-2.849-1.569-2.849-3.073c0-1.681,1.393-2.929,3.489-2.929c1.088,0,1.904,0.256,2.369,0.528l-0.385,1.136
		c-0.336-0.208-1.057-0.512-2.032-0.512c-1.473,0-2.033,0.88-2.033,1.617c0,1.008,0.657,1.504,2.146,2.081
		c1.824,0.704,2.736,1.584,2.736,3.169c0,1.665-1.217,3.122-3.762,3.122c-1.04,0-2.176-0.32-2.752-0.705L588.574,146.932z"/>
	<path d="M598.383,145.235l-1.12,3.394h-1.44l3.682-10.789h1.664l3.682,10.789h-1.488l-1.152-3.394H598.383z M601.937,144.146
		l-1.072-3.105c-0.24-0.705-0.4-1.345-0.561-1.969h-0.032c-0.16,0.624-0.32,1.296-0.544,1.953l-1.056,3.121H601.937z"/>
	<path d="M606.414,137.84h1.408v9.62h4.61v1.168h-6.019V137.84z"/>
</g>
<rect x="317.496" y="243.16" fill="#FFFFFF" stroke="#000000" width="94.958" height="41.176"/>
<g>
	<path d="M345.125,248.111h5.81v1.168h-4.402v3.586h4.066v1.152h-4.066v4.882h-1.408V248.111z"/>
	<path d="M362.152,253.394c0,3.697-2.257,5.682-5.01,5.682c-2.865,0-4.85-2.225-4.85-5.49c0-3.425,2.113-5.666,4.994-5.666
		C360.247,247.919,362.152,250.176,362.152,253.394z M353.765,253.554c0,2.32,1.249,4.386,3.458,4.386s3.458-2.033,3.458-4.482
		c0-2.161-1.121-4.401-3.441-4.401C354.917,249.056,353.765,251.2,353.765,253.554z"/>
	<path d="M363.956,248.255c0.705-0.128,1.729-0.224,2.673-0.224c1.489,0,2.465,0.288,3.121,0.88c0.528,0.48,0.849,1.217,0.849,2.065
		c0,1.408-0.896,2.353-2.017,2.736v0.049c0.816,0.288,1.312,1.056,1.569,2.177c0.352,1.504,0.608,2.545,0.832,2.961h-1.44
		c-0.176-0.32-0.416-1.232-0.704-2.577c-0.32-1.488-0.913-2.049-2.177-2.097h-1.312v4.674h-1.393V248.255z M365.349,253.169h1.425
		c1.489,0,2.433-0.816,2.433-2.049c0-1.393-1.009-2.001-2.481-2.001c-0.672,0-1.137,0.049-1.377,0.112V253.169z"/>
	<path d="M381.656,254.161c-0.08-1.504-0.176-3.329-0.176-4.657h-0.032c-0.384,1.248-0.816,2.608-1.36,4.098l-1.905,5.233h-1.057
		l-1.761-5.138c-0.512-1.536-0.928-2.913-1.232-4.193h-0.032c-0.032,1.345-0.112,3.137-0.208,4.77l-0.288,4.626h-1.329l0.752-10.788
		h1.777l1.841,5.218c0.448,1.328,0.8,2.513,1.088,3.634h0.032c0.288-1.089,0.672-2.273,1.153-3.634l1.92-5.218h1.777l0.672,10.788
		h-1.376L381.656,254.161z"/>
	<path d="M347.516,267.472c0.849-0.145,1.857-0.24,2.961-0.24c2.001,0,3.425,0.479,4.37,1.345c0.977,0.88,1.537,2.129,1.537,3.873
		c0,1.761-0.56,3.201-1.553,4.193c-1.024,1.009-2.689,1.553-4.786,1.553c-1.008,0-1.825-0.048-2.529-0.128V267.472z
		 M348.908,277.011c0.353,0.049,0.865,0.064,1.409,0.064c2.993,0,4.594-1.665,4.594-4.578c0.016-2.545-1.424-4.161-4.37-4.161
		c-0.72,0-1.265,0.063-1.633,0.144V277.011z"/>
	<path d="M359.693,274.706l-1.121,3.394h-1.44l3.681-10.788h1.665l3.682,10.788h-1.488l-1.153-3.394H359.693z M363.246,273.618
		l-1.072-3.105c-0.24-0.704-0.4-1.345-0.561-1.969h-0.032c-0.16,0.624-0.32,1.296-0.544,1.952l-1.056,3.122H363.246z"/>
	<path d="M368.556,268.496h-3.281v-1.185h7.987v1.185h-3.297v9.604h-1.409V268.496z"/>
	<path d="M375.004,274.706l-1.121,3.394h-1.44l3.681-10.788h1.665l3.682,10.788h-1.488l-1.153-3.394H375.004z M378.558,273.618
		l-1.072-3.105c-0.24-0.704-0.4-1.345-0.561-1.969h-0.032c-0.16,0.624-0.32,1.296-0.544,1.952l-1.056,3.122H378.558z"/>
</g>
<g>
	<g>
		<line fill="none" stroke="#000000" stroke-width="2" x1="378.95" y1="247.185" x2="424.835" y2="194.129"/>
		<g>
			<path d="M432.73,185c-2.121,5.674-4.011,13.356-3.988,19.152l-4.943-8.824l-9.443-3.619
				C420.094,190.896,427.423,187.918,432.73,185z"/>
		</g>
	</g>
</g>
<g>
	<g>
		<line fill="none" stroke="#000000" stroke-width="2" x1="304.807" y1="180.218" x2="345.732" y2="235.294"/>
		<g>
			<path d="M352.932,244.982c-5.079-3.302-12.168-6.813-17.831-8.048l9.687-2.912l5.581-8.433
				C349.917,231.367,351.234,239.168,352.932,244.982z"/>
		</g>
	</g>
</g>
<g>
	<path d="M459.957,268.899l-3.537-10.788h1.521l1.681,5.313c0.447,1.457,0.848,2.77,1.152,4.034h0.031
		c0.305-1.249,0.736-2.609,1.233-4.018l1.825-5.33h1.488l-3.857,10.788H459.957z"/>
	<path d="M467.35,265.506l-1.121,3.394h-1.44l3.681-10.788h1.665l3.682,10.788h-1.488l-1.153-3.394H467.35z M470.902,264.418
		l-1.072-3.105c-0.24-0.704-0.4-1.345-0.561-1.969h-0.031c-0.16,0.624-0.32,1.296-0.545,1.952l-1.057,3.122H470.902z"/>
	<path d="M475.381,258.111h1.408v9.619h4.609v1.169h-6.018V258.111z"/>
	<path d="M484.34,258.111v10.788h-1.408v-10.788H484.34z"/>
	<path d="M486.771,258.271c0.85-0.145,1.857-0.24,2.962-0.24c2.001,0,3.425,0.479,4.37,1.345c0.977,0.88,1.536,2.129,1.536,3.873
		c0,1.761-0.56,3.201-1.553,4.193c-1.024,1.009-2.688,1.553-4.786,1.553c-1.008,0-1.824-0.048-2.529-0.128V258.271z
		 M488.164,267.811c0.354,0.049,0.865,0.064,1.409,0.064c2.993,0,4.594-1.665,4.594-4.578c0.017-2.545-1.425-4.161-4.37-4.161
		c-0.72,0-1.264,0.063-1.633,0.144V267.811z"/>
	<path d="M498.949,265.506l-1.121,3.394h-1.44l3.681-10.788h1.665l3.682,10.788h-1.488l-1.153-3.394H498.949z M502.502,264.418
		l-1.072-3.105c-0.24-0.704-0.4-1.345-0.561-1.969h-0.031c-0.16,0.624-0.32,1.296-0.545,1.952l-1.057,3.122H502.502z"/>
	<path d="M507.812,259.296h-3.281v-1.185h7.987v1.185h-3.298v9.604h-1.408V259.296z"/>
	<path d="M515.107,258.111v10.788h-1.408v-10.788H515.107z"/>
	<path d="M526.76,263.394c0,3.697-2.258,5.682-5.01,5.682c-2.865,0-4.851-2.225-4.851-5.49c0-3.425,2.112-5.666,4.994-5.666
		C524.854,257.919,526.76,260.176,526.76,263.394z M518.372,263.554c0,2.32,1.249,4.386,3.458,4.386s3.457-2.033,3.457-4.482
		c0-2.161-1.121-4.401-3.441-4.401C519.524,259.056,518.372,261.2,518.372,263.554z"/>
	<path d="M528.563,268.899v-10.788h1.536l3.441,5.458c0.785,1.265,1.426,2.401,1.922,3.505l0.047-0.016
		c-0.127-1.44-0.159-2.753-0.159-4.434v-4.514h1.312v10.788h-1.409l-3.425-5.475c-0.753-1.2-1.473-2.433-2.001-3.601l-0.048,0.016
		c0.08,1.36,0.096,2.657,0.096,4.449v4.61H528.563z"/>
	<path d="M538.916,267.203c0.623,0.399,1.52,0.704,2.48,0.704c1.424,0,2.257-0.753,2.257-1.841c0-0.992-0.576-1.585-2.032-2.129
		c-1.762-0.641-2.85-1.568-2.85-3.073c0-1.681,1.393-2.93,3.489-2.93c1.089,0,1.905,0.257,2.369,0.528l-0.384,1.137
		c-0.336-0.208-1.057-0.512-2.033-0.512c-1.473,0-2.033,0.88-2.033,1.616c0,1.009,0.656,1.505,2.145,2.081
		c1.825,0.704,2.738,1.584,2.738,3.169c0,1.665-1.217,3.121-3.762,3.121c-1.041,0-2.178-0.32-2.754-0.704L538.916,267.203z"/>
</g>
<g>
	<g>
		<line fill="none" stroke="#000000" stroke-width="2" x1="515.949" y1="250.185" x2="561.835" y2="197.129"/>
		<g>
			<path d="M569.73,188c-2.121,5.674-4.011,13.356-3.988,19.152l-4.943-8.824l-9.443-3.619
				C557.094,193.896,564.423,190.918,569.73,188z"/>
		</g>
	</g>
</g>
<g>
	<g>
		<line fill="none" stroke="#000000" stroke-width="2" x1="441.807" y1="183.218" x2="482.732" y2="238.294"/>
		<g>
			<path d="M489.932,247.982c-5.079-3.302-12.168-6.813-17.83-8.048l9.686-2.912l5.582-8.433
				C486.917,234.367,488.234,242.168,489.932,247.982z"/>
		</g>
	</g>
</g>
<rect x="456.496" y="495.16" fill="#FFFFFF" stroke="#000000" width="94.957" height="41.176"/>
<circle fill="#FFFFFF" stroke="#000000" stroke-width="2" cx="303.353" cy="382.58" r="46.639"/>
<circle fill="#FFFFFF" stroke="#000000" stroke-width="2" cx="439.353" cy="385.58" r="46.639"/>
<circle fill="#FFFFFF" stroke="#000000" stroke-width="2" cx="579.354" cy="385.58" r="46.639"/>
<g>
	<g>
		<line fill="none" stroke="#000000" stroke-width="2" x1="224.95" y1="485.185" x2="270.835" y2="432.129"/>
		<g>
			<path d="M278.731,423c-2.122,5.674-4.011,13.356-3.988,19.152l-4.944-8.824l-9.443-3.619
				C266.094,428.896,273.423,425.918,278.731,423z"/>
		</g>
	</g>
</g>
<g>
	<path d="M288.864,367.66c-1.457-0.384-2.881-0.816-4.13-1.248c-0.24-0.08-0.448-0.16-0.656-0.16
		c-2.577-0.096-4.754-1.984-4.754-5.475c0-3.457,2.097-5.682,5.01-5.682c2.945,0,4.85,2.272,4.85,5.457
		c0,2.785-1.28,4.547-3.073,5.188v0.063c1.073,0.272,2.241,0.528,3.153,0.688L288.864,367.66z M287.712,360.633
		c0-2.176-1.121-4.4-3.41-4.4c-2.353,0-3.505,2.176-3.505,4.514c0,2.305,1.249,4.369,3.458,4.369S287.712,363.082,287.712,360.633z"
		/>
	<path d="M292.381,355.287v6.402c0,2.401,1.073,3.426,2.513,3.426c1.584,0,2.625-1.057,2.625-3.426v-6.402h1.409v6.307
		c0,3.313-1.745,4.658-4.082,4.658c-2.209,0-3.874-1.248-3.874-4.609v-6.355H292.381z"/>
	<path d="M306.911,361.018h-4.178v3.89h4.674v1.169h-6.082v-10.789h5.842v1.168h-4.434v3.41h4.178V361.018z"/>
	<path d="M309.212,355.432c0.705-0.129,1.729-0.225,2.673-0.225c1.489,0,2.465,0.289,3.121,0.881
		c0.528,0.48,0.849,1.217,0.849,2.064c0,1.408-0.896,2.354-2.017,2.737v0.048c0.816,0.288,1.312,1.057,1.569,2.177
		c0.352,1.505,0.608,2.546,0.832,2.962h-1.44c-0.176-0.32-0.416-1.232-0.704-2.578c-0.32-1.488-0.913-2.049-2.177-2.096h-1.312
		v4.674h-1.393V355.432z M310.604,360.346h1.425c1.489,0,2.433-0.816,2.433-2.049c0-1.393-1.009-2.001-2.481-2.001
		c-0.672,0-1.137,0.048-1.377,0.112V360.346z"/>
	<path d="M320.045,366.076v-4.578l-3.426-6.211h1.601l1.521,2.978c0.4,0.816,0.736,1.473,1.072,2.225h0.032
		c0.288-0.704,0.672-1.408,1.088-2.225l1.553-2.978h1.568l-3.602,6.195v4.594H320.045z"/>
	<path d="M263.845,374.615c0.672-0.111,1.553-0.207,2.673-0.207c1.376,0,2.385,0.319,3.025,0.896
		c0.577,0.513,0.945,1.297,0.945,2.257c0,0.977-0.288,1.745-0.833,2.305c-0.752,0.785-1.937,1.186-3.297,1.186
		c-0.416,0-0.8-0.017-1.121-0.097v4.321h-1.393V374.615z M265.237,379.818c0.304,0.079,0.688,0.111,1.153,0.111
		c1.681,0,2.705-0.832,2.705-2.289c0-1.44-1.024-2.129-2.545-2.129c-0.608,0-1.072,0.049-1.312,0.112V379.818z"/>
	<path d="M273.75,374.487v4.515h5.218v-4.515h1.409v10.788h-1.409v-5.058h-5.218v5.058h-1.408v-10.788H273.75z"/>
	<path d="M292.008,379.77c0,3.697-2.257,5.683-5.01,5.683c-2.865,0-4.85-2.226-4.85-5.49c0-3.426,2.113-5.667,4.994-5.667
		C290.104,374.295,292.008,376.553,292.008,379.77z M283.621,379.93c0,2.32,1.249,4.386,3.458,4.386s3.458-2.032,3.458-4.481
		c0-2.161-1.121-4.402-3.441-4.402C284.773,375.432,283.621,377.576,283.621,379.93z"/>
	<path d="M293.812,385.275v-10.788h1.537l3.441,5.458c0.785,1.266,1.425,2.401,1.921,3.506l0.048-0.016
		c-0.128-1.441-0.16-2.754-0.16-4.434v-4.515h1.312v10.788h-1.409l-3.425-5.474c-0.752-1.2-1.473-2.433-2.001-3.602l-0.048,0.017
		c0.08,1.359,0.096,2.656,0.096,4.449v4.609H293.812z"/>
	<path d="M309.911,380.218h-4.178v3.89h4.674v1.168h-6.082v-10.788h5.842v1.169h-4.434v3.409h4.178V380.218z"/>
	<path d="M317.349,381.883l-1.121,3.393h-1.44l3.681-10.788h1.665l3.682,10.788h-1.488l-1.153-3.393H317.349z M320.902,380.794
		l-1.072-3.104c-0.24-0.705-0.4-1.346-0.561-1.969h-0.032c-0.16,0.623-0.32,1.296-0.544,1.952l-1.056,3.121H320.902z"/>
	<path d="M325.396,374.615c0.672-0.111,1.553-0.207,2.673-0.207c1.376,0,2.385,0.319,3.025,0.896
		c0.576,0.513,0.944,1.297,0.944,2.257c0,0.977-0.288,1.745-0.833,2.305c-0.752,0.785-1.937,1.186-3.297,1.186
		c-0.416,0-0.8-0.017-1.121-0.097v4.321h-1.393V374.615z M326.789,379.818c0.304,0.079,0.688,0.111,1.153,0.111
		c1.681,0,2.705-0.832,2.705-2.289c0-1.44-1.024-2.129-2.545-2.129c-0.608,0-1.072,0.049-1.312,0.112V379.818z"/>
	<path d="M333.908,374.615c0.672-0.111,1.553-0.207,2.673-0.207c1.376,0,2.385,0.319,3.025,0.896
		c0.576,0.513,0.944,1.297,0.944,2.257c0,0.977-0.288,1.745-0.833,2.305c-0.752,0.785-1.937,1.186-3.297,1.186
		c-0.416,0-0.8-0.017-1.121-0.097v4.321h-1.393V374.615z M335.3,379.818c0.304,0.079,0.688,0.111,1.153,0.111
		c1.681,0,2.705-0.832,2.705-2.289c0-1.44-1.024-2.129-2.545-2.129c-0.608,0-1.072,0.049-1.312,0.112V379.818z"/>
	<path d="M283.517,393.688v10.788h-1.408v-10.788H283.517z"/>
	<path d="M285.949,404.476v-10.788h1.537l3.441,5.458c0.785,1.265,1.425,2.401,1.921,3.505l0.048-0.016
		c-0.128-1.44-0.16-2.753-0.16-4.434v-4.514h1.312v10.788h-1.409l-3.425-5.474c-0.752-1.201-1.473-2.434-2.001-3.602l-0.048,0.016
		c0.08,1.36,0.096,2.657,0.096,4.449v4.61H285.949z"/>
	<path d="M296.476,393.848c0.849-0.145,1.857-0.24,2.961-0.24c2.001,0,3.425,0.48,4.37,1.344c0.977,0.881,1.537,2.129,1.537,3.874
		c0,1.761-0.56,3.201-1.553,4.194c-1.024,1.008-2.689,1.553-4.786,1.553c-1.008,0-1.825-0.049-2.529-0.129V393.848z
		 M297.869,403.387c0.353,0.049,0.865,0.064,1.409,0.064c2.993,0,4.594-1.664,4.594-4.578c0.016-2.545-1.424-4.162-4.37-4.162
		c-0.72,0-1.265,0.064-1.633,0.145V403.387z"/>
	<path d="M312.703,399.418h-4.178v3.889h4.674v1.169h-6.082v-10.788h5.842v1.168h-4.434v3.41h4.178V399.418z"/>
	<path d="M320.911,404.476l-1.393-2.385c-0.561-0.913-0.896-1.505-1.232-2.129h-0.032c-0.304,0.624-0.625,1.2-1.168,2.145
		l-1.296,2.369h-1.601l3.297-5.458l-3.169-5.33h1.617l1.424,2.529c0.4,0.703,0.705,1.248,0.993,1.824h0.048
		c0.304-0.641,0.576-1.137,0.977-1.824l1.457-2.529h1.617l-3.281,5.25l3.361,5.538H320.911z"/>
</g>
<g>
	<path d="M414.652,376.379c0.625,0.4,1.521,0.705,2.481,0.705c1.425,0,2.257-0.753,2.257-1.842c0-0.992-0.576-1.584-2.033-2.129
		c-1.76-0.64-2.849-1.568-2.849-3.072c0-1.682,1.393-2.93,3.489-2.93c1.088,0,1.904,0.256,2.369,0.528l-0.385,1.136
		c-0.336-0.207-1.057-0.512-2.032-0.512c-1.473,0-2.033,0.881-2.033,1.617c0,1.008,0.657,1.504,2.146,2.08
		c1.824,0.705,2.736,1.585,2.736,3.17c0,1.664-1.217,3.121-3.762,3.121c-1.04,0-2.176-0.32-2.752-0.705L414.652,376.379z"/>
	<path d="M424.109,367.287v6.402c0,2.401,1.072,3.426,2.513,3.426c1.585,0,2.625-1.057,2.625-3.426v-6.402h1.409v6.307
		c0,3.313-1.745,4.658-4.082,4.658c-2.209,0-3.873-1.248-3.873-4.609v-6.355H424.109z"/>
	<path d="M433.068,367.432c0.705-0.129,1.729-0.225,2.674-0.225c1.488,0,2.465,0.289,3.121,0.881
		c0.527,0.48,0.848,1.217,0.848,2.064c0,1.408-0.896,2.354-2.017,2.737v0.048c0.816,0.288,1.312,1.057,1.569,2.177
		c0.352,1.505,0.607,2.546,0.832,2.962h-1.441c-0.176-0.32-0.416-1.232-0.703-2.578c-0.32-1.488-0.913-2.049-2.178-2.096h-1.312
		v4.674h-1.393V367.432z M434.461,372.346h1.425c1.489,0,2.433-0.816,2.433-2.049c0-1.393-1.008-2.001-2.48-2.001
		c-0.672,0-1.137,0.048-1.377,0.112V372.346z"/>
	<path d="M444.301,378.076l-3.537-10.789h1.521l1.68,5.314c0.448,1.457,0.849,2.77,1.152,4.033h0.032
		c0.304-1.248,0.736-2.609,1.233-4.018l1.824-5.33h1.488l-3.857,10.789H444.301z"/>
	<path d="M456.43,373.018h-4.178v3.89h4.674v1.169h-6.082v-10.789h5.843v1.168h-4.435v3.41h4.178V373.018z"/>
	<path d="M461.182,378.076v-4.578l-3.426-6.211h1.601l1.521,2.978c0.4,0.816,0.736,1.473,1.072,2.225h0.032
		c0.288-0.704,0.672-1.408,1.089-2.225l1.553-2.978h1.568l-3.602,6.195v4.594H461.182z"/>
	<path d="M408.445,397.275l-2.736-10.788h1.473l1.28,5.458c0.32,1.345,0.608,2.689,0.8,3.73h0.033
		c0.176-1.072,0.512-2.354,0.88-3.746l1.44-5.442h1.457l1.312,5.475c0.304,1.28,0.592,2.562,0.752,3.697h0.031
		c0.225-1.185,0.529-2.385,0.865-3.729l1.424-5.442h1.426l-3.059,10.788h-1.456l-1.36-5.617c-0.336-1.377-0.561-2.434-0.704-3.521
		h-0.032c-0.176,1.072-0.432,2.129-0.832,3.521l-1.537,5.617H408.445z"/>
	<path d="M425.791,392.218h-4.178v3.89h4.674v1.168h-6.082v-10.788h5.843v1.169h-4.435v3.409h4.178V392.218z"/>
	<path d="M428.093,386.647c0.608-0.144,1.585-0.239,2.546-0.239c1.393,0,2.288,0.239,2.944,0.783
		c0.561,0.416,0.913,1.057,0.913,1.905c0,1.056-0.705,1.969-1.825,2.368v0.049c1.024,0.24,2.225,1.088,2.225,2.689
		c0,0.928-0.368,1.648-0.929,2.16c-0.736,0.688-1.952,1.009-3.713,1.009c-0.961,0-1.697-0.063-2.161-0.128V386.647z
		 M429.485,391.065h1.265c1.457,0,2.32-0.784,2.32-1.825c0-1.248-0.943-1.76-2.353-1.76c-0.64,0-1.009,0.047-1.232,0.096V391.065z
		 M429.485,396.219c0.288,0.049,0.673,0.064,1.169,0.064c1.44,0,2.77-0.527,2.77-2.097c0-1.456-1.266-2.081-2.785-2.081h-1.153
		V396.219z"/>
	<path d="M439.98,395.579c0.625,0.4,1.521,0.704,2.481,0.704c1.425,0,2.257-0.752,2.257-1.84c0-0.993-0.576-1.586-2.033-2.129
		c-1.76-0.641-2.849-1.569-2.849-3.074c0-1.68,1.393-2.929,3.489-2.929c1.088,0,1.904,0.256,2.369,0.528l-0.385,1.137
		c-0.336-0.209-1.057-0.513-2.032-0.513c-1.473,0-2.033,0.88-2.033,1.616c0,1.009,0.657,1.505,2.146,2.082
		c1.824,0.703,2.736,1.584,2.736,3.168c0,1.665-1.217,3.122-3.762,3.122c-1.04,0-2.176-0.32-2.752-0.704L439.98,395.579z"/>
	<path d="M449.438,386.487v10.788h-1.408v-10.788H449.438z"/>
	<path d="M453.918,387.672h-3.281v-1.185h7.986v1.185h-3.297v9.604h-1.408V387.672z"/>
	<path d="M465.391,392.218h-4.178v3.89h4.674v1.168h-6.082v-10.788h5.842v1.169h-4.434v3.409h4.178V392.218z"/>
	<path d="M467.516,395.579c0.625,0.4,1.521,0.704,2.481,0.704c1.425,0,2.257-0.752,2.257-1.84c0-0.993-0.576-1.586-2.033-2.129
		c-1.76-0.641-2.849-1.569-2.849-3.074c0-1.68,1.393-2.929,3.489-2.929c1.088,0,1.904,0.256,2.369,0.528l-0.385,1.137
		c-0.336-0.209-1.057-0.513-2.032-0.513c-1.473,0-2.033,0.88-2.033,1.616c0,1.009,0.657,1.505,2.146,2.082
		c1.824,0.703,2.736,1.584,2.736,3.168c0,1.665-1.217,3.122-3.762,3.122c-1.04,0-2.176-0.32-2.752-0.704L467.516,395.579z"/>
</g>
<g>
	<path d="M551.775,367.783c0.704-0.127,1.729-0.223,2.673-0.223c1.488,0,2.465,0.287,3.121,0.88
		c0.528,0.479,0.849,1.216,0.849,2.064c0,1.409-0.896,2.353-2.018,2.737v0.048c0.816,0.288,1.312,1.057,1.569,2.177
		c0.353,1.505,0.608,2.545,0.832,2.961h-1.44c-0.176-0.32-0.416-1.232-0.704-2.576c-0.32-1.488-0.913-2.049-2.177-2.098h-1.312
		v4.674h-1.393V367.783z M553.168,372.697h1.424c1.489,0,2.434-0.816,2.434-2.049c0-1.393-1.009-2-2.48-2
		c-0.673,0-1.137,0.048-1.377,0.111V372.697z"/>
	<path d="M565.953,373.37h-4.178v3.89h4.674v1.168h-6.082V367.64h5.842v1.169h-4.434v3.409h4.178V373.37z"/>
	<path d="M568.238,367.64h1.408v9.62h4.61v1.168h-6.019V367.64z"/>
	<path d="M581.377,373.37h-4.178v3.89h4.674v1.168h-6.082V367.64h5.842v1.169h-4.434v3.409h4.178V373.37z"/>
	<path d="M585.424,375.035l-1.121,3.393h-1.44l3.681-10.788h1.665l3.682,10.788h-1.488l-1.153-3.393H585.424z M588.977,373.946
		l-1.072-3.104c-0.24-0.705-0.4-1.346-0.561-1.969h-0.031c-0.16,0.623-0.32,1.296-0.545,1.952l-1.057,3.121H588.977z"/>
	<path d="M593.295,376.731c0.623,0.4,1.52,0.704,2.48,0.704c1.424,0,2.257-0.752,2.257-1.84c0-0.993-0.576-1.586-2.032-2.129
		c-1.762-0.641-2.85-1.569-2.85-3.074c0-1.68,1.393-2.929,3.489-2.929c1.089,0,1.905,0.256,2.369,0.528l-0.384,1.137
		c-0.336-0.209-1.057-0.513-2.033-0.513c-1.473,0-2.033,0.88-2.033,1.616c0,1.009,0.656,1.505,2.145,2.082
		c1.825,0.703,2.738,1.584,2.738,3.168c0,1.665-1.217,3.122-3.762,3.122c-1.041,0-2.178-0.32-2.754-0.704L593.295,376.731z"/>
	<path d="M606.928,373.37h-4.178v3.89h4.674v1.168h-6.082V367.64h5.843v1.169h-4.435v3.409h4.178V373.37z"/>
	<path d="M544.023,386.969c0.672-0.113,1.553-0.209,2.673-0.209c1.376,0,2.385,0.32,3.025,0.896
		c0.576,0.512,0.944,1.297,0.944,2.257c0,0.977-0.288,1.745-0.832,2.306c-0.753,0.783-1.938,1.184-3.298,1.184
		c-0.416,0-0.8-0.016-1.12-0.096v4.322h-1.393V386.969z M545.416,392.17c0.304,0.08,0.688,0.112,1.152,0.112
		c1.681,0,2.705-0.833,2.705-2.289c0-1.44-1.024-2.129-2.545-2.129c-0.608,0-1.072,0.048-1.312,0.112V392.17z"/>
	<path d="M552.535,386.984c0.704-0.129,1.729-0.225,2.673-0.225c1.488,0,2.465,0.289,3.121,0.881
		c0.528,0.48,0.849,1.217,0.849,2.064c0,1.408-0.896,2.354-2.018,2.737v0.048c0.816,0.288,1.312,1.057,1.569,2.177
		c0.353,1.505,0.608,2.546,0.832,2.962h-1.44c-0.176-0.32-0.416-1.232-0.704-2.578c-0.32-1.488-0.913-2.049-2.177-2.096h-1.312
		v4.674h-1.393V386.984z M553.928,391.898h1.424c1.489,0,2.434-0.816,2.434-2.049c0-1.393-1.009-2.001-2.48-2.001
		c-0.673,0-1.137,0.048-1.377,0.112V391.898z"/>
	<path d="M570.41,392.122c0,3.698-2.256,5.683-5.01,5.683c-2.865,0-4.85-2.225-4.85-5.49c0-3.426,2.113-5.666,4.994-5.666
		C568.506,386.648,570.41,388.904,570.41,392.122z M562.023,392.282c0,2.321,1.248,4.386,3.457,4.386s3.458-2.033,3.458-4.482
		c0-2.16-1.12-4.4-3.441-4.4S562.023,389.93,562.023,392.282z"/>
	<path d="M572.215,386.969c0.672-0.113,1.553-0.209,2.673-0.209c1.376,0,2.385,0.32,3.025,0.896
		c0.576,0.512,0.944,1.297,0.944,2.257c0,0.977-0.288,1.745-0.832,2.306c-0.753,0.783-1.938,1.184-3.298,1.184
		c-0.416,0-0.8-0.016-1.12-0.096v4.322h-1.393V386.969z M573.607,392.17c0.304,0.08,0.688,0.112,1.152,0.112
		c1.681,0,2.705-0.833,2.705-2.289c0-1.44-1.024-2.129-2.545-2.129c-0.608,0-1.072,0.048-1.312,0.112V392.17z"/>
	<path d="M589.946,392.122c0,3.698-2.257,5.683-5.01,5.683c-2.865,0-4.851-2.225-4.851-5.49c0-3.426,2.113-5.666,4.994-5.666
		C588.041,386.648,589.946,388.904,589.946,392.122z M581.559,392.282c0,2.321,1.249,4.386,3.458,4.386s3.457-2.033,3.457-4.482
		c0-2.16-1.12-4.4-3.44-4.4C582.711,387.785,581.559,389.93,581.559,392.282z"/>
	<path d="M591.574,395.932c0.625,0.4,1.521,0.705,2.481,0.705c1.425,0,2.257-0.753,2.257-1.842c0-0.992-0.576-1.584-2.033-2.129
		c-1.76-0.64-2.849-1.568-2.849-3.072c0-1.682,1.393-2.93,3.489-2.93c1.088,0,1.904,0.256,2.369,0.528l-0.385,1.136
		c-0.336-0.207-1.057-0.512-2.032-0.512c-1.473,0-2.033,0.881-2.033,1.617c0,1.008,0.657,1.504,2.146,2.08
		c1.824,0.705,2.736,1.585,2.736,3.17c0,1.664-1.217,3.121-3.762,3.121c-1.04,0-2.176-0.32-2.752-0.705L591.574,395.932z"/>
	<path d="M601.383,394.234l-1.12,3.395h-1.44l3.682-10.789h1.664l3.682,10.789h-1.488l-1.152-3.395H601.383z M604.937,393.146
		l-1.072-3.105c-0.24-0.704-0.4-1.344-0.561-1.969h-0.032c-0.16,0.625-0.32,1.297-0.544,1.953l-1.056,3.121H604.937z"/>
	<path d="M609.414,386.84h1.408v9.62h4.61v1.169h-6.019V386.84z"/>
</g>
<rect x="320.496" y="492.16" fill="#FFFFFF" stroke="#000000" width="94.958" height="41.176"/>
<g>
	<path d="M328.996,497.239c0.672-0.112,1.553-0.208,2.673-0.208c1.376,0,2.385,0.32,3.025,0.896
		c0.577,0.512,0.945,1.296,0.945,2.257c0,0.977-0.288,1.744-0.833,2.305c-0.752,0.784-1.937,1.185-3.297,1.185
		c-0.416,0-0.8-0.017-1.121-0.096v4.321h-1.393V497.239z M330.389,502.441c0.304,0.08,0.688,0.112,1.153,0.112
		c1.681,0,2.705-0.833,2.705-2.289c0-1.44-1.024-2.129-2.545-2.129c-0.608,0-1.072,0.048-1.312,0.111V502.441z"/>
	<path d="M338.901,497.111v4.514h5.218v-4.514h1.409v10.788h-1.409v-5.058h-5.218v5.058h-1.408v-10.788H338.901z"/>
	<path d="M357.16,502.394c0,3.697-2.257,5.682-5.01,5.682c-2.865,0-4.85-2.225-4.85-5.49c0-3.425,2.113-5.666,4.994-5.666
		C355.255,496.919,357.16,499.176,357.16,502.394z M348.772,502.554c0,2.32,1.249,4.386,3.458,4.386s3.458-2.033,3.458-4.482
		c0-2.161-1.121-4.401-3.441-4.401C349.925,498.056,348.772,500.2,348.772,502.554z"/>
	<path d="M358.964,507.899v-10.788h1.537l3.441,5.458c0.785,1.265,1.425,2.401,1.921,3.505l0.048-0.016
		c-0.128-1.44-0.16-2.753-0.16-4.434v-4.514h1.312v10.788h-1.409l-3.425-5.475c-0.752-1.2-1.473-2.433-2.001-3.601l-0.048,0.016
		c0.08,1.36,0.096,2.657,0.096,4.449v4.61H358.964z"/>
	<path d="M375.062,502.842h-4.178v3.889h4.674v1.169h-6.082v-10.788h5.842v1.168h-4.434v3.409h4.178V502.842z"/>
	<path d="M382.5,504.506l-1.121,3.394h-1.44l3.681-10.788h1.665l3.682,10.788h-1.488l-1.153-3.394H382.5z M386.054,503.418
		l-1.072-3.105c-0.24-0.704-0.4-1.345-0.561-1.969h-0.032c-0.16,0.624-0.32,1.296-0.544,1.952l-1.056,3.122H386.054z"/>
	<path d="M390.547,497.239c0.672-0.112,1.553-0.208,2.673-0.208c1.376,0,2.385,0.32,3.025,0.896
		c0.576,0.512,0.944,1.296,0.944,2.257c0,0.977-0.288,1.744-0.833,2.305c-0.752,0.784-1.937,1.185-3.297,1.185
		c-0.416,0-0.8-0.017-1.121-0.096v4.321h-1.393V497.239z M391.94,502.441c0.304,0.08,0.688,0.112,1.153,0.112
		c1.681,0,2.705-0.833,2.705-2.289c0-1.44-1.024-2.129-2.545-2.129c-0.608,0-1.072,0.048-1.312,0.111V502.441z"/>
	<path d="M399.059,497.239c0.673-0.112,1.553-0.208,2.674-0.208c1.377,0,2.385,0.32,3.025,0.896
		c0.576,0.512,0.944,1.296,0.944,2.257c0,0.977-0.288,1.744-0.833,2.305c-0.752,0.784-1.937,1.185-3.297,1.185
		c-0.416,0-0.801-0.017-1.121-0.096v4.321h-1.393V497.239z M400.451,502.441c0.305,0.08,0.689,0.112,1.153,0.112
		c1.681,0,2.705-0.833,2.705-2.289c0-1.44-1.024-2.129-2.546-2.129c-0.607,0-1.072,0.048-1.312,0.111V502.441z"/>
	<path d="M340.84,522.361c-0.08-1.504-0.176-3.329-0.176-4.657h-0.032c-0.384,1.248-0.816,2.608-1.36,4.098l-1.905,5.233h-1.057
		l-1.761-5.138c-0.512-1.536-0.928-2.913-1.232-4.193h-0.032c-0.032,1.345-0.112,3.137-0.208,4.77l-0.288,4.626h-1.329l0.752-10.788
		h1.777l1.841,5.218c0.448,1.328,0.8,2.513,1.088,3.634h0.032c0.288-1.089,0.672-2.273,1.153-3.634l1.92-5.218h1.777l0.672,10.788
		h-1.376L340.84,522.361z"/>
	<path d="M350.182,522.042h-4.178v3.889h4.674v1.169h-6.082v-10.788h5.842v1.168h-4.434v3.409h4.178V522.042z"/>
	<path d="M354.789,517.496h-3.281v-1.185h7.987v1.185h-3.297v9.604h-1.409V517.496z"/>
	<path d="M361.237,523.706l-1.121,3.394h-1.44l3.681-10.788h1.665l3.682,10.788h-1.488l-1.153-3.394H361.237z M364.79,522.618
		l-1.072-3.105c-0.24-0.704-0.4-1.345-0.561-1.969h-0.032c-0.16,0.624-0.32,1.296-0.544,1.952l-1.056,3.122H364.79z"/>
	<path d="M369.284,516.472c0.849-0.145,1.857-0.24,2.961-0.24c2.001,0,3.425,0.479,4.37,1.345c0.977,0.88,1.537,2.129,1.537,3.873
		c0,1.761-0.56,3.201-1.553,4.193c-1.024,1.009-2.689,1.553-4.786,1.553c-1.008,0-1.825-0.048-2.529-0.128V516.472z
		 M370.676,526.011c0.353,0.049,0.865,0.064,1.409,0.064c2.993,0,4.594-1.665,4.594-4.578c0.016-2.545-1.424-4.161-4.37-4.161
		c-0.72,0-1.265,0.063-1.633,0.144V526.011z"/>
	<path d="M381.46,523.706l-1.121,3.394h-1.44l3.681-10.788h1.665l3.682,10.788h-1.488l-1.153-3.394H381.46z M385.014,522.618
		l-1.072-3.105c-0.24-0.704-0.4-1.345-0.561-1.969h-0.032c-0.16,0.624-0.32,1.296-0.544,1.952l-1.056,3.122H385.014z"/>
	<path d="M390.324,517.496h-3.281v-1.185h7.987v1.185h-3.297v9.604h-1.409V517.496z"/>
	<path d="M396.772,523.706l-1.121,3.394h-1.44l3.681-10.788h1.664l3.682,10.788h-1.488l-1.152-3.394H396.772z M400.326,522.618
		l-1.072-3.105c-0.24-0.704-0.4-1.345-0.561-1.969h-0.032c-0.16,0.624-0.32,1.296-0.544,1.952l-1.057,3.122H400.326z"/>
</g>
<g>
	<g>
		<line fill="none" stroke="#000000" stroke-width="2" x1="381.95" y1="496.185" x2="427.835" y2="443.129"/>
		<g>
			<path d="M435.73,434c-2.121,5.674-4.011,13.356-3.988,19.152l-4.943-8.824l-9.443-3.619
				C423.094,439.896,430.423,436.918,435.73,434z"/>
		</g>
	</g>
</g>
<g>
	<g>
		<line fill="none" stroke="#000000" stroke-width="2" x1="307.807" y1="429.219" x2="348.732" y2="484.294"/>
		<g>
			<path d="M355.932,493.982c-5.079-3.302-12.168-6.813-17.831-8.048l9.687-2.912l5.581-8.433
				C352.917,480.367,354.234,488.168,355.932,493.982z"/>
		</g>
	</g>
</g>
<g>
	<path d="M474.965,516.203c0.623,0.399,1.52,0.704,2.48,0.704c1.424,0,2.257-0.753,2.257-1.841c0-0.992-0.576-1.585-2.032-2.129
		c-1.762-0.641-2.85-1.568-2.85-3.073c0-1.681,1.393-2.93,3.489-2.93c1.089,0,1.905,0.257,2.369,0.528l-0.384,1.137
		c-0.336-0.208-1.057-0.512-2.033-0.512c-1.473,0-2.033,0.88-2.033,1.616c0,1.009,0.656,1.505,2.145,2.081
		c1.825,0.704,2.738,1.584,2.738,3.169c0,1.665-1.217,3.121-3.762,3.121c-1.041,0-2.178-0.32-2.754-0.704L474.965,516.203z"/>
	<path d="M484.42,507.111v6.402c0,2.401,1.073,3.426,2.514,3.426c1.584,0,2.625-1.057,2.625-3.426v-6.402h1.408v6.307
		c0,3.312-1.744,4.657-4.081,4.657c-2.209,0-3.874-1.248-3.874-4.609v-6.354H484.42z"/>
	<path d="M493.38,507.255c0.704-0.128,1.729-0.224,2.673-0.224c1.489,0,2.465,0.288,3.121,0.88c0.529,0.48,0.85,1.217,0.85,2.065
		c0,1.408-0.896,2.353-2.018,2.736v0.049c0.816,0.288,1.312,1.056,1.568,2.177c0.353,1.504,0.608,2.545,0.832,2.961h-1.439
		c-0.177-0.32-0.416-1.232-0.705-2.577c-0.32-1.488-0.912-2.049-2.177-2.097h-1.312v4.674h-1.393V507.255z M494.772,512.169h1.425
		c1.488,0,2.434-0.816,2.434-2.049c0-1.393-1.01-2.001-2.481-2.001c-0.673,0-1.137,0.049-1.377,0.112V512.169z"/>
	<path d="M504.613,517.899l-3.538-10.788h1.521l1.682,5.313c0.447,1.457,0.848,2.77,1.152,4.034h0.031
		c0.305-1.249,0.736-2.609,1.232-4.018l1.825-5.33h1.488l-3.857,10.788H504.613z"/>
	<path d="M516.742,512.842h-4.178v3.889h4.674v1.169h-6.082v-10.788h5.842v1.168h-4.434v3.409h4.178V512.842z"/>
	<path d="M521.492,517.899v-4.578l-3.426-6.21h1.602l1.521,2.977c0.399,0.816,0.736,1.473,1.072,2.226h0.032
		c0.288-0.705,0.672-1.409,1.088-2.226l1.553-2.977h1.568l-3.602,6.194v4.594H521.492z"/>
	<path d="M527.363,516.203c0.625,0.399,1.521,0.704,2.481,0.704c1.425,0,2.257-0.753,2.257-1.841c0-0.992-0.576-1.585-2.033-2.129
		c-1.76-0.641-2.849-1.568-2.849-3.073c0-1.681,1.393-2.93,3.489-2.93c1.088,0,1.904,0.257,2.369,0.528l-0.385,1.137
		c-0.336-0.208-1.057-0.512-2.032-0.512c-1.473,0-2.033,0.88-2.033,1.616c0,1.009,0.657,1.505,2.146,2.081
		c1.824,0.704,2.736,1.584,2.736,3.169c0,1.665-1.217,3.121-3.762,3.121c-1.04,0-2.176-0.32-2.752-0.704L527.363,516.203z"/>
</g>
<g>
	<g>
		<line fill="none" stroke="#000000" stroke-width="2" x1="518.949" y1="499.185" x2="564.835" y2="446.129"/>
		<g>
			<path d="M572.73,437c-2.121,5.674-4.011,13.356-3.988,19.152l-4.943-8.824l-9.443-3.619
				C560.094,442.896,567.423,439.918,572.73,437z"/>
		</g>
	</g>
</g>
<g>
	<g>
		<line fill="none" stroke="#000000" stroke-width="2" x1="444.807" y1="432.219" x2="485.732" y2="487.294"/>
		<g>
			<path d="M492.932,496.982c-5.079-3.302-12.168-6.813-17.83-8.048l9.686-2.912l5.582-8.433
				C489.917,483.367,491.234,491.168,492.932,496.982z"/>
		</g>
	</g>
</g>
<g>
	<path d="M17.629,17.616c1.06-0.18,2.32-0.3,3.701-0.3c2.5,0,4.281,0.601,5.461,1.681c1.22,1.1,1.92,2.66,1.92,4.841
		c0,2.2-0.7,4.001-1.94,5.241c-1.28,1.26-3.36,1.94-5.981,1.94c-1.26,0-2.281-0.061-3.161-0.16V17.616z M19.369,29.539
		c0.44,0.061,1.08,0.08,1.76,0.08c3.741,0,5.741-2.08,5.741-5.722c0.02-3.181-1.78-5.2-5.461-5.2c-0.9,0-1.581,0.079-2.041,0.18
		V29.539z"/>
	<path d="M32.849,26.658l-1.4,4.241h-1.8l4.601-13.482h2.081l4.601,13.482H39.07l-1.44-4.241H32.849z M37.29,25.298l-1.34-3.881
		c-0.3-0.88-0.5-1.68-0.7-2.46h-0.04c-0.2,0.78-0.4,1.62-0.68,2.44l-1.32,3.9H37.29z"/>
	<path d="M43.929,18.896h-4.101v-1.479h9.982v1.479h-4.121v12.003h-1.76V18.896z"/>
	<path d="M51.989,26.658l-1.4,4.241h-1.8l4.601-13.482h2.081l4.601,13.482H58.21l-1.44-4.241H51.989z M56.43,25.298l-1.34-3.881
		c-0.3-0.88-0.5-1.68-0.7-2.46h-0.04c-0.2,0.78-0.4,1.62-0.68,2.44l-1.32,3.9H56.43z"/>
	<path d="M66.269,17.417h7.261v1.46h-5.501v4.48h5.081v1.44h-5.081v6.102h-1.76V17.417z"/>
	<path d="M76.008,17.417h1.76v12.022h5.761v1.46h-7.521V17.417z"/>
	<path d="M96.211,24.018c0,4.621-2.821,7.102-6.262,7.102c-3.581,0-6.061-2.78-6.061-6.861c0-4.28,2.641-7.081,6.241-7.081
		C93.83,17.177,96.211,19.997,96.211,24.018z M85.729,24.218c0,2.9,1.561,5.481,4.321,5.481c2.761,0,4.321-2.541,4.321-5.602
		c0-2.7-1.4-5.501-4.301-5.501C87.169,18.597,85.729,21.277,85.729,24.218z"/>
	<path d="M100.668,30.899l-3.42-13.482h1.84l1.6,6.821c0.4,1.68,0.76,3.36,1,4.661h0.04c0.22-1.341,0.64-2.941,1.1-4.682l1.8-6.801
		h1.82l1.641,6.841c0.38,1.601,0.74,3.201,0.94,4.621h0.04c0.28-1.48,0.66-2.98,1.08-4.661l1.781-6.801h1.78l-3.821,13.482h-1.82
		l-1.701-7.021c-0.42-1.721-0.7-3.041-0.88-4.401h-0.04c-0.22,1.341-0.54,2.661-1.041,4.401l-1.92,7.021H100.668z"/>
	<path d="M119.628,17.616c1.06-0.18,2.32-0.3,3.701-0.3c2.5,0,4.281,0.601,5.461,1.681c1.22,1.1,1.92,2.66,1.92,4.841
		c0,2.2-0.7,4.001-1.94,5.241c-1.28,1.26-3.36,1.94-5.981,1.94c-1.26,0-2.281-0.061-3.161-0.16V17.616z M121.368,29.539
		c0.44,0.061,1.08,0.08,1.76,0.08c3.741,0,5.741-2.08,5.741-5.722c0.02-3.181-1.78-5.2-5.461-5.2c-0.9,0-1.581,0.079-2.041,0.18
		V29.539z"/>
	<path d="M134.688,17.417v13.482h-1.76V17.417H134.688z"/>
	<path d="M139.908,26.658l-1.4,4.241h-1.8l4.601-13.482h2.081l4.601,13.482h-1.861l-1.44-4.241H139.908z M144.349,25.298
		l-1.34-3.881c-0.3-0.88-0.5-1.68-0.7-2.46h-0.04c-0.2,0.78-0.4,1.62-0.68,2.44l-1.32,3.9H144.349z"/>
	<path d="M159.95,30.299c-0.78,0.301-2.341,0.74-4.161,0.74c-2.041,0-3.721-0.52-5.041-1.78c-1.16-1.12-1.88-2.92-1.88-5.021
		c0-4.021,2.781-6.962,7.301-6.962c1.561,0,2.801,0.34,3.381,0.62l-0.44,1.421c-0.72-0.341-1.621-0.581-2.98-0.581
		c-3.281,0-5.421,2.041-5.421,5.422c0,3.421,2.041,5.441,5.201,5.441c1.14,0,1.92-0.16,2.32-0.36v-4.021h-2.721v-1.399h4.441V30.299
		z"/>
	<path d="M162.588,17.597c0.88-0.16,2.16-0.28,3.34-0.28c1.861,0,3.081,0.36,3.901,1.101c0.66,0.6,1.061,1.521,1.061,2.58
		c0,1.761-1.121,2.94-2.521,3.421v0.061c1.02,0.359,1.64,1.319,1.96,2.72c0.44,1.881,0.76,3.181,1.04,3.701h-1.8
		c-0.22-0.4-0.52-1.54-0.88-3.221c-0.4-1.86-1.14-2.561-2.721-2.62h-1.64v5.841h-1.74V17.597z M164.328,23.738h1.78
		c1.86,0,3.041-1.021,3.041-2.561c0-1.741-1.26-2.501-3.101-2.501c-0.84,0-1.42,0.06-1.72,0.14V23.738z"/>
	<path d="M175.627,26.658l-1.4,4.241h-1.8l4.601-13.482h2.081l4.601,13.482h-1.861l-1.44-4.241H175.627z M180.068,25.298
		l-1.34-3.881c-0.3-0.88-0.5-1.68-0.7-2.46h-0.04c-0.2,0.78-0.4,1.62-0.68,2.44l-1.32,3.9H180.068z"/>
	<path d="M196.97,24.979c-0.1-1.881-0.22-4.161-0.22-5.821h-0.04c-0.48,1.56-1.02,3.261-1.7,5.121l-2.38,6.541h-1.32l-2.201-6.421
		c-0.64-1.921-1.16-3.642-1.54-5.241h-0.04c-0.04,1.68-0.14,3.921-0.26,5.961l-0.36,5.781h-1.661l0.94-13.482h2.22l2.301,6.521
		c0.56,1.661,1,3.141,1.36,4.541h0.04c0.36-1.36,0.84-2.84,1.44-4.541l2.4-6.521h2.221l0.84,13.482h-1.721L196.97,24.979z"/>
	<path d="M201.467,28.779c0.78,0.5,1.9,0.88,3.101,0.88c1.78,0,2.821-0.94,2.821-2.301c0-1.24-0.72-1.98-2.541-2.66
		c-2.201-0.801-3.561-1.961-3.561-3.841c0-2.101,1.741-3.661,4.361-3.661c1.36,0,2.381,0.32,2.961,0.66l-0.48,1.421
		c-0.42-0.261-1.32-0.641-2.541-0.641c-1.841,0-2.541,1.101-2.541,2.021c0,1.261,0.82,1.881,2.681,2.601
		c2.281,0.88,3.421,1.98,3.421,3.961c0,2.08-1.521,3.9-4.701,3.9c-1.3,0-2.72-0.399-3.44-0.88L201.467,28.779z"/>
</g>
<g>
	<path d="M52.581,135.578h-5.221v4.861h5.841v1.46h-7.602v-13.482H52.9v1.46h-5.541v4.261h5.221V135.578z"/>
	<path d="M55.459,141.899v-13.482h1.92l4.301,6.821c0.98,1.58,1.78,3,2.4,4.381l0.06-0.021c-0.16-1.8-0.2-3.44-0.2-5.541v-5.641
		h1.641v13.482h-1.76l-4.281-6.842c-0.94-1.5-1.84-3.04-2.5-4.501l-0.06,0.021c0.1,1.7,0.12,3.32,0.12,5.562v5.761H55.459z"/>
	<path d="M78.901,141.299c-0.78,0.301-2.341,0.74-4.161,0.74c-2.041,0-3.721-0.52-5.041-1.78c-1.16-1.12-1.88-2.92-1.88-5.021
		c0-4.021,2.781-6.962,7.301-6.962c1.561,0,2.801,0.34,3.381,0.62l-0.44,1.421c-0.72-0.341-1.621-0.581-2.98-0.581
		c-3.281,0-5.421,2.041-5.421,5.422c0,3.421,2.041,5.441,5.201,5.441c1.14,0,1.92-0.16,2.32-0.36v-4.021h-2.72v-1.399h4.441V141.299
		z"/>
	<path d="M83.719,137.658l-1.4,4.241h-1.8l4.601-13.482H87.2l4.601,13.482h-1.86l-1.44-4.241H83.719z M88.16,136.298l-1.34-3.881
		c-0.3-0.88-0.5-1.68-0.7-2.46h-0.04c-0.2,0.78-0.4,1.62-0.68,2.44l-1.32,3.9H88.16z"/>
	<path d="M103.761,141.299c-0.78,0.301-2.341,0.74-4.161,0.74c-2.041,0-3.721-0.52-5.041-1.78c-1.16-1.12-1.88-2.92-1.88-5.021
		c0-4.021,2.781-6.962,7.301-6.962c1.561,0,2.801,0.34,3.381,0.62l-0.44,1.421c-0.72-0.341-1.621-0.581-2.98-0.581
		c-3.281,0-5.421,2.041-5.421,5.422c0,3.421,2.041,5.441,5.201,5.441c1.14,0,1.92-0.16,2.32-0.36v-4.021h-2.721v-1.399h4.441
		V141.299z"/>
	<path d="M113.36,135.578h-5.221v4.861h5.841v1.46h-7.602v-13.482h7.301v1.46h-5.541v4.261h5.221V135.578z"/>
	<path d="M120.478,128.597c0.88-0.16,2.16-0.28,3.34-0.28c1.86,0,3.081,0.36,3.901,1.101c0.66,0.6,1.061,1.521,1.061,2.58
		c0,1.761-1.121,2.94-2.521,3.421v0.061c1.02,0.359,1.64,1.319,1.96,2.72c0.44,1.881,0.76,3.181,1.04,3.701h-1.8
		c-0.22-0.4-0.52-1.54-0.88-3.221c-0.4-1.86-1.14-2.561-2.721-2.62h-1.64v5.841h-1.74V128.597z M122.218,134.738h1.78
		c1.86,0,3.041-1.021,3.041-2.561c0-1.741-1.26-2.501-3.101-2.501c-0.84,0-1.42,0.06-1.72,0.14V134.738z"/>
	<path d="M138.2,135.578h-5.221v4.861h5.841v1.46h-7.602v-13.482h7.301v1.46h-5.541v4.261h5.221V135.578z"/>
	<path d="M150.479,141.479c-0.62,0.32-1.92,0.64-3.561,0.64c-3.801,0-6.642-2.4-6.642-6.841c0-4.241,2.86-7.082,7.042-7.082
		c1.66,0,2.741,0.36,3.201,0.601l-0.44,1.42c-0.64-0.32-1.581-0.56-2.701-0.56c-3.161,0-5.261,2.02-5.261,5.561
		c0,3.321,1.9,5.421,5.161,5.421c1.08,0,2.161-0.22,2.86-0.56L150.479,141.479z"/>
	<path d="M152.678,128.597c0.88-0.16,2.16-0.28,3.34-0.28c1.861,0,3.081,0.36,3.901,1.101c0.66,0.6,1.061,1.521,1.061,2.58
		c0,1.761-1.121,2.94-2.521,3.421v0.061c1.02,0.359,1.64,1.319,1.96,2.72c0.44,1.881,0.76,3.181,1.04,3.701h-1.8
		c-0.22-0.4-0.52-1.54-0.88-3.221c-0.4-1.86-1.14-2.561-2.721-2.62h-1.64v5.841h-1.74V128.597z M154.418,134.738h1.78
		c1.86,0,3.041-1.021,3.041-2.561c0-1.741-1.26-2.501-3.101-2.501c-0.84,0-1.42,0.06-1.72,0.14V134.738z"/>
	<path d="M165.178,128.417v8.001c0,3.001,1.34,4.281,3.141,4.281c1.98,0,3.281-1.32,3.281-4.281v-8.001h1.76v7.881
		c0,4.142-2.18,5.821-5.101,5.821c-2.761,0-4.841-1.56-4.841-5.761v-7.941H165.178z"/>
	<path d="M178.117,128.417v13.482h-1.76v-13.482H178.117z"/>
	<path d="M183.718,129.896h-4.101v-1.479h9.982v1.479h-4.121v12.003h-1.76V129.896z"/>
	<path d="M198.059,135.578h-5.221v4.861h5.841v1.46h-7.602v-13.482h7.301v1.46h-5.541v4.261h5.221V135.578z"/>
	<path d="M200.937,128.597c0.88-0.16,2.16-0.28,3.34-0.28c1.86,0,3.081,0.36,3.901,1.101c0.66,0.6,1.061,1.521,1.061,2.58
		c0,1.761-1.121,2.94-2.521,3.421v0.061c1.02,0.359,1.64,1.319,1.96,2.72c0.44,1.881,0.76,3.181,1.04,3.701h-1.8
		c-0.22-0.4-0.52-1.54-0.88-3.221c-0.4-1.86-1.14-2.561-2.721-2.62h-1.64v5.841h-1.74V128.597z M202.677,134.738h1.78
		c1.86,0,3.041-1.021,3.041-2.561c0-1.741-1.26-2.501-3.101-2.501c-0.84,0-1.42,0.06-1.72,0.14V134.738z"/>
	<path d="M211.477,139.779c0.78,0.5,1.9,0.88,3.101,0.88c1.78,0,2.821-0.94,2.821-2.301c0-1.24-0.72-1.98-2.541-2.66
		c-2.201-0.801-3.561-1.961-3.561-3.841c0-2.101,1.741-3.661,4.361-3.661c1.36,0,2.381,0.32,2.961,0.66l-0.48,1.421
		c-0.42-0.261-1.32-0.641-2.541-0.641c-1.841,0-2.541,1.101-2.541,2.021c0,1.261,0.82,1.881,2.681,2.601
		c2.281,0.88,3.421,1.98,3.421,3.961c0,2.08-1.521,3.9-4.701,3.9c-1.3,0-2.72-0.399-3.44-0.88L211.477,139.779z"/>
</g>
<g>
	<path d="M49.63,365.578h-5.221v4.861h5.841v1.46h-7.602v-13.482h7.301v1.46h-5.541v4.261h5.221V365.578z"/>
	<path d="M52.509,371.899v-13.482h1.92l4.301,6.821c0.98,1.58,1.78,3,2.4,4.381l0.06-0.021c-0.16-1.8-0.2-3.44-0.2-5.541v-5.641
		h1.641v13.482h-1.76l-4.281-6.842c-0.94-1.5-1.84-3.04-2.5-4.501l-0.06,0.021c0.1,1.7,0.12,3.32,0.12,5.562v5.761H52.509z"/>
	<path d="M75.951,371.299c-0.78,0.301-2.341,0.74-4.161,0.74c-2.041,0-3.721-0.52-5.041-1.78c-1.16-1.12-1.88-2.92-1.88-5.021
		c0-4.021,2.781-6.962,7.301-6.962c1.561,0,2.801,0.34,3.381,0.62l-0.44,1.421c-0.72-0.341-1.621-0.581-2.98-0.581
		c-3.281,0-5.421,2.041-5.421,5.422c0,3.421,2.041,5.441,5.201,5.441c1.14,0,1.92-0.16,2.32-0.36v-4.021h-2.72v-1.399h4.441V371.299
		z"/>
	<path d="M80.769,367.658l-1.4,4.241h-1.8l4.601-13.482h2.081l4.601,13.482h-1.86l-1.44-4.241H80.769z M85.209,366.298l-1.34-3.881
		c-0.3-0.88-0.5-1.68-0.7-2.46h-0.04c-0.2,0.78-0.4,1.62-0.68,2.44l-1.32,3.9H85.209z"/>
	<path d="M100.811,371.299c-0.78,0.301-2.341,0.74-4.161,0.74c-2.041,0-3.721-0.52-5.041-1.78c-1.16-1.12-1.88-2.92-1.88-5.021
		c0-4.021,2.781-6.962,7.301-6.962c1.561,0,2.801,0.34,3.381,0.62l-0.44,1.421c-0.72-0.341-1.621-0.581-2.98-0.581
		c-3.281,0-5.421,2.041-5.421,5.422c0,3.421,2.041,5.441,5.201,5.441c1.14,0,1.92-0.16,2.32-0.36v-4.021h-2.721v-1.399h4.441
		V371.299z"/>
	<path d="M110.41,365.578h-5.221v4.861h5.841v1.46h-7.602v-13.482h7.301v1.46h-5.541v4.261h5.221V365.578z"/>
	<path d="M126.93,371.479c-0.62,0.32-1.92,0.64-3.561,0.64c-3.801,0-6.642-2.4-6.642-6.841c0-4.241,2.86-7.082,7.042-7.082
		c1.66,0,2.741,0.36,3.201,0.601l-0.44,1.42c-0.64-0.32-1.581-0.56-2.701-0.56c-3.161,0-5.261,2.02-5.261,5.561
		c0,3.321,1.9,5.421,5.161,5.421c1.08,0,2.161-0.22,2.86-0.56L126.93,371.479z"/>
	<path d="M136.089,365.578h-5.221v4.861h5.841v1.46h-7.602v-13.482h7.301v1.46h-5.541v4.261h5.221V365.578z"/>
	<path d="M150.49,365.018c0,4.621-2.821,7.102-6.262,7.102c-3.581,0-6.061-2.78-6.061-6.861c0-4.28,2.641-7.081,6.241-7.081
		C148.109,358.177,150.49,360.997,150.49,365.018z M140.007,365.218c0,2.9,1.561,5.481,4.321,5.481c2.761,0,4.321-2.541,4.321-5.602
		c0-2.7-1.4-5.501-4.301-5.501C141.448,359.597,140.007,362.277,140.007,365.218z"/>
	<path d="M152.447,370.119c0.54,0.32,1.46,0.68,2.34,0.68c1.26,0,1.861-0.62,1.861-1.44c0-0.84-0.5-1.28-1.781-1.76
		c-1.76-0.641-2.581-1.58-2.581-2.741c0-1.56,1.28-2.84,3.341-2.84c0.98,0,1.84,0.26,2.36,0.6l-0.42,1.28
		c-0.38-0.24-1.08-0.58-1.98-0.58c-1.04,0-1.6,0.601-1.6,1.32c0,0.801,0.56,1.16,1.82,1.66c1.66,0.62,2.541,1.461,2.541,2.901
		c0,1.72-1.34,2.92-3.601,2.92c-1.061,0-2.041-0.279-2.721-0.68L152.447,370.119z"/>
	<path d="M173.349,371.899c-0.38-0.38-0.74-0.78-1.26-1.3c-1.16,1.06-2.44,1.52-3.94,1.52c-2.621,0-4.141-1.76-4.141-3.78
		c0-1.841,1.1-3.101,2.641-3.941v-0.06c-0.7-0.88-1.12-1.881-1.12-2.82c0-1.661,1.18-3.341,3.42-3.341c1.681,0,2.981,1.1,2.981,2.86
		c0,1.42-0.82,2.541-2.961,3.601v0.08c1.141,1.32,2.421,2.78,3.281,3.741c0.62-0.94,1.041-2.241,1.3-3.941h1.601
		c-0.36,2.121-0.94,3.801-1.94,4.981c0.72,0.78,1.42,1.54,2.22,2.4H173.349z M171.229,369.579c-0.8-0.88-2.301-2.521-3.801-4.261
		c-0.74,0.479-1.741,1.32-1.741,2.76c0,1.541,1.141,2.721,2.781,2.721C169.608,370.799,170.588,370.279,171.229,369.579z
		 M167.127,361.337c0,0.98,0.46,1.721,1.021,2.44c1.36-0.78,2.24-1.5,2.24-2.66c0-0.82-0.46-1.74-1.58-1.74
		C167.708,359.377,167.127,360.297,167.127,361.337z"/>
	<path d="M190.649,371.479c-0.62,0.32-1.92,0.64-3.561,0.64c-3.801,0-6.641-2.4-6.641-6.841c0-4.241,2.86-7.082,7.042-7.082
		c1.66,0,2.741,0.36,3.201,0.601l-0.44,1.42c-0.64-0.32-1.581-0.56-2.701-0.56c-3.161,0-5.261,2.02-5.261,5.561
		c0,3.321,1.9,5.421,5.161,5.421c1.08,0,2.161-0.22,2.86-0.56L190.649,371.479z"/>
	<path d="M195.967,359.896h-4.101v-1.479h9.982v1.479h-4.121v12.003h-1.76V359.896z"/>
	<path d="M214.329,365.018c0,4.621-2.821,7.102-6.262,7.102c-3.581,0-6.061-2.78-6.061-6.861c0-4.28,2.641-7.081,6.241-7.081
		C211.948,358.177,214.329,360.997,214.329,365.018z M203.847,365.218c0,2.9,1.561,5.481,4.321,5.481
		c2.761,0,4.321-2.541,4.321-5.602c0-2.7-1.4-5.501-4.301-5.501C205.287,359.597,203.847,362.277,203.847,365.218z"/>
	<path d="M216.286,370.119c0.54,0.32,1.46,0.68,2.34,0.68c1.26,0,1.861-0.62,1.861-1.44c0-0.84-0.5-1.28-1.781-1.76
		c-1.76-0.641-2.581-1.58-2.581-2.741c0-1.56,1.28-2.84,3.341-2.84c0.98,0,1.84,0.26,2.36,0.6l-0.42,1.28
		c-0.38-0.24-1.08-0.58-1.98-0.58c-1.04,0-1.6,0.601-1.6,1.32c0,0.801,0.56,1.16,1.82,1.66c1.66,0.62,2.541,1.461,2.541,2.901
		c0,1.72-1.34,2.92-3.601,2.92c-1.061,0-2.041-0.279-2.721-0.68L216.286,370.119z"/>
</g>
<rect x="614.496" y="487.16" fill="#FFFFFF" stroke="#000000" width="94.957" height="41.176"/>
<g>
	<path d="M628.372,499.239c0.673-0.112,1.553-0.208,2.673-0.208c1.377,0,2.385,0.32,3.025,0.896
		c0.576,0.512,0.945,1.296,0.945,2.257c0,0.977-0.289,1.744-0.833,2.305c-0.753,0.784-1.937,1.185-3.298,1.185
		c-0.416,0-0.8-0.017-1.12-0.096v4.321h-1.393V499.239z M629.765,504.441c0.304,0.08,0.688,0.112,1.153,0.112
		c1.68,0,2.705-0.833,2.705-2.289c0-1.44-1.025-2.129-2.546-2.129c-0.608,0-1.072,0.048-1.312,0.111V504.441z"/>
	<path d="M636.885,499.255c0.704-0.128,1.729-0.224,2.673-0.224c1.488,0,2.465,0.288,3.121,0.88c0.528,0.48,0.849,1.217,0.849,2.065
		c0,1.408-0.896,2.353-2.018,2.736v0.049c0.816,0.288,1.312,1.056,1.569,2.177c0.353,1.504,0.608,2.545,0.832,2.961h-1.44
		c-0.176-0.32-0.416-1.232-0.704-2.577c-0.32-1.488-0.913-2.049-2.177-2.097h-1.312v4.674h-1.393V499.255z M638.277,504.169h1.424
		c1.489,0,2.434-0.816,2.434-2.049c0-1.393-1.009-2.001-2.48-2.001c-0.673,0-1.137,0.049-1.377,0.112V504.169z"/>
	<path d="M654.76,504.394c0,3.697-2.258,5.682-5.01,5.682c-2.865,0-4.851-2.225-4.851-5.49c0-3.425,2.112-5.666,4.994-5.666
		C652.854,498.919,654.76,501.176,654.76,504.394z M646.372,504.554c0,2.32,1.249,4.386,3.458,4.386s3.457-2.033,3.457-4.482
		c0-2.161-1.121-4.401-3.441-4.401C647.524,500.056,646.372,502.2,646.372,504.554z"/>
	<path d="M656.564,499.239c0.672-0.112,1.553-0.208,2.673-0.208c1.376,0,2.385,0.32,3.025,0.896
		c0.576,0.512,0.944,1.296,0.944,2.257c0,0.977-0.288,1.744-0.832,2.305c-0.753,0.784-1.938,1.185-3.298,1.185
		c-0.416,0-0.8-0.017-1.12-0.096v4.321h-1.393V499.239z M657.957,504.441c0.304,0.08,0.688,0.112,1.152,0.112
		c1.681,0,2.705-0.833,2.705-2.289c0-1.44-1.024-2.129-2.545-2.129c-0.608,0-1.072,0.048-1.312,0.111V504.441z"/>
	<path d="M664.9,508.203c0.623,0.399,1.52,0.704,2.48,0.704c1.424,0,2.257-0.753,2.257-1.841c0-0.992-0.576-1.585-2.032-2.129
		c-1.762-0.641-2.85-1.568-2.85-3.073c0-1.681,1.393-2.93,3.489-2.93c1.089,0,1.905,0.257,2.369,0.528l-0.384,1.137
		c-0.336-0.208-1.057-0.512-2.033-0.512c-1.473,0-2.033,0.88-2.033,1.616c0,1.009,0.656,1.505,2.145,2.081
		c1.825,0.704,2.738,1.584,2.738,3.169c0,1.665-1.217,3.121-3.762,3.121c-1.041,0-2.178-0.32-2.754-0.704L664.9,508.203z"/>
	<path d="M674.709,506.506l-1.121,3.394h-1.44l3.681-10.788h1.665l3.682,10.788h-1.488l-1.153-3.394H674.709z M678.262,505.418
		l-1.072-3.105c-0.24-0.704-0.4-1.345-0.561-1.969h-0.031c-0.16,0.624-0.32,1.296-0.545,1.952l-1.057,3.122H678.262z"/>
	<path d="M682.74,499.111h1.408v9.619h4.609v1.169h-6.018V499.111z"/>
	<path d="M690.131,508.203c0.625,0.399,1.521,0.704,2.481,0.704c1.425,0,2.257-0.753,2.257-1.841c0-0.992-0.576-1.585-2.033-2.129
		c-1.76-0.641-2.849-1.568-2.849-3.073c0-1.681,1.393-2.93,3.489-2.93c1.088,0,1.904,0.257,2.369,0.528l-0.385,1.137
		c-0.336-0.208-1.057-0.512-2.032-0.512c-1.473,0-2.033,0.88-2.033,1.616c0,1.009,0.657,1.505,2.146,2.081
		c1.824,0.704,2.736,1.584,2.736,3.169c0,1.665-1.217,3.121-3.762,3.121c-1.04,0-2.176-0.32-2.752-0.704L690.131,508.203z"/>
</g>
<g>
	<g>
		<line fill="none" stroke="#000000" stroke-width="2" x1="602.807" y1="424.219" x2="643.732" y2="479.294"/>
		<g>
			<path d="M650.932,488.982c-5.079-3.302-12.168-6.813-17.83-8.048l9.686-2.912l5.582-8.433
				C647.917,475.367,649.234,483.168,650.932,488.982z"/>
		</g>
	</g>
</g>
<rect x="614.496" y="237.16" fill="#FFFFFF" stroke="#000000" width="94.957" height="41.176"/>
<g>
	<path d="M622.859,249.239c0.673-0.112,1.553-0.208,2.674-0.208c1.377,0,2.385,0.32,3.025,0.896
		c0.576,0.512,0.944,1.296,0.944,2.257c0,0.977-0.288,1.744-0.833,2.305c-0.752,0.784-1.937,1.185-3.297,1.185
		c-0.416,0-0.801-0.017-1.121-0.096v4.321h-1.393V249.239z M624.252,254.441c0.305,0.08,0.689,0.112,1.153,0.112
		c1.681,0,2.705-0.833,2.705-2.289c0-1.44-1.024-2.129-2.546-2.129c-0.607,0-1.072,0.048-1.312,0.111V254.441z"/>
	<path d="M631.371,249.255c0.705-0.128,1.729-0.224,2.674-0.224c1.488,0,2.465,0.288,3.121,0.88c0.528,0.48,0.849,1.217,0.849,2.065
		c0,1.408-0.896,2.353-2.017,2.736v0.049c0.816,0.288,1.312,1.056,1.568,2.177c0.352,1.504,0.607,2.545,0.832,2.961h-1.44
		c-0.177-0.32-0.416-1.232-0.704-2.577c-0.32-1.488-0.912-2.049-2.178-2.097h-1.312v4.674h-1.393V249.255z M632.764,254.169h1.426
		c1.488,0,2.433-0.816,2.433-2.049c0-1.393-1.009-2.001-2.481-2.001c-0.672,0-1.137,0.049-1.377,0.112V254.169z"/>
	<path d="M649.248,254.394c0,3.697-2.258,5.682-5.01,5.682c-2.865,0-4.851-2.225-4.851-5.49c0-3.425,2.112-5.666,4.994-5.666
		C647.343,248.919,649.248,251.176,649.248,254.394z M640.86,254.554c0,2.32,1.249,4.386,3.458,4.386s3.457-2.033,3.457-4.482
		c0-2.161-1.121-4.401-3.441-4.401C642.013,250.056,640.86,252.2,640.86,254.554z"/>
	<path d="M651.051,249.239c0.673-0.112,1.553-0.208,2.674-0.208c1.377,0,2.385,0.32,3.025,0.896
		c0.576,0.512,0.944,1.296,0.944,2.257c0,0.977-0.288,1.744-0.833,2.305c-0.752,0.784-1.937,1.185-3.297,1.185
		c-0.416,0-0.801-0.017-1.121-0.096v4.321h-1.393V249.239z M652.443,254.441c0.305,0.08,0.689,0.112,1.153,0.112
		c1.681,0,2.705-0.833,2.705-2.289c0-1.44-1.024-2.129-2.546-2.129c-0.607,0-1.072,0.048-1.312,0.111V254.441z"/>
	<path d="M668.783,254.394c0,3.697-2.257,5.682-5.01,5.682c-2.865,0-4.85-2.225-4.85-5.49c0-3.425,2.112-5.666,4.994-5.666
		C666.879,248.919,668.783,251.176,668.783,254.394z M660.396,254.554c0,2.32,1.248,4.386,3.457,4.386s3.457-2.033,3.457-4.482
		c0-2.161-1.12-4.401-3.441-4.401C661.549,250.056,660.396,252.2,660.396,254.554z"/>
	<path d="M670.412,258.203c0.623,0.399,1.52,0.704,2.48,0.704c1.424,0,2.257-0.753,2.257-1.841c0-0.992-0.576-1.585-2.032-2.129
		c-1.762-0.641-2.85-1.568-2.85-3.073c0-1.681,1.393-2.93,3.489-2.93c1.089,0,1.905,0.257,2.369,0.528l-0.384,1.137
		c-0.336-0.208-1.057-0.512-2.033-0.512c-1.473,0-2.033,0.88-2.033,1.616c0,1.009,0.656,1.505,2.145,2.081
		c1.825,0.704,2.738,1.584,2.738,3.169c0,1.665-1.217,3.121-3.762,3.121c-1.041,0-2.178-0.32-2.754-0.704L670.412,258.203z"/>
	<path d="M680.221,256.506l-1.121,3.394h-1.44l3.681-10.788h1.665l3.682,10.788h-1.488l-1.153-3.394H680.221z M683.773,255.418
		l-1.072-3.105c-0.24-0.704-0.4-1.345-0.561-1.969h-0.031c-0.16,0.624-0.32,1.296-0.545,1.952l-1.057,3.122H683.773z"/>
	<path d="M688.252,249.111h1.408v9.619h4.609v1.169h-6.018V249.111z"/>
	<path d="M695.643,258.203c0.625,0.399,1.521,0.704,2.481,0.704c1.425,0,2.257-0.753,2.257-1.841c0-0.992-0.576-1.585-2.033-2.129
		c-1.76-0.641-2.849-1.568-2.849-3.073c0-1.681,1.393-2.93,3.489-2.93c1.088,0,1.904,0.257,2.369,0.528l-0.385,1.137
		c-0.336-0.208-1.057-0.512-2.032-0.512c-1.473,0-2.033,0.88-2.033,1.616c0,1.009,0.657,1.505,2.146,2.081
		c1.824,0.704,2.736,1.584,2.736,3.169c0,1.665-1.217,3.121-3.762,3.121c-1.04,0-2.176-0.32-2.752-0.704L695.643,258.203z"/>
</g>
<g>
	<g>
		<line fill="none" stroke="#000000" stroke-width="2" x1="602.807" y1="174.219" x2="643.732" y2="229.294"/>
		<g>
			<path d="M650.932,238.982c-5.079-3.302-12.168-6.813-17.83-8.048l9.686-2.912l5.582-8.433
				C647.917,225.367,649.234,233.168,650.932,238.982z"/>
		</g>
	</g>
</g>
</svg>
